<?xml version="1.0" encoding="UTF-8" standalone="no"?>
<!DOCTYPE svg PUBLIC "-//W3C//DTD SVG 1.1//EN"
 "http://www.w3.org/Graphics/SVG/1.1/DTD/svg11.dtd">
<!-- Generated by graphviz version 2.47.0 (20210316.0004)
 -->
<!-- Title: dependencies Pages: 1 -->
<svg width="670pt" height="284pt"
 viewBox="0.00 0.00 670.00 284.00" xmlns="http://www.w3.org/2000/svg" xmlns:xlink="http://www.w3.org/1999/xlink">
<g id="graph0" class="graph" transform="scale(1 1) rotate(0) translate(4 280)">
<title>dependencies</title>
<polygon fill="white" stroke="transparent" points="-4,4 -4,-280 666,-280 666,4 -4,4"/>
<text text-anchor="start" x="310.01" y="-42.4" font-family="sans-serif" font-weight="bold" font-size="14.00">Legend</text>
<polygon fill="#ffffb3" stroke="transparent" points="97,-10 97,-30 117,-30 117,-10 97,-10"/>
<text text-anchor="start" x="120.63" y="-15.4" font-family="sans-serif" font-size="14.00"> &#160;Declarations</text>
<polygon fill="#8dd3c7" stroke="transparent" points="210,-10 210,-30 230,-30 230,-10 210,-10"/>
<text text-anchor="start" x="233.73" y="-15.4" font-family="sans-serif" font-size="14.00"> &#160;Module</text>
<polygon fill="#80b1d3" stroke="transparent" points="296,-10 296,-30 316,-30 316,-10 296,-10"/>
<text text-anchor="start" x="319.78" y="-15.4" font-family="sans-serif" font-size="14.00"> &#160;Bootstrap</text>
<polygon fill="#fdb462" stroke="transparent" points="393,-10 393,-30 413,-30 413,-10 393,-10"/>
<text text-anchor="start" x="416.67" y="-15.4" font-family="sans-serif" font-size="14.00"> &#160;Providers</text>
<polygon fill="#fb8072" stroke="transparent" points="489,-10 489,-30 509,-30 509,-10 489,-10"/>
<text text-anchor="start" x="512.73" y="-15.4" font-family="sans-serif" font-size="14.00"> &#160;Exports</text>
<g id="clust1" class="cluster">
<title>cluster_PipesModule</title>
<polygon fill="none" stroke="black" stroke-dasharray="1,5" points="8,-70 8,-268 654,-268 654,-70 8,-70"/>
</g>
<g id="clust8" class="cluster">
<title>cluster_PipesModule_exports</title>
<polygon fill="none" stroke="black" points="76,-208 76,-260 586,-260 586,-208 76,-208"/>
</g>
<g id="clust7" class="cluster">
<title>cluster_PipesModule_imports</title>
<polygon fill="none" stroke="black" points="518,-78 518,-130 646,-130 646,-78 518,-78"/>
</g>
<g id="clust2" class="cluster">
<title>cluster_PipesModule_declarations</title>
<polygon fill="none" stroke="black" points="16,-78 16,-130 510,-130 510,-78 16,-78"/>
</g>
<!-- PipeFilterPipe -->
<g id="node1" class="node">
<title>PipeFilterPipe</title>
<polygon fill="#ffffb3" stroke="black" points="502.11,-122 405.89,-122 405.89,-86 502.11,-86 502.11,-122"/>
<text text-anchor="middle" x="454" y="-99.8" font-family="Times,serif" font-size="14.00">PipeFilterPipe</text>
</g>
<!-- PipesModule -->
<g id="node5" class="node">
<title>PipesModule</title>
<polygon fill="#8dd3c7" stroke="black" points="392.88,-187 389.88,-191 368.88,-191 365.88,-187 303.12,-187 303.12,-151 392.88,-151 392.88,-187"/>
<text text-anchor="middle" x="348" y="-164.8" font-family="Times,serif" font-size="14.00">PipesModule</text>
</g>
<!-- PipeFilterPipe&#45;&gt;PipesModule -->
<g id="edge1" class="edge">
<title>PipeFilterPipe&#45;&gt;PipesModule</title>
<path fill="none" stroke="black" d="M432.99,-122.03C432.99,-138.4 432.99,-160 432.99,-160 432.99,-160 402.98,-160 402.98,-160"/>
<polygon fill="black" stroke="black" points="402.98,-156.5 392.98,-160 402.98,-163.5 402.98,-156.5"/>
</g>
<!-- SortByPipe -->
<g id="node2" class="node">
<title>SortByPipe</title>
<polygon fill="#ffffb3" stroke="black" points="388.06,-122 307.94,-122 307.94,-86 388.06,-86 388.06,-122"/>
<text text-anchor="middle" x="348" y="-99.8" font-family="Times,serif" font-size="14.00">SortByPipe</text>
</g>
<!-- SortByPipe&#45;&gt;PipesModule -->
<g id="edge2" class="edge">
<title>SortByPipe&#45;&gt;PipesModule</title>
<path fill="none" stroke="black" d="M348,-122.11C348,-122.11 348,-140.99 348,-140.99"/>
<polygon fill="black" stroke="black" points="344.5,-140.99 348,-150.99 351.5,-140.99 344.5,-140.99"/>
</g>
<!-- PipeRelativeTimePipe -->
<g id="node3" class="node">
<title>PipeRelativeTimePipe</title>
<polygon fill="#ffffb3" stroke="black" points="289.98,-122 148.02,-122 148.02,-86 289.98,-86 289.98,-122"/>
<text text-anchor="middle" x="219" y="-99.8" font-family="Times,serif" font-size="14.00">PipeRelativeTimePipe</text>
</g>
<!-- PipeRelativeTimePipe&#45;&gt;PipesModule -->
<g id="edge3" class="edge">
<title>PipeRelativeTimePipe&#45;&gt;PipesModule</title>
<path fill="none" stroke="black" d="M251.12,-122.03C251.12,-138.4 251.12,-160 251.12,-160 251.12,-160 292.97,-160 292.97,-160"/>
<polygon fill="black" stroke="black" points="292.97,-163.5 302.97,-160 292.97,-156.5 292.97,-163.5"/>
</g>
<!-- SplitInitialsPipe -->
<g id="node4" class="node">
<title>SplitInitialsPipe</title>
<polygon fill="#ffffb3" stroke="black" points="130.22,-122 23.78,-122 23.78,-86 130.22,-86 130.22,-122"/>
<text text-anchor="middle" x="77" y="-99.8" font-family="Times,serif" font-size="14.00">SplitInitialsPipe</text>
</g>
<!-- SplitInitialsPipe&#45;&gt;PipesModule -->
<g id="edge4" class="edge">
<title>SplitInitialsPipe&#45;&gt;PipesModule</title>
<path fill="none" stroke="black" d="M107.12,-122.11C107.12,-141.34 107.12,-169 107.12,-169 107.12,-169 292.98,-169 292.98,-169"/>
<polygon fill="black" stroke="black" points="292.98,-172.5 302.98,-169 292.98,-165.5 292.98,-172.5"/>
</g>
<!-- PipeFilterPipe  -->
<g id="node7" class="node">
<title>PipeFilterPipe </title>
<polygon fill="#fb8072" stroke="black" points="577.61,-252 478.39,-252 478.39,-216 577.61,-216 577.61,-252"/>
<text text-anchor="middle" x="528" y="-229.8" font-family="Times,serif" font-size="14.00">PipeFilterPipe </text>
</g>
<!-- PipesModule&#45;&gt;PipeFilterPipe  -->
<g id="edge6" class="edge">
<title>PipesModule&#45;&gt;PipeFilterPipe </title>
<path fill="none" stroke="black" stroke-dasharray="5,2" d="M392.97,-178C434.61,-178 490.12,-178 490.12,-178 490.12,-178 490.12,-205.97 490.12,-205.97"/>
<polygon fill="black" stroke="black" points="486.63,-205.97 490.12,-215.97 493.63,-205.97 486.63,-205.97"/>
</g>
<!-- SortByPipe  -->
<g id="node8" class="node">
<title>SortByPipe </title>
<polygon fill="#fb8072" stroke="black" points="460.06,-252 375.94,-252 375.94,-216 460.06,-216 460.06,-252"/>
<text text-anchor="middle" x="418" y="-229.8" font-family="Times,serif" font-size="14.00">SortByPipe </text>
</g>
<!-- PipesModule&#45;&gt;SortByPipe  -->
<g id="edge7" class="edge">
<title>PipesModule&#45;&gt;SortByPipe </title>
<path fill="none" stroke="black" stroke-dasharray="5,2" d="M384.46,-187.11C384.46,-187.11 384.46,-205.99 384.46,-205.99"/>
<polygon fill="black" stroke="black" points="380.96,-205.99 384.46,-215.99 387.96,-205.99 380.96,-205.99"/>
</g>
<!-- PipeRelativeTimePipe  -->
<g id="node9" class="node">
<title>PipeRelativeTimePipe </title>
<polygon fill="#fb8072" stroke="black" points="357.98,-252 212.02,-252 212.02,-216 357.98,-216 357.98,-252"/>
<text text-anchor="middle" x="285" y="-229.8" font-family="Times,serif" font-size="14.00">PipeRelativeTimePipe </text>
</g>
<!-- PipesModule&#45;&gt;PipeRelativeTimePipe  -->
<g id="edge8" class="edge">
<title>PipesModule&#45;&gt;PipeRelativeTimePipe </title>
<path fill="none" stroke="black" stroke-dasharray="5,2" d="M330.4,-187.11C330.4,-187.11 330.4,-205.99 330.4,-205.99"/>
<polygon fill="black" stroke="black" points="326.9,-205.99 330.4,-215.99 333.9,-205.99 326.9,-205.99"/>
</g>
<!-- SplitInitialsPipe  -->
<g id="node10" class="node">
<title>SplitInitialsPipe </title>
<polygon fill="#fb8072" stroke="black" points="193.72,-252 84.28,-252 84.28,-216 193.72,-216 193.72,-252"/>
<text text-anchor="middle" x="139" y="-229.8" font-family="Times,serif" font-size="14.00">SplitInitialsPipe </text>
</g>
<!-- PipesModule&#45;&gt;SplitInitialsPipe  -->
<g id="edge9" class="edge">
<title>PipesModule&#45;&gt;SplitInitialsPipe </title>
<path fill="none" stroke="black" stroke-dasharray="5,2" d="M302.86,-178C250.4,-178 170.94,-178 170.94,-178 170.94,-178 170.94,-205.97 170.94,-205.97"/>
<polygon fill="black" stroke="black" points="167.44,-205.97 170.94,-215.97 174.44,-205.97 167.44,-205.97"/>
</g>
<!-- CommonModule -->
<g id="node6" class="node">
<title>CommonModule</title>
<polygon fill="#8dd3c7" stroke="black" points="637.67,-122 634.67,-126 613.67,-126 610.67,-122 526.33,-122 526.33,-86 637.67,-86 637.67,-122"/>
<text text-anchor="middle" x="582" y="-99.8" font-family="Times,serif" font-size="14.00">CommonModule</text>
</g>
<!-- CommonModule&#45;&gt;PipesModule -->
<g id="edge5" class="edge">
<title>CommonModule&#45;&gt;PipesModule</title>
<path fill="none" stroke="black" d="M551.98,-122.11C551.98,-141.34 551.98,-169 551.98,-169 551.98,-169 403.02,-169 403.02,-169"/>
<polygon fill="black" stroke="black" points="403.02,-165.5 393.02,-169 403.02,-172.5 403.02,-165.5"/>
</g>
</g>
</svg>
