<?xml version="1.0" encoding="UTF-8"?>
<svg width="222px" height="210px" viewBox="0 0 222 210" version="1.1" xmlns="http://www.w3.org/2000/svg" xmlns:xlink="http://www.w3.org/1999/xlink">
    <title>A3A075F4-85C9-4B95-86EA-8B76C67D6EC2</title>
    <g id="Discussion-Forums-_-portal" stroke="none" stroke-width="1" fill="none" fill-rule="evenodd">
        <g id="Discussion_forum_notags" transform="translate(-776.000000, -560.000000)">
            <g id="tags/empty" transform="translate(776.000000, 560.000000)">
                <g id="Group-20" transform="translate(138.136391, 76.774583)">
                    <rect id="Rectangle-Copy-7" fill="#BEA95D" x="2" y="2" width="80.2495" height="33" rx="16.5"></rect>
                    <rect id="Rectangle-Copy-3" fill="#FFD954" x="0" y="0" width="80.2495" height="33" rx="16.5"></rect>
                </g>
                <g id="Group-3" opacity="0.222353981" fill="#E9E8DA">
                    <path d="M45.562546,136.149697 C45.562546,136.149697 62.0300784,92.5102314 38.1738088,91.7704687 C14.3172674,91.0309782 -11.9086718,85.1136934 5.82185074,52.9389161 C23.5518296,20.7641389 50.1327979,-17.3279232 88.7404447,8.55968783 C127.348092,34.447571 127.088208,39.6250932 153.259778,40.3645837 C179.431077,41.1043464 215.999889,76.2379021 185.341251,92.5102314 C154.682341,108.782561 165.141835,114.699573 153.447895,132.081547 C141.754226,149.46352 5.1474042,253.014781 45.562546,136.149697" id="Fill-1"></path>
                </g>
                <path d="M188.157062,203.147355 C188.157062,206.746922 176.31004,209.66609 161.696057,209.66609 C147.081067,209.66609 135.234044,206.746922 135.234044,203.147355 C135.234044,199.547787 147.081067,196.628619 161.696057,196.628619 C176.31004,196.628619 188.157062,199.547787 188.157062,203.147355" id="Fill-1" fill="#E9E8DA" transform="translate(161.695553, 203.147355) scale(-1, 1) translate(-161.695553, -203.147355) "></path>
                <path d="M161.786172,199.019897 L161.705532,200.471417 L154.790653,198.990665 C154.982173,198.304218 155.143453,197.830458 155.143453,197.830458 L161.786172,199.019897 Z" id="Fill-13" fill="#F7AA66" transform="translate(158.288413, 199.150937) scale(-1, 1) translate(-158.288413, -199.150937) "></path>
                <path d="M166.776988,103.209709 C166.707436,106.142989 162.865948,106.969549 162.865948,106.969549 L162.865948,108.353532 L157.584029,108.189228 L157.584029,103.271197 C157.795709,103.784269 158.058797,104.148157 158.420669,104.187469 C159.852029,104.338669 164.670268,104.792269 165.123868,100.044589 C165.578476,95.3069897 166.111708,96.6476296 166.978588,95.2263498 C167.331388,97.6354695 166.827388,101.284429 166.776988,103.209709" id="Fill-14" fill="#F7AA66" transform="translate(162.343549, 101.789941) scale(-1, 1) translate(-162.343549, -101.789941) "></path>
                <path d="M162.347547,205.652638 C161.793147,206.762445 147.812189,204.958126 145.806269,204.403726 C144.364829,203.999518 145.030109,200.763838 145.513949,198.990766 L152.428828,200.471518 L152.388508,201.227518 C152.388508,201.227518 162.901947,204.543838 162.347547,205.652638" id="Fill-15" fill="#2D2B37" transform="translate(153.650161, 202.498702) scale(-1, 1) translate(-153.650161, -202.498702) "></path>
                <path d="M166.898188,200.169622 L158.551948,198.587062 C159.136588,192.397943 163.198828,176.915065 163.198828,175.171225 C163.198828,173.436457 158.743468,163.760666 158.743468,163.760666 C158.662828,163.739498 158.592268,163.710266 158.521708,163.690106 C153.199469,161.986586 150.175469,159.335546 148.542509,156.482907 C146.18379,152.370267 146.70795,147.844348 147.36315,145.183228 C156.818189,147.57118 163.813708,144.598588 163.813708,144.598588 L163.753228,145.485628 C167.210667,149.467227 172.976427,165.282746 173.389707,171.572665 C173.813067,177.851496 166.898188,200.169622 166.898188,200.169622" id="Fill-16" fill="#024F9D" transform="translate(160.108580, 172.384105) scale(-1, 1) translate(-160.108580, -172.384105) "></path>
                <path d="M140.298464,104.935304 C140.188592,106.082408 139.400336,111.774583 139.400336,111.774583 L135.797744,110.108359 L137.500256,104.668184 C137.500256,104.668184 136.67672,101.206712 137.500256,99.8076085 C138.323792,98.4074966 137.9216,101.576648 138.332864,101.412344 C138.332864,101.412344 138.293552,100.664408 138.394352,99.3136885 L138.394352,97.1394328 C138.394352,97.1394328 141.193568,95.6133209 140.298464,104.935304" id="Fill-17" fill="#F7AA66" transform="translate(138.136391, 104.410583) scale(-1, 1) translate(-138.136391, -104.410583) "></path>
                <path d="M179.473867,111.112227 L178.847899,114.257186 C178.213867,117.402146 176.852059,119.912066 174.443947,120.023954 C172.03382,120.123746 162.811629,119.701394 162.811629,119.701394 L159.464061,142.542671 C153.739629,144.054671 147.05659,143.419631 143.588063,142.915631 C143.598143,142.885391 143.609231,142.864223 143.609231,142.864223 L143.609231,136.483584 C143.609231,136.483584 141.289823,137.642784 139.354463,137.835312 C137.419103,138.025824 136.643951,141.322991 136.259903,126.999313 C135.866783,112.685714 142.450031,112.493186 145.735102,110.750355 C149.021182,109.005507 148.19563,108.190035 148.19563,108.190035 L153.476541,107.705187 L154.010781,107.654787 L154.122669,109.126467 C154.122669,109.126467 160.090029,109.852227 162.709821,109.852227 C165.331628,109.852227 171.934028,113.108066 172.65878,113.420546 C173.395627,113.734034 175.178779,109.126467 175.178779,109.126467 L179.473867,111.112227 Z" id="Fill-18" fill="#DF5F4D" transform="translate(157.858459, 125.571529) scale(-1, 1) translate(-157.858459, -125.571529) "></path>
                <polygon id="Fill-19" fill="#302293" transform="translate(166.912154, 198.082760) scale(-1, 1) translate(-166.912154, -198.082760) " points="168.630794 198.33476 165.173354 197.83076 168.650954 197.83076"></polygon>
                <path d="M171.348555,203.022363 C171.348555,203.022363 161.802796,203.303595 159.585196,203.022363 C158.073197,202.839915 158.778797,200.472123 159.373517,199.000443 L165.048556,199.352235 L164.979004,201.087003 C173.556075,202.054683 171.348555,203.022363 171.348555,203.022363" id="Fill-20" fill="#2D2B37" transform="translate(165.141195, 201.073899) scale(-1, 1) translate(-165.141195, -201.073899) "></path>
                <path d="M170.908874,198.33476 L170.868554,199.35284 L165.193514,199.00004 C165.475754,198.32468 165.727754,197.83076 165.727754,197.83076 L167.451434,197.83076 L170.908874,198.33476 Z" id="Fill-21" fill="#F7AA66" transform="translate(168.051194, 198.591800) scale(-1, 1) translate(-168.051194, -198.591800) "></path>
                <path d="M169.322529,95.2165722 L169.322529,95.2266522 C168.455649,96.647932 167.921409,95.3072921 167.467809,100.044892 C167.014209,104.792571 162.19597,104.338971 160.76461,104.186763 C160.40173,104.147451 160.13965,103.784571 159.92797,103.270491 C159.33325,101.747403 159.21229,98.8554518 158.42605,98.6830838 C157.36765,98.4623318 157.44829,95.2165722 157.44829,95.2165722 C159.85741,90.6301726 164.907489,90.9224926 166.863009,90.7007326 C168.818529,90.4789726 170.179329,93.7852123 169.322529,95.2165722" id="Fill-22" fill="#2D3E50" transform="translate(163.515419, 97.481385) scale(-1, 1) translate(-163.515419, -97.481385) "></path>
                <path d="M172.077952,166.371083 C171.452992,171.804203 170.475232,180.392362 170.182912,182.156362 C169.759552,184.767081 169.759552,199.0202 169.759552,199.0202 L162.008033,198.396248 L162.370913,160.494444 C164.588513,163.216044 167.85544,166.018283 172.077952,166.371083" id="Fill-23" fill="#063B72" transform="translate(167.042993, 179.757322) scale(-1, 1) translate(-167.042993, -179.757322) "></path>
                <path d="M172.854213,142.542369 L172.704021,144.598689 C172.704021,144.598689 165.707493,147.57128 156.252454,145.183329 C156.554854,143.952561 156.887494,143.115921 156.978214,142.915329 C160.445734,143.419329 167.128773,144.054369 172.854213,142.542369" id="Fill-24" fill="#2D2B37" transform="translate(164.553334, 144.327046) scale(-1, 1) translate(-164.553334, -144.327046) "></path>
                <path d="M159.514353,101.042106 C159.514353,101.042106 159.144417,102.968394 160.150401,102.507738 C161.156385,102.047082 161.397297,102.19929 161.397297,102.19929 C161.397297,102.19929 162.351873,105.567017 161.397297,106.111337 C160.443729,106.656665 157.43485,106.970153 157.43485,106.970153 L159.514353,101.042106 Z" id="Fill-25" fill="#2D3E50" transform="translate(159.628201, 104.006130) scale(-1, 1) translate(-159.628201, -104.006130) "></path>
                <polygon id="Fill-26" fill="#A44133" transform="translate(171.743397, 128.331284) scale(-1, 1) translate(-171.743397, -128.331284) " points="171.379005 136.483483 172.853709 120.179085 170.633085 120.179085"></polygon>
                <path d="M171.714568,163.689703 C171.62284,164.425543 171.523048,165.343831 171.40108,166.370982 C167.178569,166.01919 163.912649,163.215943 161.695049,160.494343 L161.735369,156.483511 C163.368329,159.336151 166.392329,161.987191 171.714568,163.689703" id="Fill-27" fill="#08284A" transform="translate(166.704809, 161.427247) scale(-1, 1) translate(-166.704809, -161.427247) "></path>
                <polygon id="Fill-28" fill="#251F77" transform="translate(165.188172, 198.843598) scale(-1, 1) translate(-165.188172, -198.843598) " points="165.234036 198.344638 165.142308 199.352638 165.182628 198.334558"></polygon>
                <path d="M71.4845438,68.7899411 L118.734044,68.7899411 C127.846742,68.7899411 135.234044,76.1772427 135.234044,85.2899411 C135.234044,94.4026394 127.846742,101.789941 118.734044,101.789941 L71.4845438,101.789941 C62.3718454,101.789941 54.9845438,94.4026394 54.9845438,85.2899411 C54.9845438,76.1772427 62.3718454,68.7899411 71.4845438,68.7899411 Z" id="Rectangle" stroke="#FFD954" stroke-width="0.899999976" fill="#FFF7EE" stroke-dasharray="3.599999904632568"></path>
                <path d="M71.4845438,112.579882 L118.734044,112.579882 C127.846742,112.579882 135.234044,119.967184 135.234044,129.079882 C135.234044,138.192581 127.846742,145.579882 118.734044,145.579882 L71.4845438,145.579882 C62.3718454,145.579882 54.9845438,138.192581 54.9845438,129.079882 C54.9845438,119.967184 62.3718454,112.579882 71.4845438,112.579882 Z" id="Rectangle-Copy-9" stroke="#FFD954" stroke-width="0.899999976" fill="#FFF7EE" stroke-dasharray="3.599999904632568"></path>
                <path d="M71.4845438,25 L118.734044,25 C127.846742,25 135.234044,32.3873016 135.234044,41.5 C135.234044,50.6126984 127.846742,58 118.734044,58 L71.4845438,58 C62.3718454,58 54.9845438,50.6126984 54.9845438,41.5 C54.9845438,32.3873016 62.3718454,25 71.4845438,25 Z" id="Rectangle-Copy" stroke="#FFD954" stroke-width="0.899999976" fill="#FFF7EE" stroke-dasharray="3.599999904632568"></path>
            </g>
        </g>
    </g>
</svg>