<?xml version="1.0" encoding="UTF-8" standalone="no"?>
<!DOCTYPE svg PUBLIC "-//W3C//DTD SVG 1.1//EN"
 "http://www.w3.org/Graphics/SVG/1.1/DTD/svg11.dtd">
<!-- Generated by graphviz version 2.47.0 (20210316.0004)
 -->
<!-- Title: dependencies Pages: 1 -->
<svg width="1587pt" height="284pt"
 viewBox="0.00 0.00 1587.00 284.00" xmlns="http://www.w3.org/2000/svg" xmlns:xlink="http://www.w3.org/1999/xlink">
<g id="graph0" class="graph" transform="scale(1 1) rotate(0) translate(4 280)">
<title>dependencies</title>
<polygon fill="white" stroke="transparent" points="-4,4 -4,-280 1583,-280 1583,4 -4,4"/>
<text text-anchor="start" x="768.51" y="-42.4" font-family="sans-serif" font-weight="bold" font-size="14.00">Legend</text>
<polygon fill="#ffffb3" stroke="transparent" points="555.5,-10 555.5,-30 575.5,-30 575.5,-10 555.5,-10"/>
<text text-anchor="start" x="579.13" y="-15.4" font-family="sans-serif" font-size="14.00"> &#160;Declarations</text>
<polygon fill="#8dd3c7" stroke="transparent" points="668.5,-10 668.5,-30 688.5,-30 688.5,-10 668.5,-10"/>
<text text-anchor="start" x="692.23" y="-15.4" font-family="sans-serif" font-size="14.00"> &#160;Module</text>
<polygon fill="#80b1d3" stroke="transparent" points="754.5,-10 754.5,-30 774.5,-30 774.5,-10 754.5,-10"/>
<text text-anchor="start" x="778.28" y="-15.4" font-family="sans-serif" font-size="14.00"> &#160;Bootstrap</text>
<polygon fill="#fdb462" stroke="transparent" points="851.5,-10 851.5,-30 871.5,-30 871.5,-10 851.5,-10"/>
<text text-anchor="start" x="875.17" y="-15.4" font-family="sans-serif" font-size="14.00"> &#160;Providers</text>
<polygon fill="#fb8072" stroke="transparent" points="947.5,-10 947.5,-30 967.5,-30 967.5,-10 947.5,-10"/>
<text text-anchor="start" x="971.23" y="-15.4" font-family="sans-serif" font-size="14.00"> &#160;Exports</text>
<g id="clust1" class="cluster">
<title>cluster_DiscussionUiModule</title>
<polygon fill="none" stroke="black" stroke-dasharray="1,5" points="8,-70 8,-268 1571,-268 1571,-70 8,-70"/>
</g>
<g id="clust5" class="cluster">
<title>cluster_DiscussionUiModule_exports</title>
<polygon fill="none" stroke="black" points="903,-208 903,-260 1053,-260 1053,-208 903,-208"/>
</g>
<g id="clust4" class="cluster">
<title>cluster_DiscussionUiModule_imports</title>
<polygon fill="none" stroke="black" points="1103,-78 1103,-130 1563,-130 1563,-78 1103,-78"/>
</g>
<g id="clust7" class="cluster">
<title>cluster_DiscussionUiModule_providers</title>
<polygon fill="none" stroke="black" points="172,-78 172,-130 1095,-130 1095,-78 172,-78"/>
</g>
<g id="clust2" class="cluster">
<title>cluster_DiscussionUiModule_declarations</title>
<polygon fill="none" stroke="black" points="16,-78 16,-130 164,-130 164,-78 16,-78"/>
</g>
<!-- LibEntryComponent -->
<g id="node1" class="node">
<title>LibEntryComponent</title>
<polygon fill="#ffffb3" stroke="black" points="155.88,-122 24.12,-122 24.12,-86 155.88,-86 155.88,-122"/>
<text text-anchor="middle" x="90" y="-99.8" font-family="Times,serif" font-size="14.00">LibEntryComponent</text>
</g>
<!-- DiscussionUiModule -->
<g id="node2" class="node">
<title>DiscussionUiModule</title>
<polygon fill="#8dd3c7" stroke="black" points="1045.48,-187 1042.48,-191 1021.48,-191 1018.48,-187 910.52,-187 910.52,-151 1045.48,-151 1045.48,-187"/>
<text text-anchor="middle" x="978" y="-164.8" font-family="Times,serif" font-size="14.00">DiscussionUiModule</text>
</g>
<!-- LibEntryComponent&#45;&gt;DiscussionUiModule -->
<g id="edge1" class="edge">
<title>LibEntryComponent&#45;&gt;DiscussionUiModule</title>
<path fill="none" stroke="black" d="M90,-122.29C90,-144.21 90,-178 90,-178 90,-178 900.16,-178 900.16,-178"/>
<polygon fill="black" stroke="black" points="900.16,-181.5 910.16,-178 900.16,-174.5 900.16,-181.5"/>
</g>
<!-- ComponentsModule  -->
<g id="node6" class="node">
<title>ComponentsModule </title>
<polygon fill="#fb8072" stroke="black" points="1044.83,-252 911.17,-252 911.17,-216 1044.83,-216 1044.83,-252"/>
<text text-anchor="middle" x="978" y="-229.8" font-family="Times,serif" font-size="14.00">ComponentsModule </text>
</g>
<!-- DiscussionUiModule&#45;&gt;ComponentsModule  -->
<g id="edge5" class="edge">
<title>DiscussionUiModule&#45;&gt;ComponentsModule </title>
<path fill="none" stroke="black" stroke-dasharray="5,2" d="M978,-187.11C978,-187.11 978,-205.99 978,-205.99"/>
<polygon fill="black" stroke="black" points="974.5,-205.99 978,-215.99 981.5,-205.99 974.5,-205.99"/>
</g>
<!-- ComponentsModule -->
<g id="node3" class="node">
<title>ComponentsModule</title>
<polygon fill="#8dd3c7" stroke="black" points="1555.33,-122 1552.33,-126 1531.33,-126 1528.33,-122 1424.67,-122 1424.67,-86 1555.33,-86 1555.33,-122"/>
<text text-anchor="middle" x="1490" y="-99.8" font-family="Times,serif" font-size="14.00">ComponentsModule</text>
</g>
<!-- ComponentsModule&#45;&gt;DiscussionUiModule -->
<g id="edge2" class="edge">
<title>ComponentsModule&#45;&gt;DiscussionUiModule</title>
<path fill="none" stroke="black" d="M1490,-122.29C1490,-144.21 1490,-178 1490,-178 1490,-178 1055.73,-178 1055.73,-178"/>
<polygon fill="black" stroke="black" points="1055.73,-174.5 1045.73,-178 1055.73,-181.5 1055.73,-174.5"/>
</g>
<!-- DiscussionRoutingModule -->
<g id="node4" class="node">
<title>DiscussionRoutingModule</title>
<polygon fill="#8dd3c7" stroke="black" points="1407.1,-122 1404.1,-126 1383.1,-126 1380.1,-122 1240.9,-122 1240.9,-86 1407.1,-86 1407.1,-122"/>
<text text-anchor="middle" x="1324" y="-99.8" font-family="Times,serif" font-size="14.00">DiscussionRoutingModule</text>
</g>
<!-- DiscussionRoutingModule&#45;&gt;DiscussionUiModule -->
<g id="edge3" class="edge">
<title>DiscussionRoutingModule&#45;&gt;DiscussionUiModule</title>
<path fill="none" stroke="black" d="M1324,-122.11C1324,-141.34 1324,-169 1324,-169 1324,-169 1055.53,-169 1055.53,-169"/>
<polygon fill="black" stroke="black" points="1055.53,-165.5 1045.53,-169 1055.53,-172.5 1055.53,-165.5"/>
</g>
<!-- ElementsModule -->
<g id="node5" class="node">
<title>ElementsModule</title>
<polygon fill="#8dd3c7" stroke="black" points="1222.65,-122 1219.65,-126 1198.65,-126 1195.65,-122 1111.35,-122 1111.35,-86 1222.65,-86 1222.65,-122"/>
<text text-anchor="middle" x="1167" y="-99.8" font-family="Times,serif" font-size="14.00">ElementsModule</text>
</g>
<!-- ElementsModule&#45;&gt;DiscussionUiModule -->
<g id="edge4" class="edge">
<title>ElementsModule&#45;&gt;DiscussionUiModule</title>
<path fill="none" stroke="black" d="M1167,-122.03C1167,-138.4 1167,-160 1167,-160 1167,-160 1055.7,-160 1055.7,-160"/>
<polygon fill="black" stroke="black" points="1055.7,-156.5 1045.7,-160 1055.7,-163.5 1055.7,-156.5"/>
</g>
<!-- DiscussionEventsService -->
<g id="node7" class="node">
<title>DiscussionEventsService</title>
<ellipse fill="#fdb462" stroke="black" cx="978" cy="-104" rx="108.8" ry="18"/>
<text text-anchor="middle" x="978" y="-99.8" font-family="Times,serif" font-size="14.00">DiscussionEventsService</text>
</g>
<!-- DiscussionEventsService&#45;&gt;DiscussionUiModule -->
<g id="edge6" class="edge">
<title>DiscussionEventsService&#45;&gt;DiscussionUiModule</title>
<path fill="none" stroke="black" d="M978,-122.11C978,-122.11 978,-140.99 978,-140.99"/>
<polygon fill="black" stroke="black" points="974.5,-140.99 978,-150.99 981.5,-140.99 974.5,-140.99"/>
</g>
<!-- TelemetryUtilsService -->
<g id="node8" class="node">
<title>TelemetryUtilsService</title>
<ellipse fill="#fdb462" stroke="black" cx="753" cy="-104" rx="98.4" ry="18"/>
<text text-anchor="middle" x="753" y="-99.8" font-family="Times,serif" font-size="14.00">TelemetryUtilsService</text>
</g>
<!-- TelemetryUtilsService&#45;&gt;DiscussionUiModule -->
<g id="edge7" class="edge">
<title>TelemetryUtilsService&#45;&gt;DiscussionUiModule</title>
<path fill="none" stroke="black" d="M753,-122.03C753,-138.4 753,-160 753,-160 753,-160 900.49,-160 900.49,-160"/>
<polygon fill="black" stroke="black" points="900.49,-163.5 910.49,-160 900.49,-156.5 900.49,-163.5"/>
</g>
<!-- { provide: &#39;CsModule&#39;, useFactory: provideCsModule } -->
<g id="node9" class="node">
<title>{ provide: &#39;CsModule&#39;, useFactory: provideCsModule }</title>
<ellipse fill="#fdb462" stroke="black" cx="408" cy="-104" rx="228.35" ry="18"/>
<text text-anchor="middle" x="408" y="-99.8" font-family="Times,serif" font-size="14.00">{ provide: &#39;CsModule&#39;, useFactory: provideCsModule }</text>
</g>
<!-- { provide: &#39;CsModule&#39;, useFactory: provideCsModule }&#45;&gt;DiscussionUiModule -->
<g id="edge8" class="edge">
<title>{ provide: &#39;CsModule&#39;, useFactory: provideCsModule }&#45;&gt;DiscussionUiModule</title>
<path fill="none" stroke="black" d="M408,-122.11C408,-141.34 408,-169 408,-169 408,-169 900.38,-169 900.38,-169"/>
<polygon fill="black" stroke="black" points="900.38,-172.5 910.38,-169 900.38,-165.5 900.38,-172.5"/>
</g>
</g>
</svg>
