<?xml version="1.0" encoding="UTF-8" standalone="no"?>
<!DOCTYPE svg PUBLIC "-//W3C//DTD SVG 1.1//EN"
 "http://www.w3.org/Graphics/SVG/1.1/DTD/svg11.dtd">
<!-- Generated by graphviz version 2.47.0 (20210316.0004)
 -->
<!-- Title: dependencies Pages: 1 -->
<svg width="2746pt" height="284pt"
 viewBox="0.00 0.00 2746.00 284.00" xmlns="http://www.w3.org/2000/svg" xmlns:xlink="http://www.w3.org/1999/xlink">
<g id="graph0" class="graph" transform="scale(1 1) rotate(0) translate(4 280)">
<title>dependencies</title>
<polygon fill="white" stroke="transparent" points="-4,4 -4,-280 2742,-280 2742,4 -4,4"/>
<text text-anchor="start" x="1348.01" y="-42.4" font-family="sans-serif" font-weight="bold" font-size="14.00">Legend</text>
<polygon fill="#ffffb3" stroke="transparent" points="1135,-10 1135,-30 1155,-30 1155,-10 1135,-10"/>
<text text-anchor="start" x="1158.63" y="-15.4" font-family="sans-serif" font-size="14.00"> &#160;Declarations</text>
<polygon fill="#8dd3c7" stroke="transparent" points="1248,-10 1248,-30 1268,-30 1268,-10 1248,-10"/>
<text text-anchor="start" x="1271.73" y="-15.4" font-family="sans-serif" font-size="14.00"> &#160;Module</text>
<polygon fill="#80b1d3" stroke="transparent" points="1334,-10 1334,-30 1354,-30 1354,-10 1334,-10"/>
<text text-anchor="start" x="1357.78" y="-15.4" font-family="sans-serif" font-size="14.00"> &#160;Bootstrap</text>
<polygon fill="#fdb462" stroke="transparent" points="1431,-10 1431,-30 1451,-30 1451,-10 1431,-10"/>
<text text-anchor="start" x="1454.67" y="-15.4" font-family="sans-serif" font-size="14.00"> &#160;Providers</text>
<polygon fill="#fb8072" stroke="transparent" points="1527,-10 1527,-30 1547,-30 1547,-10 1527,-10"/>
<text text-anchor="start" x="1550.73" y="-15.4" font-family="sans-serif" font-size="14.00"> &#160;Exports</text>
<g id="clust1" class="cluster">
<title>cluster_ComponentsModule</title>
<polygon fill="none" stroke="black" stroke-dasharray="1,5" points="8,-70 8,-268 2730,-268 2730,-70 8,-70"/>
</g>
<g id="clust2" class="cluster">
<title>cluster_ComponentsModule_declarations</title>
<polygon fill="none" stroke="black" points="1270,-78 1270,-130 2722,-130 2722,-78 1270,-78"/>
</g>
<g id="clust12" class="cluster">
<title>cluster_ComponentsModule_exports</title>
<polygon fill="none" stroke="black" points="438,-208 438,-260 1918,-260 1918,-208 438,-208"/>
</g>
<g id="clust11" class="cluster">
<title>cluster_ComponentsModule_imports</title>
<polygon fill="none" stroke="black" points="356,-78 356,-130 1262,-130 1262,-78 356,-78"/>
</g>
<g id="clust14" class="cluster">
<title>cluster_ComponentsModule_providers</title>
<polygon fill="none" stroke="black" points="16,-78 16,-130 348,-130 348,-78 16,-78"/>
</g>
<!-- SidePannelComponent -->
<g id="node1" class="node">
<title>SidePannelComponent</title>
<polygon fill="#ffffb3" stroke="black" points="2714.32,-122 2569.68,-122 2569.68,-86 2714.32,-86 2714.32,-122"/>
<text text-anchor="middle" x="2642" y="-99.8" font-family="Times,serif" font-size="14.00">SidePannelComponent</text>
</g>
<!-- ComponentsModule -->
<g id="node9" class="node">
<title>ComponentsModule</title>
<polygon fill="#8dd3c7" stroke="black" points="1263.33,-187 1260.33,-191 1239.33,-191 1236.33,-187 1132.67,-187 1132.67,-151 1263.33,-151 1263.33,-187"/>
<text text-anchor="middle" x="1198" y="-164.8" font-family="Times,serif" font-size="14.00">ComponentsModule</text>
</g>
<!-- SidePannelComponent&#45;&gt;ComponentsModule -->
<g id="edge1" class="edge">
<title>SidePannelComponent&#45;&gt;ComponentsModule</title>
<path fill="none" stroke="black" d="M2642,-122.03C2642,-142.77 2642,-174 2642,-174 2642,-174 1273.32,-174 1273.32,-174"/>
<polygon fill="black" stroke="black" points="1273.32,-170.5 1263.32,-174 1273.32,-177.5 1273.32,-170.5"/>
</g>
<!-- DiscussHomeComponent -->
<g id="node2" class="node">
<title>DiscussHomeComponent</title>
<polygon fill="#ffffb3" stroke="black" points="2551.59,-122 2392.41,-122 2392.41,-86 2551.59,-86 2551.59,-122"/>
<text text-anchor="middle" x="2472" y="-99.8" font-family="Times,serif" font-size="14.00">DiscussHomeComponent</text>
</g>
<!-- DiscussHomeComponent&#45;&gt;ComponentsModule -->
<g id="edge2" class="edge">
<title>DiscussHomeComponent&#45;&gt;ComponentsModule</title>
<path fill="none" stroke="black" d="M2472,-122.31C2472,-142.15 2472,-171 2472,-171 2472,-171 1273.37,-171 1273.37,-171"/>
<polygon fill="black" stroke="black" points="1273.37,-167.5 1263.37,-171 1273.37,-174.5 1273.37,-167.5"/>
</g>
<!-- DiscussCategoryComponent -->
<g id="node3" class="node">
<title>DiscussCategoryComponent</title>
<polygon fill="#ffffb3" stroke="black" points="2374.2,-122 2197.8,-122 2197.8,-86 2374.2,-86 2374.2,-122"/>
<text text-anchor="middle" x="2286" y="-99.8" font-family="Times,serif" font-size="14.00">DiscussCategoryComponent</text>
</g>
<!-- DiscussCategoryComponent&#45;&gt;ComponentsModule -->
<g id="edge3" class="edge">
<title>DiscussCategoryComponent&#45;&gt;ComponentsModule</title>
<path fill="none" stroke="black" d="M2286,-122.17C2286,-141.09 2286,-168 2286,-168 2286,-168 1273.2,-168 1273.2,-168"/>
<polygon fill="black" stroke="black" points="1273.2,-164.5 1263.2,-168 1273.2,-171.5 1273.2,-164.5"/>
</g>
<!-- DiscussTagsComponent -->
<g id="node4" class="node">
<title>DiscussTagsComponent</title>
<polygon fill="#ffffb3" stroke="black" points="2180.09,-122 2027.91,-122 2027.91,-86 2180.09,-86 2180.09,-122"/>
<text text-anchor="middle" x="2104" y="-99.8" font-family="Times,serif" font-size="14.00">DiscussTagsComponent</text>
</g>
<!-- DiscussTagsComponent&#45;&gt;ComponentsModule -->
<g id="edge4" class="edge">
<title>DiscussTagsComponent&#45;&gt;ComponentsModule</title>
<path fill="none" stroke="black" d="M2104,-122.3C2104,-140.27 2104,-165 2104,-165 2104,-165 1273.52,-165 1273.52,-165"/>
<polygon fill="black" stroke="black" points="1273.52,-161.5 1263.52,-165 1273.52,-168.5 1273.52,-161.5"/>
</g>
<!-- MyDiscussionComponent -->
<g id="node5" class="node">
<title>MyDiscussionComponent</title>
<polygon fill="#ffffb3" stroke="black" points="2010.21,-122 1847.79,-122 1847.79,-86 2010.21,-86 2010.21,-122"/>
<text text-anchor="middle" x="1929" y="-99.8" font-family="Times,serif" font-size="14.00">MyDiscussionComponent</text>
</g>
<!-- MyDiscussionComponent&#45;&gt;ComponentsModule -->
<g id="edge5" class="edge">
<title>MyDiscussionComponent&#45;&gt;ComponentsModule</title>
<path fill="none" stroke="black" d="M1878.9,-122.04C1878.9,-138.73 1878.9,-161 1878.9,-161 1878.9,-161 1273.29,-161 1273.29,-161"/>
<polygon fill="black" stroke="black" points="1273.29,-157.5 1263.29,-161 1273.29,-164.5 1273.29,-157.5"/>
</g>
<!-- DiscussionDetailsComponent -->
<g id="node6" class="node">
<title>DiscussionDetailsComponent</title>
<polygon fill="#ffffb3" stroke="black" points="1830.42,-122 1647.58,-122 1647.58,-86 1830.42,-86 1830.42,-122"/>
<text text-anchor="middle" x="1739" y="-99.8" font-family="Times,serif" font-size="14.00">DiscussionDetailsComponent</text>
</g>
<!-- DiscussionDetailsComponent&#45;&gt;ComponentsModule -->
<g id="edge6" class="edge">
<title>DiscussionDetailsComponent&#45;&gt;ComponentsModule</title>
<path fill="none" stroke="black" d="M1696.04,-122.28C1696.04,-137.95 1696.04,-158 1696.04,-158 1696.04,-158 1273.37,-158 1273.37,-158"/>
<polygon fill="black" stroke="black" points="1273.37,-154.5 1263.37,-158 1273.37,-161.5 1273.37,-154.5"/>
</g>
<!-- DiscussStartComponent -->
<g id="node7" class="node">
<title>DiscussStartComponent</title>
<polygon fill="#ffffb3" stroke="black" points="1629.82,-122 1478.18,-122 1478.18,-86 1629.82,-86 1629.82,-122"/>
<text text-anchor="middle" x="1554" y="-99.8" font-family="Times,serif" font-size="14.00">DiscussStartComponent</text>
</g>
<!-- DiscussStartComponent&#45;&gt;ComponentsModule -->
<g id="edge7" class="edge">
<title>DiscussStartComponent&#45;&gt;ComponentsModule</title>
<path fill="none" stroke="black" d="M1521.09,-122.12C1521.09,-136.78 1521.09,-155 1521.09,-155 1521.09,-155 1273.38,-155 1273.38,-155"/>
<polygon fill="black" stroke="black" points="1273.38,-151.5 1263.38,-155 1273.38,-158.5 1273.38,-151.5"/>
</g>
<!-- TagAllDiscussionComponent -->
<g id="node8" class="node">
<title>TagAllDiscussionComponent</title>
<polygon fill="#ffffb3" stroke="black" points="1460.42,-122 1277.58,-122 1277.58,-86 1460.42,-86 1460.42,-122"/>
<text text-anchor="middle" x="1369" y="-99.8" font-family="Times,serif" font-size="14.00">TagAllDiscussionComponent</text>
</g>
<!-- TagAllDiscussionComponent&#45;&gt;ComponentsModule -->
<g id="edge8" class="edge">
<title>TagAllDiscussionComponent&#45;&gt;ComponentsModule</title>
<path fill="none" stroke="black" d="M1277.75,-104C1266.3,-104 1258.5,-104 1258.5,-104 1258.5,-104 1258.5,-140.89 1258.5,-140.89"/>
<polygon fill="black" stroke="black" points="1255,-140.89 1258.5,-150.89 1262,-140.89 1255,-140.89"/>
</g>
<!-- SidePannelComponent  -->
<g id="node17" class="node">
<title>SidePannelComponent </title>
<polygon fill="#fb8072" stroke="black" points="1909.82,-252 1762.18,-252 1762.18,-216 1909.82,-216 1909.82,-252"/>
<text text-anchor="middle" x="1836" y="-229.8" font-family="Times,serif" font-size="14.00">SidePannelComponent </text>
</g>
<!-- ComponentsModule&#45;&gt;SidePannelComponent  -->
<g id="edge16" class="edge">
<title>ComponentsModule&#45;&gt;SidePannelComponent </title>
<path fill="none" stroke="black" stroke-dasharray="5,2" d="M1263.44,-178C1418.64,-178 1796.15,-178 1796.15,-178 1796.15,-178 1796.15,-205.97 1796.15,-205.97"/>
<polygon fill="black" stroke="black" points="1792.65,-205.97 1796.15,-215.97 1799.65,-205.97 1792.65,-205.97"/>
</g>
<!-- DiscussHomeComponent  -->
<g id="node18" class="node">
<title>DiscussHomeComponent </title>
<polygon fill="#fb8072" stroke="black" points="1744.09,-252 1581.91,-252 1581.91,-216 1744.09,-216 1744.09,-252"/>
<text text-anchor="middle" x="1663" y="-229.8" font-family="Times,serif" font-size="14.00">DiscussHomeComponent </text>
</g>
<!-- ComponentsModule&#45;&gt;DiscussHomeComponent  -->
<g id="edge17" class="edge">
<title>ComponentsModule&#45;&gt;DiscussHomeComponent </title>
<path fill="none" stroke="black" stroke-dasharray="5,2" d="M1263.5,-181C1378.74,-181 1605.68,-181 1605.68,-181 1605.68,-181 1605.68,-205.76 1605.68,-205.76"/>
<polygon fill="black" stroke="black" points="1602.18,-205.76 1605.68,-215.76 1609.18,-205.76 1602.18,-205.76"/>
</g>
<!-- DiscussCategoryComponent  -->
<g id="node19" class="node">
<title>DiscussCategoryComponent </title>
<polygon fill="#fb8072" stroke="black" points="1563.7,-252 1384.3,-252 1384.3,-216 1563.7,-216 1563.7,-252"/>
<text text-anchor="middle" x="1474" y="-229.8" font-family="Times,serif" font-size="14.00">DiscussCategoryComponent </text>
</g>
<!-- ComponentsModule&#45;&gt;DiscussCategoryComponent  -->
<g id="edge18" class="edge">
<title>ComponentsModule&#45;&gt;DiscussCategoryComponent </title>
<path fill="none" stroke="black" stroke-dasharray="5,2" d="M1263.45,-184C1329.62,-184 1422.18,-184 1422.18,-184 1422.18,-184 1422.18,-205.95 1422.18,-205.95"/>
<polygon fill="black" stroke="black" points="1418.68,-205.95 1422.18,-215.95 1425.68,-205.95 1418.68,-205.95"/>
</g>
<!-- DiscussTagsComponent  -->
<g id="node20" class="node">
<title>DiscussTagsComponent </title>
<polygon fill="#fb8072" stroke="black" points="1365.59,-252 1210.41,-252 1210.41,-216 1365.59,-216 1365.59,-252"/>
<text text-anchor="middle" x="1288" y="-229.8" font-family="Times,serif" font-size="14.00">DiscussTagsComponent </text>
</g>
<!-- ComponentsModule&#45;&gt;DiscussTagsComponent  -->
<g id="edge19" class="edge">
<title>ComponentsModule&#45;&gt;DiscussTagsComponent </title>
<path fill="none" stroke="black" stroke-dasharray="5,2" d="M1236.68,-187.11C1236.68,-187.11 1236.68,-205.99 1236.68,-205.99"/>
<polygon fill="black" stroke="black" points="1233.18,-205.99 1236.68,-215.99 1240.18,-205.99 1233.18,-205.99"/>
</g>
<!-- MyDiscussionComponent  -->
<g id="node21" class="node">
<title>MyDiscussionComponent </title>
<polygon fill="#fb8072" stroke="black" points="1191.71,-252 1026.29,-252 1026.29,-216 1191.71,-216 1191.71,-252"/>
<text text-anchor="middle" x="1109" y="-229.8" font-family="Times,serif" font-size="14.00">MyDiscussionComponent </text>
</g>
<!-- ComponentsModule&#45;&gt;MyDiscussionComponent  -->
<g id="edge20" class="edge">
<title>ComponentsModule&#45;&gt;MyDiscussionComponent </title>
<path fill="none" stroke="black" stroke-dasharray="5,2" d="M1162.35,-187.11C1162.35,-187.11 1162.35,-205.99 1162.35,-205.99"/>
<polygon fill="black" stroke="black" points="1158.85,-205.99 1162.35,-215.99 1165.85,-205.99 1158.85,-205.99"/>
</g>
<!-- DiscussionDetailsComponent  -->
<g id="node22" class="node">
<title>DiscussionDetailsComponent </title>
<polygon fill="#fb8072" stroke="black" points="1007.92,-252 822.08,-252 822.08,-216 1007.92,-216 1007.92,-252"/>
<text text-anchor="middle" x="915" y="-229.8" font-family="Times,serif" font-size="14.00">DiscussionDetailsComponent </text>
</g>
<!-- ComponentsModule&#45;&gt;DiscussionDetailsComponent  -->
<g id="edge21" class="edge">
<title>ComponentsModule&#45;&gt;DiscussionDetailsComponent </title>
<path fill="none" stroke="black" stroke-dasharray="5,2" d="M1132.66,-184C1073.89,-184 996.75,-184 996.75,-184 996.75,-184 996.75,-205.95 996.75,-205.95"/>
<polygon fill="black" stroke="black" points="993.25,-205.95 996.75,-215.95 1000.25,-205.95 993.25,-205.95"/>
</g>
<!-- DiscussStartComponent  -->
<g id="node23" class="node">
<title>DiscussStartComponent </title>
<polygon fill="#fb8072" stroke="black" points="804.32,-252 649.68,-252 649.68,-216 804.32,-216 804.32,-252"/>
<text text-anchor="middle" x="727" y="-229.8" font-family="Times,serif" font-size="14.00">DiscussStartComponent </text>
</g>
<!-- ComponentsModule&#45;&gt;DiscussStartComponent  -->
<g id="edge22" class="edge">
<title>ComponentsModule&#45;&gt;DiscussStartComponent </title>
<path fill="none" stroke="black" stroke-dasharray="5,2" d="M1132.38,-181C1015.61,-181 783.87,-181 783.87,-181 783.87,-181 783.87,-205.76 783.87,-205.76"/>
<polygon fill="black" stroke="black" points="780.37,-205.76 783.87,-215.76 787.37,-205.76 780.37,-205.76"/>
</g>
<!-- TagAllDiscussionComponent  -->
<g id="node24" class="node">
<title>TagAllDiscussionComponent </title>
<polygon fill="#fb8072" stroke="black" points="631.92,-252 446.08,-252 446.08,-216 631.92,-216 631.92,-252"/>
<text text-anchor="middle" x="539" y="-229.8" font-family="Times,serif" font-size="14.00">TagAllDiscussionComponent </text>
</g>
<!-- ComponentsModule&#45;&gt;TagAllDiscussionComponent  -->
<g id="edge23" class="edge">
<title>ComponentsModule&#45;&gt;TagAllDiscussionComponent </title>
<path fill="none" stroke="black" stroke-dasharray="5,2" d="M1132.7,-178C980.76,-178 616.4,-178 616.4,-178 616.4,-178 616.4,-205.97 616.4,-205.97"/>
<polygon fill="black" stroke="black" points="612.9,-205.97 616.4,-215.97 619.9,-205.97 612.9,-205.97"/>
</g>
<!-- CommonModule -->
<g id="node10" class="node">
<title>CommonModule</title>
<polygon fill="#8dd3c7" stroke="black" points="1253.67,-122 1250.67,-126 1229.67,-126 1226.67,-122 1142.33,-122 1142.33,-86 1253.67,-86 1253.67,-122"/>
<text text-anchor="middle" x="1198" y="-99.8" font-family="Times,serif" font-size="14.00">CommonModule</text>
</g>
<!-- CommonModule&#45;&gt;ComponentsModule -->
<g id="edge9" class="edge">
<title>CommonModule&#45;&gt;ComponentsModule</title>
<path fill="none" stroke="black" d="M1198,-122.11C1198,-122.11 1198,-140.99 1198,-140.99"/>
<polygon fill="black" stroke="black" points="1194.5,-140.99 1198,-150.99 1201.5,-140.99 1194.5,-140.99"/>
</g>
<!-- HttpClientModule -->
<g id="node11" class="node">
<title>HttpClientModule</title>
<polygon fill="#8dd3c7" stroke="black" points="1124.16,-122 1121.16,-126 1100.16,-126 1097.16,-122 1005.84,-122 1005.84,-86 1124.16,-86 1124.16,-122"/>
<text text-anchor="middle" x="1065" y="-99.8" font-family="Times,serif" font-size="14.00">HttpClientModule</text>
</g>
<!-- HttpClientModule&#45;&gt;ComponentsModule -->
<g id="edge10" class="edge">
<title>HttpClientModule&#45;&gt;ComponentsModule</title>
<path fill="none" stroke="black" d="M1124.2,-104C1132.08,-104 1137.5,-104 1137.5,-104 1137.5,-104 1137.5,-140.89 1137.5,-140.89"/>
<polygon fill="black" stroke="black" points="1134,-140.89 1137.5,-150.89 1141,-140.89 1134,-140.89"/>
</g>
<!-- ElementsModule -->
<g id="node12" class="node">
<title>ElementsModule</title>
<polygon fill="#8dd3c7" stroke="black" points="987.65,-122 984.65,-126 963.65,-126 960.65,-122 876.35,-122 876.35,-86 987.65,-86 987.65,-122"/>
<text text-anchor="middle" x="932" y="-99.8" font-family="Times,serif" font-size="14.00">ElementsModule</text>
</g>
<!-- ElementsModule&#45;&gt;ComponentsModule -->
<g id="edge11" class="edge">
<title>ElementsModule&#45;&gt;ComponentsModule</title>
<path fill="none" stroke="black" d="M932,-122.12C932,-136.78 932,-155 932,-155 932,-155 1122.59,-155 1122.59,-155"/>
<polygon fill="black" stroke="black" points="1122.59,-158.5 1132.59,-155 1122.59,-151.5 1122.59,-158.5"/>
</g>
<!-- FormsModule -->
<g id="node13" class="node">
<title>FormsModule</title>
<polygon fill="#8dd3c7" stroke="black" points="858.83,-122 855.83,-126 834.83,-126 831.83,-122 763.17,-122 763.17,-86 858.83,-86 858.83,-122"/>
<text text-anchor="middle" x="811" y="-99.8" font-family="Times,serif" font-size="14.00">FormsModule</text>
</g>
<!-- FormsModule&#45;&gt;ComponentsModule -->
<g id="edge12" class="edge">
<title>FormsModule&#45;&gt;ComponentsModule</title>
<path fill="none" stroke="black" d="M840.35,-122.28C840.35,-137.95 840.35,-158 840.35,-158 840.35,-158 1122.82,-158 1122.82,-158"/>
<polygon fill="black" stroke="black" points="1122.82,-161.5 1132.82,-158 1122.82,-154.5 1122.82,-161.5"/>
</g>
<!-- ReactiveFormsModule -->
<g id="node14" class="node">
<title>ReactiveFormsModule</title>
<polygon fill="#8dd3c7" stroke="black" points="745.3,-122 742.3,-126 721.3,-126 718.3,-122 600.7,-122 600.7,-86 745.3,-86 745.3,-122"/>
<text text-anchor="middle" x="673" y="-99.8" font-family="Times,serif" font-size="14.00">ReactiveFormsModule</text>
</g>
<!-- ReactiveFormsModule&#45;&gt;ComponentsModule -->
<g id="edge13" class="edge">
<title>ReactiveFormsModule&#45;&gt;ComponentsModule</title>
<path fill="none" stroke="black" d="M697.37,-122.04C697.37,-138.73 697.37,-161 697.37,-161 697.37,-161 1122.81,-161 1122.81,-161"/>
<polygon fill="black" stroke="black" points="1122.81,-164.5 1132.81,-161 1122.81,-157.5 1122.81,-164.5"/>
</g>
<!-- TagInputModule -->
<g id="node15" class="node">
<title>TagInputModule</title>
<polygon fill="#8dd3c7" stroke="black" points="582.37,-122 579.37,-126 558.37,-126 555.37,-122 471.63,-122 471.63,-86 582.37,-86 582.37,-122"/>
<text text-anchor="middle" x="527" y="-99.8" font-family="Times,serif" font-size="14.00">TagInputModule</text>
</g>
<!-- TagInputModule&#45;&gt;ComponentsModule -->
<g id="edge14" class="edge">
<title>TagInputModule&#45;&gt;ComponentsModule</title>
<path fill="none" stroke="black" d="M527,-122.3C527,-140.27 527,-165 527,-165 527,-165 1122.75,-165 1122.75,-165"/>
<polygon fill="black" stroke="black" points="1122.75,-168.5 1132.75,-165 1122.75,-161.5 1122.75,-168.5"/>
</g>
<!-- PipesModule -->
<g id="node16" class="node">
<title>PipesModule</title>
<polygon fill="#8dd3c7" stroke="black" points="453.88,-122 450.88,-126 429.88,-126 426.88,-122 364.12,-122 364.12,-86 453.88,-86 453.88,-122"/>
<text text-anchor="middle" x="409" y="-99.8" font-family="Times,serif" font-size="14.00">PipesModule</text>
</g>
<!-- PipesModule&#45;&gt;ComponentsModule -->
<g id="edge15" class="edge">
<title>PipesModule&#45;&gt;ComponentsModule</title>
<path fill="none" stroke="black" d="M449.99,-122.17C449.99,-141.09 449.99,-168 449.99,-168 449.99,-168 1122.6,-168 1122.6,-168"/>
<polygon fill="black" stroke="black" points="1122.6,-171.5 1132.6,-168 1122.6,-164.5 1122.6,-171.5"/>
</g>
<!-- DiscussionService -->
<g id="node25" class="node">
<title>DiscussionService</title>
<ellipse fill="#fdb462" stroke="black" cx="258" cy="-104" rx="82.24" ry="18"/>
<text text-anchor="middle" x="258" y="-99.8" font-family="Times,serif" font-size="14.00">DiscussionService</text>
</g>
<!-- DiscussionService&#45;&gt;ComponentsModule -->
<g id="edge24" class="edge">
<title>DiscussionService&#45;&gt;ComponentsModule</title>
<path fill="none" stroke="black" d="M258,-122.31C258,-142.15 258,-171 258,-171 258,-171 1122.65,-171 1122.65,-171"/>
<polygon fill="black" stroke="black" points="1122.65,-174.5 1132.65,-171 1122.65,-167.5 1122.65,-174.5"/>
</g>
<!-- ConfigService -->
<g id="node26" class="node">
<title>ConfigService</title>
<ellipse fill="#fdb462" stroke="black" cx="91" cy="-104" rx="66.63" ry="18"/>
<text text-anchor="middle" x="91" y="-99.8" font-family="Times,serif" font-size="14.00">ConfigService</text>
</g>
<!-- ConfigService&#45;&gt;ComponentsModule -->
<g id="edge25" class="edge">
<title>ConfigService&#45;&gt;ComponentsModule</title>
<path fill="none" stroke="black" d="M91,-122.03C91,-142.77 91,-174 91,-174 91,-174 1122.48,-174 1122.48,-174"/>
<polygon fill="black" stroke="black" points="1122.48,-177.5 1132.48,-174 1122.48,-170.5 1122.48,-177.5"/>
</g>
</g>
</svg>
