<?xml version="1.0" encoding="UTF-8" standalone="no"?>
<!DOCTYPE svg PUBLIC "-//W3C//DTD SVG 1.1//EN"
 "http://www.w3.org/Graphics/SVG/1.1/DTD/svg11.dtd">
<!-- Generated by graphviz version 2.47.0 (20210316.0004)
 -->
<!-- Title: dependencies Pages: 1 -->
<svg width="3059pt" height="284pt"
 viewBox="0.00 0.00 3059.00 284.00" xmlns="http://www.w3.org/2000/svg" xmlns:xlink="http://www.w3.org/1999/xlink">
<g id="graph0" class="graph" transform="scale(1 1) rotate(0) translate(4 280)">
<title>dependencies</title>
<polygon fill="white" stroke="transparent" points="-4,4 -4,-280 3055,-280 3055,4 -4,4"/>
<text text-anchor="start" x="1504.51" y="-42.4" font-family="sans-serif" font-weight="bold" font-size="14.00">Legend</text>
<polygon fill="#ffffb3" stroke="transparent" points="1291.5,-10 1291.5,-30 1311.5,-30 1311.5,-10 1291.5,-10"/>
<text text-anchor="start" x="1315.13" y="-15.4" font-family="sans-serif" font-size="14.00"> &#160;Declarations</text>
<polygon fill="#8dd3c7" stroke="transparent" points="1404.5,-10 1404.5,-30 1424.5,-30 1424.5,-10 1404.5,-10"/>
<text text-anchor="start" x="1428.23" y="-15.4" font-family="sans-serif" font-size="14.00"> &#160;Module</text>
<polygon fill="#80b1d3" stroke="transparent" points="1490.5,-10 1490.5,-30 1510.5,-30 1510.5,-10 1490.5,-10"/>
<text text-anchor="start" x="1514.28" y="-15.4" font-family="sans-serif" font-size="14.00"> &#160;Bootstrap</text>
<polygon fill="#fdb462" stroke="transparent" points="1587.5,-10 1587.5,-30 1607.5,-30 1607.5,-10 1587.5,-10"/>
<text text-anchor="start" x="1611.17" y="-15.4" font-family="sans-serif" font-size="14.00"> &#160;Providers</text>
<polygon fill="#fb8072" stroke="transparent" points="1683.5,-10 1683.5,-30 1703.5,-30 1703.5,-10 1683.5,-10"/>
<text text-anchor="start" x="1707.23" y="-15.4" font-family="sans-serif" font-size="14.00"> &#160;Exports</text>
<g id="clust1" class="cluster">
<title>cluster_ComponentsModule</title>
<polygon fill="none" stroke="black" stroke-dasharray="1,5" points="8,-70 8,-268 3043,-268 3043,-70 8,-70"/>
</g>
<g id="clust2" class="cluster">
<title>cluster_ComponentsModule_declarations</title>
<polygon fill="none" stroke="black" points="1422,-78 1422,-130 3035,-130 3035,-78 1422,-78"/>
</g>
<g id="clust13" class="cluster">
<title>cluster_ComponentsModule_exports</title>
<polygon fill="none" stroke="black" points="590,-208 590,-260 2070,-260 2070,-208 590,-208"/>
</g>
<g id="clust12" class="cluster">
<title>cluster_ComponentsModule_imports</title>
<polygon fill="none" stroke="black" points="356,-78 356,-130 1414,-130 1414,-78 356,-78"/>
</g>
<g id="clust15" class="cluster">
<title>cluster_ComponentsModule_providers</title>
<polygon fill="none" stroke="black" points="16,-78 16,-130 348,-130 348,-78 16,-78"/>
</g>
<!-- SidePannelComponent -->
<g id="node1" class="node">
<title>SidePannelComponent</title>
<polygon fill="#ffffb3" stroke="black" points="3027.32,-122 2882.68,-122 2882.68,-86 3027.32,-86 3027.32,-122"/>
<text text-anchor="middle" x="2955" y="-99.8" font-family="Times,serif" font-size="14.00">SidePannelComponent</text>
</g>
<!-- ComponentsModule -->
<g id="node10" class="node">
<title>ComponentsModule</title>
<polygon fill="#8dd3c7" stroke="black" points="1415.33,-187 1412.33,-191 1391.33,-191 1388.33,-187 1284.67,-187 1284.67,-151 1415.33,-151 1415.33,-187"/>
<text text-anchor="middle" x="1350" y="-164.8" font-family="Times,serif" font-size="14.00">ComponentsModule</text>
</g>
<!-- SidePannelComponent&#45;&gt;ComponentsModule -->
<g id="edge1" class="edge">
<title>SidePannelComponent&#45;&gt;ComponentsModule</title>
<path fill="none" stroke="black" d="M2955,-122.28C2955,-143.32 2955,-175 2955,-175 2955,-175 1425.41,-175 1425.41,-175"/>
<polygon fill="black" stroke="black" points="1425.41,-171.5 1415.41,-175 1425.41,-178.5 1425.41,-171.5"/>
</g>
<!-- DiscussHomeComponent -->
<g id="node2" class="node">
<title>DiscussHomeComponent</title>
<polygon fill="#ffffb3" stroke="black" points="2864.59,-122 2705.41,-122 2705.41,-86 2864.59,-86 2864.59,-122"/>
<text text-anchor="middle" x="2785" y="-99.8" font-family="Times,serif" font-size="14.00">DiscussHomeComponent</text>
</g>
<!-- DiscussHomeComponent&#45;&gt;ComponentsModule -->
<g id="edge2" class="edge">
<title>DiscussHomeComponent&#45;&gt;ComponentsModule</title>
<path fill="none" stroke="black" d="M2785,-122.22C2785,-142.37 2785,-172 2785,-172 2785,-172 1425.39,-172 1425.39,-172"/>
<polygon fill="black" stroke="black" points="1425.39,-168.5 1415.39,-172 1425.39,-175.5 1425.39,-168.5"/>
</g>
<!-- DiscussCategoryComponent -->
<g id="node3" class="node">
<title>DiscussCategoryComponent</title>
<polygon fill="#ffffb3" stroke="black" points="2687.2,-122 2510.8,-122 2510.8,-86 2687.2,-86 2687.2,-122"/>
<text text-anchor="middle" x="2599" y="-99.8" font-family="Times,serif" font-size="14.00">DiscussCategoryComponent</text>
</g>
<!-- DiscussCategoryComponent&#45;&gt;ComponentsModule -->
<g id="edge3" class="edge">
<title>DiscussCategoryComponent&#45;&gt;ComponentsModule</title>
<path fill="none" stroke="black" d="M2599,-122.11C2599,-141.34 2599,-169 2599,-169 2599,-169 1425.39,-169 1425.39,-169"/>
<polygon fill="black" stroke="black" points="1425.39,-165.5 1415.39,-169 1425.39,-172.5 1425.39,-165.5"/>
</g>
<!-- DiscussTagsComponent -->
<g id="node4" class="node">
<title>DiscussTagsComponent</title>
<polygon fill="#ffffb3" stroke="black" points="2493.09,-122 2340.91,-122 2340.91,-86 2493.09,-86 2493.09,-122"/>
<text text-anchor="middle" x="2417" y="-99.8" font-family="Times,serif" font-size="14.00">DiscussTagsComponent</text>
</g>
<!-- DiscussTagsComponent&#45;&gt;ComponentsModule -->
<g id="edge4" class="edge">
<title>DiscussTagsComponent&#45;&gt;ComponentsModule</title>
<path fill="none" stroke="black" d="M2417,-122.27C2417,-140.56 2417,-166 2417,-166 2417,-166 1425.54,-166 1425.54,-166"/>
<polygon fill="black" stroke="black" points="1425.54,-162.5 1415.54,-166 1425.54,-169.5 1425.54,-162.5"/>
</g>
<!-- MyDiscussionComponent -->
<g id="node5" class="node">
<title>MyDiscussionComponent</title>
<polygon fill="#ffffb3" stroke="black" points="2323.21,-122 2160.79,-122 2160.79,-86 2323.21,-86 2323.21,-122"/>
<text text-anchor="middle" x="2242" y="-99.8" font-family="Times,serif" font-size="14.00">MyDiscussionComponent</text>
</g>
<!-- MyDiscussionComponent&#45;&gt;ComponentsModule -->
<g id="edge5" class="edge">
<title>MyDiscussionComponent&#45;&gt;ComponentsModule</title>
<path fill="none" stroke="black" d="M2242,-122.02C2242,-139.37 2242,-163 2242,-163 2242,-163 1425.23,-163 1425.23,-163"/>
<polygon fill="black" stroke="black" points="1425.23,-159.5 1415.23,-163 1425.23,-166.5 1425.23,-159.5"/>
</g>
<!-- DiscussionDetailsComponent -->
<g id="node6" class="node">
<title>DiscussionDetailsComponent</title>
<polygon fill="#ffffb3" stroke="black" points="2143.42,-122 1960.58,-122 1960.58,-86 2143.42,-86 2143.42,-122"/>
<text text-anchor="middle" x="2052" y="-99.8" font-family="Times,serif" font-size="14.00">DiscussionDetailsComponent</text>
</g>
<!-- DiscussionDetailsComponent&#45;&gt;ComponentsModule -->
<g id="edge6" class="edge">
<title>DiscussionDetailsComponent&#45;&gt;ComponentsModule</title>
<path fill="none" stroke="black" d="M2011.35,-122.03C2011.35,-138.4 2011.35,-160 2011.35,-160 2011.35,-160 1425.22,-160 1425.22,-160"/>
<polygon fill="black" stroke="black" points="1425.22,-156.5 1415.22,-160 1425.22,-163.5 1425.22,-156.5"/>
</g>
<!-- DiscussStartComponent -->
<g id="node7" class="node">
<title>DiscussStartComponent</title>
<polygon fill="#ffffb3" stroke="black" points="1942.82,-122 1791.18,-122 1791.18,-86 1942.82,-86 1942.82,-122"/>
<text text-anchor="middle" x="1867" y="-99.8" font-family="Times,serif" font-size="14.00">DiscussStartComponent</text>
</g>
<!-- DiscussStartComponent&#45;&gt;ComponentsModule -->
<g id="edge7" class="edge">
<title>DiscussStartComponent&#45;&gt;ComponentsModule</title>
<path fill="none" stroke="black" d="M1843.82,-122.24C1843.82,-137.57 1843.82,-157 1843.82,-157 1843.82,-157 1425.32,-157 1425.32,-157"/>
<polygon fill="black" stroke="black" points="1425.32,-153.5 1415.32,-157 1425.32,-160.5 1425.32,-153.5"/>
</g>
<!-- DiscussAllComponent -->
<g id="node8" class="node">
<title>DiscussAllComponent</title>
<polygon fill="#ffffb3" stroke="black" points="1773.27,-122 1630.73,-122 1630.73,-86 1773.27,-86 1773.27,-122"/>
<text text-anchor="middle" x="1702" y="-99.8" font-family="Times,serif" font-size="14.00">DiscussAllComponent</text>
</g>
<!-- DiscussAllComponent&#45;&gt;ComponentsModule -->
<g id="edge8" class="edge">
<title>DiscussAllComponent&#45;&gt;ComponentsModule</title>
<path fill="none" stroke="black" d="M1673.23,-122.05C1673.23,-136.37 1673.23,-154 1673.23,-154 1673.23,-154 1425.41,-154 1425.41,-154"/>
<polygon fill="black" stroke="black" points="1425.41,-150.5 1415.41,-154 1425.41,-157.5 1425.41,-150.5"/>
</g>
<!-- TagAllDiscussionComponent -->
<g id="node9" class="node">
<title>TagAllDiscussionComponent</title>
<polygon fill="#ffffb3" stroke="black" points="1612.42,-122 1429.58,-122 1429.58,-86 1612.42,-86 1612.42,-122"/>
<text text-anchor="middle" x="1521" y="-99.8" font-family="Times,serif" font-size="14.00">TagAllDiscussionComponent</text>
</g>
<!-- TagAllDiscussionComponent&#45;&gt;ComponentsModule -->
<g id="edge9" class="edge">
<title>TagAllDiscussionComponent&#45;&gt;ComponentsModule</title>
<path fill="none" stroke="black" d="M1429.75,-104C1418.3,-104 1410.5,-104 1410.5,-104 1410.5,-104 1410.5,-140.89 1410.5,-140.89"/>
<polygon fill="black" stroke="black" points="1407,-140.89 1410.5,-150.89 1414,-140.89 1407,-140.89"/>
</g>
<!-- SidePannelComponent  -->
<g id="node19" class="node">
<title>SidePannelComponent </title>
<polygon fill="#fb8072" stroke="black" points="2061.82,-252 1914.18,-252 1914.18,-216 2061.82,-216 2061.82,-252"/>
<text text-anchor="middle" x="1988" y="-229.8" font-family="Times,serif" font-size="14.00">SidePannelComponent </text>
</g>
<!-- ComponentsModule&#45;&gt;SidePannelComponent  -->
<g id="edge18" class="edge">
<title>ComponentsModule&#45;&gt;SidePannelComponent </title>
<path fill="none" stroke="black" stroke-dasharray="5,2" d="M1415.22,-178C1566.48,-178 1928.37,-178 1928.37,-178 1928.37,-178 1928.37,-205.97 1928.37,-205.97"/>
<polygon fill="black" stroke="black" points="1924.87,-205.97 1928.37,-215.97 1931.87,-205.97 1924.87,-205.97"/>
</g>
<!-- DiscussHomeComponent  -->
<g id="node20" class="node">
<title>DiscussHomeComponent </title>
<polygon fill="#fb8072" stroke="black" points="1896.09,-252 1733.91,-252 1733.91,-216 1896.09,-216 1896.09,-252"/>
<text text-anchor="middle" x="1815" y="-229.8" font-family="Times,serif" font-size="14.00">DiscussHomeComponent </text>
</g>
<!-- ComponentsModule&#45;&gt;DiscussHomeComponent  -->
<g id="edge19" class="edge">
<title>ComponentsModule&#45;&gt;DiscussHomeComponent </title>
<path fill="none" stroke="black" stroke-dasharray="5,2" d="M1415.28,-181C1529.5,-181 1753.54,-181 1753.54,-181 1753.54,-181 1753.54,-205.76 1753.54,-205.76"/>
<polygon fill="black" stroke="black" points="1750.04,-205.76 1753.54,-215.76 1757.04,-205.76 1750.04,-205.76"/>
</g>
<!-- DiscussCategoryComponent  -->
<g id="node21" class="node">
<title>DiscussCategoryComponent </title>
<polygon fill="#fb8072" stroke="black" points="1715.7,-252 1536.3,-252 1536.3,-216 1715.7,-216 1715.7,-252"/>
<text text-anchor="middle" x="1626" y="-229.8" font-family="Times,serif" font-size="14.00">DiscussCategoryComponent </text>
</g>
<!-- ComponentsModule&#45;&gt;DiscussCategoryComponent  -->
<g id="edge20" class="edge">
<title>ComponentsModule&#45;&gt;DiscussCategoryComponent </title>
<path fill="none" stroke="black" stroke-dasharray="5,2" d="M1415.45,-184C1481.62,-184 1574.18,-184 1574.18,-184 1574.18,-184 1574.18,-205.95 1574.18,-205.95"/>
<polygon fill="black" stroke="black" points="1570.68,-205.95 1574.18,-215.95 1577.68,-205.95 1570.68,-205.95"/>
</g>
<!-- DiscussTagsComponent  -->
<g id="node22" class="node">
<title>DiscussTagsComponent </title>
<polygon fill="#fb8072" stroke="black" points="1517.59,-252 1362.41,-252 1362.41,-216 1517.59,-216 1517.59,-252"/>
<text text-anchor="middle" x="1440" y="-229.8" font-family="Times,serif" font-size="14.00">DiscussTagsComponent </text>
</g>
<!-- ComponentsModule&#45;&gt;DiscussTagsComponent  -->
<g id="edge21" class="edge">
<title>ComponentsModule&#45;&gt;DiscussTagsComponent </title>
<path fill="none" stroke="black" stroke-dasharray="5,2" d="M1388.68,-187.11C1388.68,-187.11 1388.68,-205.99 1388.68,-205.99"/>
<polygon fill="black" stroke="black" points="1385.18,-205.99 1388.68,-215.99 1392.18,-205.99 1385.18,-205.99"/>
</g>
<!-- MyDiscussionComponent  -->
<g id="node23" class="node">
<title>MyDiscussionComponent </title>
<polygon fill="#fb8072" stroke="black" points="1343.71,-252 1178.29,-252 1178.29,-216 1343.71,-216 1343.71,-252"/>
<text text-anchor="middle" x="1261" y="-229.8" font-family="Times,serif" font-size="14.00">MyDiscussionComponent </text>
</g>
<!-- ComponentsModule&#45;&gt;MyDiscussionComponent  -->
<g id="edge22" class="edge">
<title>ComponentsModule&#45;&gt;MyDiscussionComponent </title>
<path fill="none" stroke="black" stroke-dasharray="5,2" d="M1314.35,-187.11C1314.35,-187.11 1314.35,-205.99 1314.35,-205.99"/>
<polygon fill="black" stroke="black" points="1310.85,-205.99 1314.35,-215.99 1317.85,-205.99 1310.85,-205.99"/>
</g>
<!-- DiscussionDetailsComponent  -->
<g id="node24" class="node">
<title>DiscussionDetailsComponent </title>
<polygon fill="#fb8072" stroke="black" points="1159.92,-252 974.08,-252 974.08,-216 1159.92,-216 1159.92,-252"/>
<text text-anchor="middle" x="1067" y="-229.8" font-family="Times,serif" font-size="14.00">DiscussionDetailsComponent </text>
</g>
<!-- ComponentsModule&#45;&gt;DiscussionDetailsComponent  -->
<g id="edge23" class="edge">
<title>ComponentsModule&#45;&gt;DiscussionDetailsComponent </title>
<path fill="none" stroke="black" stroke-dasharray="5,2" d="M1284.66,-184C1225.89,-184 1148.75,-184 1148.75,-184 1148.75,-184 1148.75,-205.95 1148.75,-205.95"/>
<polygon fill="black" stroke="black" points="1145.25,-205.95 1148.75,-215.95 1152.25,-205.95 1145.25,-205.95"/>
</g>
<!-- DiscussStartComponent  -->
<g id="node25" class="node">
<title>DiscussStartComponent </title>
<polygon fill="#fb8072" stroke="black" points="956.32,-252 801.68,-252 801.68,-216 956.32,-216 956.32,-252"/>
<text text-anchor="middle" x="879" y="-229.8" font-family="Times,serif" font-size="14.00">DiscussStartComponent </text>
</g>
<!-- ComponentsModule&#45;&gt;DiscussStartComponent  -->
<g id="edge24" class="edge">
<title>ComponentsModule&#45;&gt;DiscussStartComponent </title>
<path fill="none" stroke="black" stroke-dasharray="5,2" d="M1284.38,-181C1167.61,-181 935.87,-181 935.87,-181 935.87,-181 935.87,-205.76 935.87,-205.76"/>
<polygon fill="black" stroke="black" points="932.37,-205.76 935.87,-215.76 939.37,-205.76 932.37,-205.76"/>
</g>
<!-- TagAllDiscussionComponent  -->
<g id="node26" class="node">
<title>TagAllDiscussionComponent </title>
<polygon fill="#fb8072" stroke="black" points="783.92,-252 598.08,-252 598.08,-216 783.92,-216 783.92,-252"/>
<text text-anchor="middle" x="691" y="-229.8" font-family="Times,serif" font-size="14.00">TagAllDiscussionComponent </text>
</g>
<!-- ComponentsModule&#45;&gt;TagAllDiscussionComponent  -->
<g id="edge25" class="edge">
<title>ComponentsModule&#45;&gt;TagAllDiscussionComponent </title>
<path fill="none" stroke="black" stroke-dasharray="5,2" d="M1284.7,-178C1132.76,-178 768.4,-178 768.4,-178 768.4,-178 768.4,-205.97 768.4,-205.97"/>
<polygon fill="black" stroke="black" points="764.9,-205.97 768.4,-215.97 771.9,-205.97 764.9,-205.97"/>
</g>
<!-- CommonModule -->
<g id="node11" class="node">
<title>CommonModule</title>
<polygon fill="#8dd3c7" stroke="black" points="1405.67,-122 1402.67,-126 1381.67,-126 1378.67,-122 1294.33,-122 1294.33,-86 1405.67,-86 1405.67,-122"/>
<text text-anchor="middle" x="1350" y="-99.8" font-family="Times,serif" font-size="14.00">CommonModule</text>
</g>
<!-- CommonModule&#45;&gt;ComponentsModule -->
<g id="edge10" class="edge">
<title>CommonModule&#45;&gt;ComponentsModule</title>
<path fill="none" stroke="black" d="M1350,-122.11C1350,-122.11 1350,-140.99 1350,-140.99"/>
<polygon fill="black" stroke="black" points="1346.5,-140.99 1350,-150.99 1353.5,-140.99 1346.5,-140.99"/>
</g>
<!-- HttpClientModule -->
<g id="node12" class="node">
<title>HttpClientModule</title>
<polygon fill="#8dd3c7" stroke="black" points="1276.16,-122 1273.16,-126 1252.16,-126 1249.16,-122 1157.84,-122 1157.84,-86 1276.16,-86 1276.16,-122"/>
<text text-anchor="middle" x="1217" y="-99.8" font-family="Times,serif" font-size="14.00">HttpClientModule</text>
</g>
<!-- HttpClientModule&#45;&gt;ComponentsModule -->
<g id="edge11" class="edge">
<title>HttpClientModule&#45;&gt;ComponentsModule</title>
<path fill="none" stroke="black" d="M1276.2,-104C1284.08,-104 1289.5,-104 1289.5,-104 1289.5,-104 1289.5,-140.89 1289.5,-140.89"/>
<polygon fill="black" stroke="black" points="1286,-140.89 1289.5,-150.89 1293,-140.89 1286,-140.89"/>
</g>
<!-- ElementsModule -->
<g id="node13" class="node">
<title>ElementsModule</title>
<polygon fill="#8dd3c7" stroke="black" points="1139.65,-122 1136.65,-126 1115.65,-126 1112.65,-122 1028.35,-122 1028.35,-86 1139.65,-86 1139.65,-122"/>
<text text-anchor="middle" x="1084" y="-99.8" font-family="Times,serif" font-size="14.00">ElementsModule</text>
</g>
<!-- ElementsModule&#45;&gt;ComponentsModule -->
<g id="edge12" class="edge">
<title>ElementsModule&#45;&gt;ComponentsModule</title>
<path fill="none" stroke="black" d="M1084,-122.05C1084,-136.37 1084,-154 1084,-154 1084,-154 1274.59,-154 1274.59,-154"/>
<polygon fill="black" stroke="black" points="1274.59,-157.5 1284.59,-154 1274.59,-150.5 1274.59,-157.5"/>
</g>
<!-- FormsModule -->
<g id="node14" class="node">
<title>FormsModule</title>
<polygon fill="#8dd3c7" stroke="black" points="1010.83,-122 1007.83,-126 986.83,-126 983.83,-122 915.17,-122 915.17,-86 1010.83,-86 1010.83,-122"/>
<text text-anchor="middle" x="963" y="-99.8" font-family="Times,serif" font-size="14.00">FormsModule</text>
</g>
<!-- FormsModule&#45;&gt;ComponentsModule -->
<g id="edge13" class="edge">
<title>FormsModule&#45;&gt;ComponentsModule</title>
<path fill="none" stroke="black" d="M992.35,-122.24C992.35,-137.57 992.35,-157 992.35,-157 992.35,-157 1274.82,-157 1274.82,-157"/>
<polygon fill="black" stroke="black" points="1274.82,-160.5 1284.82,-157 1274.82,-153.5 1274.82,-160.5"/>
</g>
<!-- ReactiveFormsModule -->
<g id="node15" class="node">
<title>ReactiveFormsModule</title>
<polygon fill="#8dd3c7" stroke="black" points="897.3,-122 894.3,-126 873.3,-126 870.3,-122 752.7,-122 752.7,-86 897.3,-86 897.3,-122"/>
<text text-anchor="middle" x="825" y="-99.8" font-family="Times,serif" font-size="14.00">ReactiveFormsModule</text>
</g>
<!-- ReactiveFormsModule&#45;&gt;ComponentsModule -->
<g id="edge14" class="edge">
<title>ReactiveFormsModule&#45;&gt;ComponentsModule</title>
<path fill="none" stroke="black" d="M849.37,-122.03C849.37,-138.4 849.37,-160 849.37,-160 849.37,-160 1274.81,-160 1274.81,-160"/>
<polygon fill="black" stroke="black" points="1274.81,-163.5 1284.81,-160 1274.81,-156.5 1274.81,-163.5"/>
</g>
<!-- TagInputModule -->
<g id="node16" class="node">
<title>TagInputModule</title>
<polygon fill="#8dd3c7" stroke="black" points="734.37,-122 731.37,-126 710.37,-126 707.37,-122 623.63,-122 623.63,-86 734.37,-86 734.37,-122"/>
<text text-anchor="middle" x="679" y="-99.8" font-family="Times,serif" font-size="14.00">TagInputModule</text>
</g>
<!-- TagInputModule&#45;&gt;ComponentsModule -->
<g id="edge15" class="edge">
<title>TagInputModule&#45;&gt;ComponentsModule</title>
<path fill="none" stroke="black" d="M679,-122.02C679,-139.37 679,-163 679,-163 679,-163 1274.75,-163 1274.75,-163"/>
<polygon fill="black" stroke="black" points="1274.75,-166.5 1284.75,-163 1274.75,-159.5 1274.75,-166.5"/>
</g>
<!-- PipesModule -->
<g id="node17" class="node">
<title>PipesModule</title>
<polygon fill="#8dd3c7" stroke="black" points="605.88,-122 602.88,-126 581.88,-126 578.88,-122 516.12,-122 516.12,-86 605.88,-86 605.88,-122"/>
<text text-anchor="middle" x="561" y="-99.8" font-family="Times,serif" font-size="14.00">PipesModule</text>
</g>
<!-- PipesModule&#45;&gt;ComponentsModule -->
<g id="edge16" class="edge">
<title>PipesModule&#45;&gt;ComponentsModule</title>
<path fill="none" stroke="black" d="M601.99,-122.27C601.99,-140.56 601.99,-166 601.99,-166 601.99,-166 1274.6,-166 1274.6,-166"/>
<polygon fill="black" stroke="black" points="1274.6,-169.5 1284.6,-166 1274.6,-162.5 1274.6,-169.5"/>
</g>
<!-- InfiniteScrollModule -->
<g id="node18" class="node">
<title>InfiniteScrollModule</title>
<polygon fill="#8dd3c7" stroke="black" points="498.2,-122 495.2,-126 474.2,-126 471.2,-122 363.8,-122 363.8,-86 498.2,-86 498.2,-122"/>
<text text-anchor="middle" x="431" y="-99.8" font-family="Times,serif" font-size="14.00">InfiniteScrollModule</text>
</g>
<!-- InfiniteScrollModule&#45;&gt;ComponentsModule -->
<g id="edge17" class="edge">
<title>InfiniteScrollModule&#45;&gt;ComponentsModule</title>
<path fill="none" stroke="black" d="M431,-122.11C431,-141.34 431,-169 431,-169 431,-169 1274.64,-169 1274.64,-169"/>
<polygon fill="black" stroke="black" points="1274.64,-172.5 1284.64,-169 1274.64,-165.5 1274.64,-172.5"/>
</g>
<!-- DiscussionService -->
<g id="node27" class="node">
<title>DiscussionService</title>
<ellipse fill="#fdb462" stroke="black" cx="258" cy="-104" rx="82.24" ry="18"/>
<text text-anchor="middle" x="258" y="-99.8" font-family="Times,serif" font-size="14.00">DiscussionService</text>
</g>
<!-- DiscussionService&#45;&gt;ComponentsModule -->
<g id="edge26" class="edge">
<title>DiscussionService&#45;&gt;ComponentsModule</title>
<path fill="none" stroke="black" d="M258,-122.22C258,-142.37 258,-172 258,-172 258,-172 1274.56,-172 1274.56,-172"/>
<polygon fill="black" stroke="black" points="1274.56,-175.5 1284.56,-172 1274.56,-168.5 1274.56,-175.5"/>
</g>
<!-- ConfigService -->
<g id="node28" class="node">
<title>ConfigService</title>
<ellipse fill="#fdb462" stroke="black" cx="91" cy="-104" rx="66.63" ry="18"/>
<text text-anchor="middle" x="91" y="-99.8" font-family="Times,serif" font-size="14.00">ConfigService</text>
</g>
<!-- ConfigService&#45;&gt;ComponentsModule -->
<g id="edge27" class="edge">
<title>ConfigService&#45;&gt;ComponentsModule</title>
<path fill="none" stroke="black" d="M91,-122.28C91,-143.32 91,-175 91,-175 91,-175 1274.52,-175 1274.52,-175"/>
<polygon fill="black" stroke="black" points="1274.52,-178.5 1284.52,-175 1274.52,-171.5 1274.52,-178.5"/>
</g>
</g>
</svg>
