<?xml version="1.0" encoding="UTF-8" standalone="no"?>
<!DOCTYPE svg PUBLIC "-//W3C//DTD SVG 1.1//EN"
 "http://www.w3.org/Graphics/SVG/1.1/DTD/svg11.dtd">
<!-- Generated by graphviz version 2.47.0 (20210316.0004)
 -->
<!-- Title: dependencies Pages: 1 -->
<svg width="1599pt" height="284pt"
 viewBox="0.00 0.00 1599.00 284.00" xmlns="http://www.w3.org/2000/svg" xmlns:xlink="http://www.w3.org/1999/xlink">
<g id="graph0" class="graph" transform="scale(1 1) rotate(0) translate(4 280)">
<title>dependencies</title>
<polygon fill="white" stroke="transparent" points="-4,4 -4,-280 1595,-280 1595,4 -4,4"/>
<text text-anchor="start" x="774.51" y="-42.4" font-family="sans-serif" font-weight="bold" font-size="14.00">Legend</text>
<polygon fill="#ffffb3" stroke="transparent" points="561.5,-10 561.5,-30 581.5,-30 581.5,-10 561.5,-10"/>
<text text-anchor="start" x="585.13" y="-15.4" font-family="sans-serif" font-size="14.00"> &#160;Declarations</text>
<polygon fill="#8dd3c7" stroke="transparent" points="674.5,-10 674.5,-30 694.5,-30 694.5,-10 674.5,-10"/>
<text text-anchor="start" x="698.23" y="-15.4" font-family="sans-serif" font-size="14.00"> &#160;Module</text>
<polygon fill="#80b1d3" stroke="transparent" points="760.5,-10 760.5,-30 780.5,-30 780.5,-10 760.5,-10"/>
<text text-anchor="start" x="784.28" y="-15.4" font-family="sans-serif" font-size="14.00"> &#160;Bootstrap</text>
<polygon fill="#fdb462" stroke="transparent" points="857.5,-10 857.5,-30 877.5,-30 877.5,-10 857.5,-10"/>
<text text-anchor="start" x="881.17" y="-15.4" font-family="sans-serif" font-size="14.00"> &#160;Providers</text>
<polygon fill="#fb8072" stroke="transparent" points="953.5,-10 953.5,-30 973.5,-30 973.5,-10 953.5,-10"/>
<text text-anchor="start" x="977.23" y="-15.4" font-family="sans-serif" font-size="14.00"> &#160;Exports</text>
<g id="clust1" class="cluster">
<title>cluster_ElementsModule</title>
<polygon fill="none" stroke="black" stroke-dasharray="1,5" points="8,-70 8,-268 1583,-268 1583,-70 8,-70"/>
</g>
<g id="clust2" class="cluster">
<title>cluster_ElementsModule_declarations</title>
<polygon fill="none" stroke="black" points="536,-78 536,-130 1575,-130 1575,-78 536,-78"/>
</g>
<g id="clust9" class="cluster">
<title>cluster_ElementsModule_imports</title>
<polygon fill="none" stroke="black" points="16,-78 16,-130 528,-130 528,-78 16,-78"/>
</g>
<g id="clust10" class="cluster">
<title>cluster_ElementsModule_exports</title>
<polygon fill="none" stroke="black" points="278,-208 278,-260 1339,-260 1339,-208 278,-208"/>
</g>
<!-- PostReplyComponent -->
<g id="node1" class="node">
<title>PostReplyComponent</title>
<polygon fill="#ffffb3" stroke="black" points="1567.39,-122 1428.61,-122 1428.61,-86 1567.39,-86 1567.39,-122"/>
<text text-anchor="middle" x="1498" y="-99.8" font-family="Times,serif" font-size="14.00">PostReplyComponent</text>
</g>
<!-- ElementsModule -->
<g id="node7" class="node">
<title>ElementsModule</title>
<polygon fill="#8dd3c7" stroke="black" points="783.65,-187 780.65,-191 759.65,-191 756.65,-187 672.35,-187 672.35,-151 783.65,-151 783.65,-187"/>
<text text-anchor="middle" x="728" y="-164.8" font-family="Times,serif" font-size="14.00">ElementsModule</text>
</g>
<!-- PostReplyComponent&#45;&gt;ElementsModule -->
<g id="edge1" class="edge">
<title>PostReplyComponent&#45;&gt;ElementsModule</title>
<path fill="none" stroke="black" d="M1498,-122.11C1498,-141.34 1498,-169 1498,-169 1498,-169 793.69,-169 793.69,-169"/>
<polygon fill="black" stroke="black" points="793.69,-165.5 783.69,-169 793.69,-172.5 793.69,-165.5"/>
</g>
<!-- CategoryCardComponent -->
<g id="node2" class="node">
<title>CategoryCardComponent</title>
<polygon fill="#ffffb3" stroke="black" points="1410.86,-122 1251.14,-122 1251.14,-86 1410.86,-86 1410.86,-122"/>
<text text-anchor="middle" x="1331" y="-99.8" font-family="Times,serif" font-size="14.00">CategoryCardComponent</text>
</g>
<!-- CategoryCardComponent&#45;&gt;ElementsModule -->
<g id="edge2" class="edge">
<title>CategoryCardComponent&#45;&gt;ElementsModule</title>
<path fill="none" stroke="black" d="M1290.88,-122.3C1290.88,-140.27 1290.88,-165 1290.88,-165 1290.88,-165 793.77,-165 793.77,-165"/>
<polygon fill="black" stroke="black" points="793.77,-161.5 783.77,-165 793.77,-168.5 793.77,-161.5"/>
</g>
<!-- DiscussCardComponent -->
<g id="node3" class="node">
<title>DiscussCardComponent</title>
<polygon fill="#ffffb3" stroke="black" points="1233.09,-122 1080.91,-122 1080.91,-86 1233.09,-86 1233.09,-122"/>
<text text-anchor="middle" x="1157" y="-99.8" font-family="Times,serif" font-size="14.00">DiscussCardComponent</text>
</g>
<!-- DiscussCardComponent&#45;&gt;ElementsModule -->
<g id="edge3" class="edge">
<title>DiscussCardComponent&#45;&gt;ElementsModule</title>
<path fill="none" stroke="black" d="M1115.38,-122.03C1115.38,-138.4 1115.38,-160 1115.38,-160 1115.38,-160 793.91,-160 793.91,-160"/>
<polygon fill="black" stroke="black" points="793.91,-156.5 783.91,-160 793.91,-163.5 793.91,-156.5"/>
</g>
<!-- AvatarPhotoComponent -->
<g id="node4" class="node">
<title>AvatarPhotoComponent</title>
<polygon fill="#ffffb3" stroke="black" points="1063.09,-122 910.91,-122 910.91,-86 1063.09,-86 1063.09,-122"/>
<text text-anchor="middle" x="987" y="-99.8" font-family="Times,serif" font-size="14.00">AvatarPhotoComponent</text>
</g>
<!-- AvatarPhotoComponent&#45;&gt;ElementsModule -->
<g id="edge4" class="edge">
<title>AvatarPhotoComponent&#45;&gt;ElementsModule</title>
<path fill="none" stroke="black" d="M943.38,-122.19C943.38,-137.18 943.38,-156 943.38,-156 943.38,-156 793.74,-156 793.74,-156"/>
<polygon fill="black" stroke="black" points="793.74,-152.5 783.74,-156 793.74,-159.5 793.74,-152.5"/>
</g>
<!-- AppLoaderComponent -->
<g id="node5" class="node">
<title>AppLoaderComponent</title>
<polygon fill="#ffffb3" stroke="black" points="892.58,-122 747.42,-122 747.42,-86 892.58,-86 892.58,-122"/>
<text text-anchor="middle" x="820" y="-99.8" font-family="Times,serif" font-size="14.00">AppLoaderComponent</text>
</g>
<!-- AppLoaderComponent&#45;&gt;ElementsModule -->
<g id="edge5" class="edge">
<title>AppLoaderComponent&#45;&gt;ElementsModule</title>
<path fill="none" stroke="black" d="M765.64,-122.11C765.64,-122.11 765.64,-140.99 765.64,-140.99"/>
<polygon fill="black" stroke="black" points="762.14,-140.99 765.64,-150.99 769.14,-140.99 762.14,-140.99"/>
</g>
<!-- RelatedDiscussionComponent -->
<g id="node6" class="node">
<title>RelatedDiscussionComponent</title>
<polygon fill="#ffffb3" stroke="black" points="729.53,-122 544.47,-122 544.47,-86 729.53,-86 729.53,-122"/>
<text text-anchor="middle" x="637" y="-99.8" font-family="Times,serif" font-size="14.00">RelatedDiscussionComponent</text>
</g>
<!-- RelatedDiscussionComponent&#45;&gt;ElementsModule -->
<g id="edge6" class="edge">
<title>RelatedDiscussionComponent&#45;&gt;ElementsModule</title>
<path fill="none" stroke="black" d="M700.97,-122.11C700.97,-122.11 700.97,-140.99 700.97,-140.99"/>
<polygon fill="black" stroke="black" points="697.47,-140.99 700.97,-150.99 704.47,-140.99 697.47,-140.99"/>
</g>
<!-- CategoryCardComponent  -->
<g id="node12" class="node">
<title>CategoryCardComponent </title>
<polygon fill="#fb8072" stroke="black" points="1330.86,-252 1167.14,-252 1167.14,-216 1330.86,-216 1330.86,-252"/>
<text text-anchor="middle" x="1249" y="-229.8" font-family="Times,serif" font-size="14.00">CategoryCardComponent </text>
</g>
<!-- ElementsModule&#45;&gt;CategoryCardComponent  -->
<g id="edge11" class="edge">
<title>ElementsModule&#45;&gt;CategoryCardComponent </title>
<path fill="none" stroke="black" stroke-dasharray="5,2" d="M784.02,-174C909.1,-174 1200.18,-174 1200.18,-174 1200.18,-174 1200.18,-206 1200.18,-206"/>
<polygon fill="black" stroke="black" points="1196.68,-206 1200.18,-216 1203.68,-206 1196.68,-206"/>
</g>
<!-- DiscussCardComponent  -->
<g id="node13" class="node">
<title>DiscussCardComponent </title>
<polygon fill="#fb8072" stroke="black" points="1149.59,-252 994.41,-252 994.41,-216 1149.59,-216 1149.59,-252"/>
<text text-anchor="middle" x="1072" y="-229.8" font-family="Times,serif" font-size="14.00">DiscussCardComponent </text>
</g>
<!-- ElementsModule&#45;&gt;DiscussCardComponent  -->
<g id="edge12" class="edge">
<title>ElementsModule&#45;&gt;DiscussCardComponent </title>
<path fill="none" stroke="black" stroke-dasharray="5,2" d="M783.84,-178C870.78,-178 1028.63,-178 1028.63,-178 1028.63,-178 1028.63,-205.97 1028.63,-205.97"/>
<polygon fill="black" stroke="black" points="1025.13,-205.97 1028.63,-215.97 1032.13,-205.97 1025.13,-205.97"/>
</g>
<!-- AvatarPhotoComponent  -->
<g id="node14" class="node">
<title>AvatarPhotoComponent </title>
<polygon fill="#fb8072" stroke="black" points="975.59,-252 820.41,-252 820.41,-216 975.59,-216 975.59,-252"/>
<text text-anchor="middle" x="898" y="-229.8" font-family="Times,serif" font-size="14.00">AvatarPhotoComponent </text>
</g>
<!-- ElementsModule&#45;&gt;AvatarPhotoComponent  -->
<g id="edge13" class="edge">
<title>ElementsModule&#45;&gt;AvatarPhotoComponent </title>
<path fill="none" stroke="black" stroke-dasharray="5,2" d="M783.93,-183C818.53,-183 856.37,-183 856.37,-183 856.37,-183 856.37,-205.88 856.37,-205.88"/>
<polygon fill="black" stroke="black" points="852.87,-205.88 856.37,-215.88 859.87,-205.88 852.87,-205.88"/>
</g>
<!-- AppLoaderComponent  -->
<g id="node15" class="node">
<title>AppLoaderComponent </title>
<polygon fill="#fb8072" stroke="black" points="802.08,-252 653.92,-252 653.92,-216 802.08,-216 802.08,-252"/>
<text text-anchor="middle" x="728" y="-229.8" font-family="Times,serif" font-size="14.00">AppLoaderComponent </text>
</g>
<!-- ElementsModule&#45;&gt;AppLoaderComponent  -->
<g id="edge14" class="edge">
<title>ElementsModule&#45;&gt;AppLoaderComponent </title>
<path fill="none" stroke="black" stroke-dasharray="5,2" d="M746.61,-187.11C746.61,-187.11 746.61,-205.99 746.61,-205.99"/>
<polygon fill="black" stroke="black" points="743.11,-205.99 746.61,-215.99 750.11,-205.99 743.11,-205.99"/>
</g>
<!-- ElementsModule&#45;&gt;AppLoaderComponent  -->
<g id="edge16" class="edge">
<title>ElementsModule&#45;&gt;AppLoaderComponent </title>
<path fill="none" stroke="black" stroke-dasharray="5,2" d="M709.39,-187.11C709.39,-187.11 709.39,-205.99 709.39,-205.99"/>
<polygon fill="black" stroke="black" points="705.89,-205.99 709.39,-215.99 712.89,-205.99 705.89,-205.99"/>
</g>
<!-- RelatedDiscussionComponent  -->
<g id="node16" class="node">
<title>RelatedDiscussionComponent </title>
<polygon fill="#fb8072" stroke="black" points="635.53,-252 446.47,-252 446.47,-216 635.53,-216 635.53,-252"/>
<text text-anchor="middle" x="541" y="-229.8" font-family="Times,serif" font-size="14.00">RelatedDiscussionComponent </text>
</g>
<!-- ElementsModule&#45;&gt;RelatedDiscussionComponent  -->
<g id="edge15" class="edge">
<title>ElementsModule&#45;&gt;RelatedDiscussionComponent </title>
<path fill="none" stroke="black" stroke-dasharray="5,2" d="M672.22,-182C633.88,-182 589.88,-182 589.88,-182 589.88,-182 589.88,-205.81 589.88,-205.81"/>
<polygon fill="black" stroke="black" points="586.38,-205.81 589.88,-215.81 593.38,-205.81 586.38,-205.81"/>
</g>
<!-- PostReplyComponent  -->
<g id="node17" class="node">
<title>PostReplyComponent </title>
<polygon fill="#fb8072" stroke="black" points="428.39,-252 285.61,-252 285.61,-216 428.39,-216 428.39,-252"/>
<text text-anchor="middle" x="357" y="-229.8" font-family="Times,serif" font-size="14.00">PostReplyComponent </text>
</g>
<!-- ElementsModule&#45;&gt;PostReplyComponent  -->
<g id="edge17" class="edge">
<title>ElementsModule&#45;&gt;PostReplyComponent </title>
<path fill="none" stroke="black" stroke-dasharray="5,2" d="M672.25,-177C583.05,-177 418.18,-177 418.18,-177 418.18,-177 418.18,-205.96 418.18,-205.96"/>
<polygon fill="black" stroke="black" points="414.68,-205.96 418.18,-215.96 421.68,-205.96 414.68,-205.96"/>
</g>
<!-- CommonModule -->
<g id="node8" class="node">
<title>CommonModule</title>
<polygon fill="#8dd3c7" stroke="black" points="519.67,-122 516.67,-126 495.67,-126 492.67,-122 408.33,-122 408.33,-86 519.67,-86 519.67,-122"/>
<text text-anchor="middle" x="464" y="-99.8" font-family="Times,serif" font-size="14.00">CommonModule</text>
</g>
<!-- CommonModule&#45;&gt;ElementsModule -->
<g id="edge7" class="edge">
<title>CommonModule&#45;&gt;ElementsModule</title>
<path fill="none" stroke="black" d="M483.16,-122.24C483.16,-137.57 483.16,-157 483.16,-157 483.16,-157 662.14,-157 662.14,-157"/>
<polygon fill="black" stroke="black" points="662.14,-160.5 672.14,-157 662.14,-153.5 662.14,-160.5"/>
</g>
<!-- PipesModule -->
<g id="node9" class="node">
<title>PipesModule</title>
<polygon fill="#8dd3c7" stroke="black" points="389.88,-122 386.88,-126 365.88,-126 362.88,-122 300.12,-122 300.12,-86 389.88,-86 389.88,-122"/>
<text text-anchor="middle" x="345" y="-99.8" font-family="Times,serif" font-size="14.00">PipesModule</text>
</g>
<!-- PipesModule&#45;&gt;ElementsModule -->
<g id="edge8" class="edge">
<title>PipesModule&#45;&gt;ElementsModule</title>
<path fill="none" stroke="black" d="M345,-122.03C345,-139.06 345,-162 345,-162 345,-162 662.31,-162 662.31,-162"/>
<polygon fill="black" stroke="black" points="662.31,-165.5 672.31,-162 662.31,-158.5 662.31,-165.5"/>
</g>
<!-- FormsModule -->
<g id="node10" class="node">
<title>FormsModule</title>
<polygon fill="#8dd3c7" stroke="black" points="281.83,-122 278.83,-126 257.83,-126 254.83,-122 186.17,-122 186.17,-86 281.83,-86 281.83,-122"/>
<text text-anchor="middle" x="234" y="-99.8" font-family="Times,serif" font-size="14.00">FormsModule</text>
</g>
<!-- FormsModule&#45;&gt;ElementsModule -->
<g id="edge9" class="edge">
<title>FormsModule&#45;&gt;ElementsModule</title>
<path fill="none" stroke="black" d="M234,-122.22C234,-140.83 234,-167 234,-167 234,-167 662.29,-167 662.29,-167"/>
<polygon fill="black" stroke="black" points="662.29,-170.5 672.29,-167 662.29,-163.5 662.29,-170.5"/>
</g>
<!-- ReactiveFormsModule -->
<g id="node11" class="node">
<title>ReactiveFormsModule</title>
<polygon fill="#8dd3c7" stroke="black" points="168.3,-122 165.3,-126 144.3,-126 141.3,-122 23.7,-122 23.7,-86 168.3,-86 168.3,-122"/>
<text text-anchor="middle" x="96" y="-99.8" font-family="Times,serif" font-size="14.00">ReactiveFormsModule</text>
</g>
<!-- ReactiveFormsModule&#45;&gt;ElementsModule -->
<g id="edge10" class="edge">
<title>ReactiveFormsModule&#45;&gt;ElementsModule</title>
<path fill="none" stroke="black" d="M96,-122.22C96,-142.37 96,-172 96,-172 96,-172 662.19,-172 662.19,-172"/>
<polygon fill="black" stroke="black" points="662.19,-175.5 672.19,-172 662.19,-168.5 662.19,-175.5"/>
</g>
</g>
</svg>
