<?xml version="1.0" encoding="UTF-8" standalone="no"?>
<!DOCTYPE svg PUBLIC "-//W3C//DTD SVG 1.1//EN"
 "http://www.w3.org/Graphics/SVG/1.1/DTD/svg11.dtd">
<!-- Generated by graphviz version 2.47.0 (20210316.0004)
 -->
<!-- Title: dependencies Pages: 1 -->
<svg width="5667pt" height="496pt"
 viewBox="0.00 0.00 5667.00 496.00" xmlns="http://www.w3.org/2000/svg" xmlns:xlink="http://www.w3.org/1999/xlink">
<g id="graph0" class="graph" transform="scale(1 1) rotate(0) translate(4 492)">
<title>dependencies</title>
<polygon fill="white" stroke="transparent" points="-4,4 -4,-492 5663,-492 5663,4 -4,4"/>
<text text-anchor="start" x="2808.51" y="-42.4" font-family="sans-serif" font-weight="bold" font-size="14.00">Legend</text>
<polygon fill="#ffffb3" stroke="transparent" points="2595.5,-10 2595.5,-30 2615.5,-30 2615.5,-10 2595.5,-10"/>
<text text-anchor="start" x="2619.13" y="-15.4" font-family="sans-serif" font-size="14.00"> &#160;Declarations</text>
<polygon fill="#8dd3c7" stroke="transparent" points="2708.5,-10 2708.5,-30 2728.5,-30 2728.5,-10 2708.5,-10"/>
<text text-anchor="start" x="2732.23" y="-15.4" font-family="sans-serif" font-size="14.00"> &#160;Module</text>
<polygon fill="#80b1d3" stroke="transparent" points="2794.5,-10 2794.5,-30 2814.5,-30 2814.5,-10 2794.5,-10"/>
<text text-anchor="start" x="2818.28" y="-15.4" font-family="sans-serif" font-size="14.00"> &#160;Bootstrap</text>
<polygon fill="#fdb462" stroke="transparent" points="2891.5,-10 2891.5,-30 2911.5,-30 2911.5,-10 2891.5,-10"/>
<text text-anchor="start" x="2915.17" y="-15.4" font-family="sans-serif" font-size="14.00"> &#160;Providers</text>
<polygon fill="#fb8072" stroke="transparent" points="2987.5,-10 2987.5,-30 3007.5,-30 3007.5,-10 2987.5,-10"/>
<text text-anchor="start" x="3011.23" y="-15.4" font-family="sans-serif" font-size="14.00"> &#160;Exports</text>
<g id="clust1" class="cluster">
<title>cluster_ComponentsModule</title>
<polygon fill="none" stroke="black" stroke-dasharray="1,5" points="1301,-70 1301,-412 3519,-412 3519,-70 1301,-70"/>
</g>
<g id="clust2" class="cluster">
<title>cluster_ComponentsModule_declarations</title>
<polygon fill="none" stroke="black" points="2059,-208 2059,-260 3511,-260 3511,-208 2059,-208"/>
</g>
<g id="clust11" class="cluster">
<title>cluster_ComponentsModule_imports</title>
<polygon fill="none" stroke="black" points="1649,-78 1649,-260 2051,-260 2051,-78 1649,-78"/>
</g>
<g id="clust12" class="cluster">
<title>cluster_ComponentsModule_exports</title>
<polygon fill="none" stroke="black" points="1356,-352 1356,-404 2836,-404 2836,-352 1356,-352"/>
</g>
<g id="clust14" class="cluster">
<title>cluster_ComponentsModule_providers</title>
<polygon fill="none" stroke="black" points="1309,-208 1309,-260 1641,-260 1641,-208 1309,-208"/>
</g>
<g id="clust15" class="cluster">
<title>cluster_DiscussionUiModule</title>
<polygon fill="none" stroke="black" stroke-dasharray="1,5" points="8,-276 8,-480 1293,-480 1293,-276 8,-276"/>
</g>
<g id="clust16" class="cluster">
<title>cluster_DiscussionUiModule_declarations</title>
<polygon fill="none" stroke="black" points="1137,-284 1137,-336 1285,-336 1285,-284 1137,-284"/>
</g>
<g id="clust18" class="cluster">
<title>cluster_DiscussionUiModule_imports</title>
<polygon fill="none" stroke="black" points="947,-284 947,-336 1129,-336 1129,-284 947,-284"/>
</g>
<g id="clust19" class="cluster">
<title>cluster_DiscussionUiModule_exports</title>
<polygon fill="none" stroke="black" points="963,-420 963,-472 1113,-472 1113,-420 963,-420"/>
</g>
<g id="clust21" class="cluster">
<title>cluster_DiscussionUiModule_providers</title>
<polygon fill="none" stroke="black" points="16,-284 16,-336 939,-336 939,-284 16,-284"/>
</g>
<g id="clust22" class="cluster">
<title>cluster_ElementsModule</title>
<polygon fill="none" stroke="black" stroke-dasharray="1,5" points="3527,-276 3527,-344 5651,-344 5651,-276 3527,-276"/>
</g>
<g id="clust23" class="cluster">
<title>cluster_ElementsModule_declarations</title>
<polygon fill="none" stroke="black" points="4604,-284 4604,-336 5643,-336 5643,-284 4604,-284"/>
</g>
<g id="clust31" class="cluster">
<title>cluster_ElementsModule_exports</title>
<polygon fill="none" stroke="black" points="3535,-284 3535,-336 4596,-336 4596,-284 3535,-284"/>
</g>
<g id="clust34" class="cluster">
<title>cluster_PipesModule</title>
<polygon fill="none" stroke="black" stroke-dasharray="1,5" points="3527,-200 3527,-268 4555,-268 4555,-200 3527,-200"/>
</g>
<g id="clust35" class="cluster">
<title>cluster_PipesModule_declarations</title>
<polygon fill="none" stroke="black" points="4053,-208 4053,-260 4547,-260 4547,-208 4053,-208"/>
</g>
<g id="clust41" class="cluster">
<title>cluster_PipesModule_exports</title>
<polygon fill="none" stroke="black" points="3535,-208 3535,-260 4045,-260 4045,-208 3535,-208"/>
</g>
<!-- SidePannelComponent -->
<g id="node1" class="node">
<title>SidePannelComponent</title>
<polygon fill="#ffffb3" stroke="black" points="3133.32,-252 2988.68,-252 2988.68,-216 3133.32,-216 3133.32,-252"/>
<text text-anchor="middle" x="3061" y="-229.8" font-family="Times,serif" font-size="14.00">SidePannelComponent</text>
</g>
<!-- ComponentsModule -->
<g id="node9" class="node">
<title>ComponentsModule</title>
<polygon fill="#8dd3c7" stroke="black" points="2103.33,-328 2100.33,-332 2079.33,-332 2076.33,-328 1972.67,-328 1972.67,-292 2103.33,-292 2103.33,-328"/>
<text text-anchor="middle" x="2038" y="-305.8" font-family="Times,serif" font-size="14.00">ComponentsModule</text>
</g>
<!-- SidePannelComponent&#45;&gt;ComponentsModule -->
<g id="edge1" class="edge">
<title>SidePannelComponent&#45;&gt;ComponentsModule</title>
<path fill="none" stroke="black" d="M3061,-252.16C3061,-274.35 3061,-309 3061,-309 3061,-309 2113.55,-309 2113.55,-309"/>
<polygon fill="black" stroke="black" points="2113.55,-305.5 2103.55,-309 2113.55,-312.5 2113.55,-305.5"/>
</g>
<!-- DiscussHomeComponent -->
<g id="node2" class="node">
<title>DiscussHomeComponent</title>
<polygon fill="#ffffb3" stroke="black" points="2970.59,-252 2811.41,-252 2811.41,-216 2970.59,-216 2970.59,-252"/>
<text text-anchor="middle" x="2891" y="-229.8" font-family="Times,serif" font-size="14.00">DiscussHomeComponent</text>
</g>
<!-- DiscussHomeComponent&#45;&gt;ComponentsModule -->
<g id="edge2" class="edge">
<title>DiscussHomeComponent&#45;&gt;ComponentsModule</title>
<path fill="none" stroke="black" d="M2819.71,-252.17C2819.71,-273.5 2819.71,-306 2819.71,-306 2819.71,-306 2113.3,-306 2113.3,-306"/>
<polygon fill="black" stroke="black" points="2113.3,-302.5 2103.3,-306 2113.3,-309.5 2113.3,-302.5"/>
</g>
<!-- DiscussCategoryComponent -->
<g id="node3" class="node">
<title>DiscussCategoryComponent</title>
<polygon fill="#ffffb3" stroke="black" points="2793.2,-252 2616.8,-252 2616.8,-216 2793.2,-216 2793.2,-252"/>
<text text-anchor="middle" x="2705" y="-229.8" font-family="Times,serif" font-size="14.00">DiscussCategoryComponent</text>
</g>
<!-- DiscussCategoryComponent&#45;&gt;ComponentsModule -->
<g id="edge3" class="edge">
<title>DiscussCategoryComponent&#45;&gt;ComponentsModule</title>
<path fill="none" stroke="black" d="M2620.66,-252.22C2620.66,-272.37 2620.66,-302 2620.66,-302 2620.66,-302 2113.42,-302 2113.42,-302"/>
<polygon fill="black" stroke="black" points="2113.42,-298.5 2103.42,-302 2113.42,-305.5 2113.42,-298.5"/>
</g>
<!-- DiscussTagsComponent -->
<g id="node4" class="node">
<title>DiscussTagsComponent</title>
<polygon fill="#ffffb3" stroke="black" points="2599.09,-252 2446.91,-252 2446.91,-216 2599.09,-216 2599.09,-252"/>
<text text-anchor="middle" x="2523" y="-229.8" font-family="Times,serif" font-size="14.00">DiscussTagsComponent</text>
</g>
<!-- DiscussTagsComponent&#45;&gt;ComponentsModule -->
<g id="edge4" class="edge">
<title>DiscussTagsComponent&#45;&gt;ComponentsModule</title>
<path fill="none" stroke="black" d="M2460.78,-252.11C2460.78,-271.34 2460.78,-299 2460.78,-299 2460.78,-299 2113.59,-299 2113.59,-299"/>
<polygon fill="black" stroke="black" points="2113.6,-295.5 2103.59,-299 2113.59,-302.5 2113.6,-295.5"/>
</g>
<!-- MyDiscussionComponent -->
<g id="node5" class="node">
<title>MyDiscussionComponent</title>
<polygon fill="#ffffb3" stroke="black" points="2429.21,-252 2266.79,-252 2266.79,-216 2429.21,-216 2429.21,-252"/>
<text text-anchor="middle" x="2348" y="-229.8" font-family="Times,serif" font-size="14.00">MyDiscussionComponent</text>
</g>
<!-- MyDiscussionComponent&#45;&gt;ComponentsModule -->
<g id="edge5" class="edge">
<title>MyDiscussionComponent&#45;&gt;ComponentsModule</title>
<path fill="none" stroke="black" d="M2375.04,-252.27C2375.04,-270.56 2375.04,-296 2375.04,-296 2375.04,-296 2113.38,-296 2113.38,-296"/>
<polygon fill="black" stroke="black" points="2113.38,-292.5 2103.38,-296 2113.38,-299.5 2113.38,-292.5"/>
</g>
<!-- DiscussionDetailsComponent -->
<g id="node6" class="node">
<title>DiscussionDetailsComponent</title>
<polygon fill="#ffffb3" stroke="black" points="2249.42,-252 2066.58,-252 2066.58,-216 2249.42,-216 2249.42,-252"/>
<text text-anchor="middle" x="2158" y="-229.8" font-family="Times,serif" font-size="14.00">DiscussionDetailsComponent</text>
</g>
<!-- DiscussionDetailsComponent&#45;&gt;ComponentsModule -->
<g id="edge6" class="edge">
<title>DiscussionDetailsComponent&#45;&gt;ComponentsModule</title>
<path fill="none" stroke="black" d="M2084.98,-252.01C2084.98,-252.01 2084.98,-281.85 2084.98,-281.85"/>
<polygon fill="black" stroke="black" points="2081.48,-281.85 2084.98,-291.85 2088.48,-281.85 2081.48,-281.85"/>
</g>
<!-- DiscussStartComponent -->
<g id="node7" class="node">
<title>DiscussStartComponent</title>
<polygon fill="#ffffb3" stroke="black" points="3502.82,-252 3351.18,-252 3351.18,-216 3502.82,-216 3502.82,-252"/>
<text text-anchor="middle" x="3427" y="-229.8" font-family="Times,serif" font-size="14.00">DiscussStartComponent</text>
</g>
<!-- DiscussStartComponent&#45;&gt;ComponentsModule -->
<g id="edge7" class="edge">
<title>DiscussStartComponent&#45;&gt;ComponentsModule</title>
<path fill="none" stroke="black" d="M3427,-252.38C3427,-276.28 3427,-315 3427,-315 3427,-315 2113.59,-315 2113.59,-315"/>
<polygon fill="black" stroke="black" points="2113.59,-311.5 2103.59,-315 2113.59,-318.5 2113.59,-311.5"/>
</g>
<!-- TagAllDiscussionComponent -->
<g id="node8" class="node">
<title>TagAllDiscussionComponent</title>
<polygon fill="#ffffb3" stroke="black" points="3333.42,-252 3150.58,-252 3150.58,-216 3333.42,-216 3333.42,-252"/>
<text text-anchor="middle" x="3242" y="-229.8" font-family="Times,serif" font-size="14.00">TagAllDiscussionComponent</text>
</g>
<!-- TagAllDiscussionComponent&#45;&gt;ComponentsModule -->
<g id="edge8" class="edge">
<title>TagAllDiscussionComponent&#45;&gt;ComponentsModule</title>
<path fill="none" stroke="black" d="M3242,-252.09C3242,-275.13 3242,-312 3242,-312 3242,-312 2113.59,-312 2113.59,-312"/>
<polygon fill="black" stroke="black" points="2113.59,-308.5 2103.59,-312 2113.59,-315.5 2113.59,-308.5"/>
</g>
<!-- SidePannelComponent  -->
<g id="node17" class="node">
<title>SidePannelComponent </title>
<polygon fill="#fb8072" stroke="black" points="2247.82,-396 2100.18,-396 2100.18,-360 2247.82,-360 2247.82,-396"/>
<text text-anchor="middle" x="2174" y="-373.8" font-family="Times,serif" font-size="14.00">SidePannelComponent </text>
</g>
<!-- ComponentsModule&#45;&gt;SidePannelComponent  -->
<g id="edge16" class="edge">
<title>ComponentsModule&#45;&gt;SidePannelComponent </title>
<path fill="none" stroke="black" stroke-dasharray="5,2" d="M2091.19,-328.22C2091.19,-348.37 2091.19,-378 2091.19,-378 2091.19,-378 2092.08,-378 2092.08,-378"/>
<polygon fill="black" stroke="black" points="2090.05,-381.5 2100.05,-378 2090.05,-374.5 2090.05,-381.5"/>
</g>
<!-- DiscussHomeComponent  -->
<g id="node18" class="node">
<title>DiscussHomeComponent </title>
<polygon fill="#fb8072" stroke="black" points="2082.09,-396 1919.91,-396 1919.91,-360 2082.09,-360 2082.09,-396"/>
<text text-anchor="middle" x="2001" y="-373.8" font-family="Times,serif" font-size="14.00">DiscussHomeComponent </text>
</g>
<!-- ComponentsModule&#45;&gt;DiscussHomeComponent  -->
<g id="edge17" class="edge">
<title>ComponentsModule&#45;&gt;DiscussHomeComponent </title>
<path fill="none" stroke="black" stroke-dasharray="5,2" d="M2027.57,-328.22C2027.57,-328.22 2027.57,-349.73 2027.57,-349.73"/>
<polygon fill="black" stroke="black" points="2024.07,-349.73 2027.57,-359.73 2031.07,-349.73 2024.07,-349.73"/>
</g>
<!-- DiscussCategoryComponent  -->
<g id="node19" class="node">
<title>DiscussCategoryComponent </title>
<polygon fill="#fb8072" stroke="black" points="1901.7,-396 1722.3,-396 1722.3,-360 1901.7,-360 1901.7,-396"/>
<text text-anchor="middle" x="1812" y="-373.8" font-family="Times,serif" font-size="14.00">DiscussCategoryComponent </text>
</g>
<!-- ComponentsModule&#45;&gt;DiscussCategoryComponent  -->
<g id="edge18" class="edge">
<title>ComponentsModule&#45;&gt;DiscussCategoryComponent </title>
<path fill="none" stroke="black" stroke-dasharray="5,2" d="M1972.57,-325C1934.37,-325 1893.62,-325 1893.62,-325 1893.62,-325 1893.62,-349.76 1893.62,-349.76"/>
<polygon fill="black" stroke="black" points="1890.12,-349.76 1893.62,-359.76 1897.12,-349.76 1890.12,-349.76"/>
</g>
<!-- DiscussTagsComponent  -->
<g id="node20" class="node">
<title>DiscussTagsComponent </title>
<polygon fill="#fb8072" stroke="black" points="1703.59,-396 1548.41,-396 1548.41,-360 1703.59,-360 1703.59,-396"/>
<text text-anchor="middle" x="1626" y="-373.8" font-family="Times,serif" font-size="14.00">DiscussTagsComponent </text>
</g>
<!-- ComponentsModule&#45;&gt;DiscussTagsComponent  -->
<g id="edge19" class="edge">
<title>ComponentsModule&#45;&gt;DiscussTagsComponent </title>
<path fill="none" stroke="black" stroke-dasharray="5,2" d="M1972.44,-321C1869.25,-321 1680.57,-321 1680.57,-321 1680.57,-321 1680.57,-349.96 1680.57,-349.96"/>
<polygon fill="black" stroke="black" points="1677.07,-349.96 1680.57,-359.96 1684.07,-349.96 1677.07,-349.96"/>
</g>
<!-- MyDiscussionComponent  -->
<g id="node21" class="node">
<title>MyDiscussionComponent </title>
<polygon fill="#fb8072" stroke="black" points="1529.71,-396 1364.29,-396 1364.29,-360 1529.71,-360 1529.71,-396"/>
<text text-anchor="middle" x="1447" y="-373.8" font-family="Times,serif" font-size="14.00">MyDiscussionComponent </text>
</g>
<!-- ComponentsModule&#45;&gt;MyDiscussionComponent  -->
<g id="edge20" class="edge">
<title>ComponentsModule&#45;&gt;MyDiscussionComponent </title>
<path fill="none" stroke="black" stroke-dasharray="5,2" d="M1972.75,-318C1829.31,-318 1499.24,-318 1499.24,-318 1499.24,-318 1499.24,-350 1499.24,-350"/>
<polygon fill="black" stroke="black" points="1495.74,-350 1499.24,-360 1502.74,-350 1495.74,-350"/>
</g>
<!-- DiscussionDetailsComponent  -->
<g id="node22" class="node">
<title>DiscussionDetailsComponent </title>
<polygon fill="#fb8072" stroke="black" points="2827.92,-396 2642.08,-396 2642.08,-360 2827.92,-360 2827.92,-396"/>
<text text-anchor="middle" x="2735" y="-373.8" font-family="Times,serif" font-size="14.00">DiscussionDetailsComponent </text>
</g>
<!-- ComponentsModule&#45;&gt;DiscussionDetailsComponent  -->
<g id="edge21" class="edge">
<title>ComponentsModule&#45;&gt;DiscussionDetailsComponent </title>
<path fill="none" stroke="black" stroke-dasharray="5,2" d="M2103.47,-319C2273.79,-319 2717.57,-319 2717.57,-319 2717.57,-319 2717.57,-349.98 2717.57,-349.98"/>
<polygon fill="black" stroke="black" points="2714.07,-349.98 2717.57,-359.98 2721.07,-349.98 2714.07,-349.98"/>
</g>
<!-- DiscussStartComponent  -->
<g id="node23" class="node">
<title>DiscussStartComponent </title>
<polygon fill="#fb8072" stroke="black" points="2624.32,-396 2469.68,-396 2469.68,-360 2624.32,-360 2624.32,-396"/>
<text text-anchor="middle" x="2547" y="-373.8" font-family="Times,serif" font-size="14.00">DiscussStartComponent </text>
</g>
<!-- ComponentsModule&#45;&gt;DiscussStartComponent  -->
<g id="edge22" class="edge">
<title>ComponentsModule&#45;&gt;DiscussStartComponent </title>
<path fill="none" stroke="black" stroke-dasharray="5,2" d="M2103.4,-322C2238.17,-322 2534.32,-322 2534.32,-322 2534.32,-322 2534.32,-349.97 2534.32,-349.97"/>
<polygon fill="black" stroke="black" points="2530.82,-349.97 2534.32,-359.97 2537.82,-349.97 2530.82,-349.97"/>
</g>
<!-- TagAllDiscussionComponent  -->
<g id="node24" class="node">
<title>TagAllDiscussionComponent </title>
<polygon fill="#fb8072" stroke="black" points="2451.92,-396 2266.08,-396 2266.08,-360 2451.92,-360 2451.92,-396"/>
<text text-anchor="middle" x="2359" y="-373.8" font-family="Times,serif" font-size="14.00">TagAllDiscussionComponent </text>
</g>
<!-- ComponentsModule&#45;&gt;TagAllDiscussionComponent  -->
<g id="edge23" class="edge">
<title>ComponentsModule&#45;&gt;TagAllDiscussionComponent </title>
<path fill="none" stroke="black" stroke-dasharray="5,2" d="M2103.27,-325C2186.84,-325 2320.96,-325 2320.96,-325 2320.96,-325 2320.96,-349.76 2320.96,-349.76"/>
<polygon fill="black" stroke="black" points="2317.46,-349.76 2320.96,-359.76 2324.46,-349.76 2317.46,-349.76"/>
</g>
<!-- DiscussionUiModule -->
<g id="node28" class="node">
<title>DiscussionUiModule</title>
<polygon fill="#8dd3c7" stroke="black" points="1105.48,-396 1102.48,-400 1081.48,-400 1078.48,-396 970.52,-396 970.52,-360 1105.48,-360 1105.48,-396"/>
<text text-anchor="middle" x="1038" y="-373.8" font-family="Times,serif" font-size="14.00">DiscussionUiModule</text>
</g>
<!-- ComponentsModule&#45;&gt;DiscussionUiModule -->
<g id="edge27" class="edge">
<title>ComponentsModule&#45;&gt;DiscussionUiModule</title>
<path fill="none" stroke="black" d="M1972.71,-314C1799.36,-314 1340.66,-314 1340.66,-314 1340.66,-314 1340.66,-384 1340.66,-384 1340.66,-384 1115.55,-384 1115.55,-384"/>
<polygon fill="black" stroke="black" points="1115.55,-380.5 1105.55,-384 1115.55,-387.5 1115.55,-380.5"/>
</g>
<!-- CommonModule -->
<g id="node10" class="node">
<title>CommonModule</title>
<polygon fill="#8dd3c7" stroke="black" points="1777.67,-122 1774.67,-126 1753.67,-126 1750.67,-122 1666.33,-122 1666.33,-86 1777.67,-86 1777.67,-122"/>
<text text-anchor="middle" x="1722" y="-99.8" font-family="Times,serif" font-size="14.00">CommonModule</text>
</g>
<!-- CommonModule&#45;&gt;ComponentsModule -->
<g id="edge9" class="edge">
<title>CommonModule&#45;&gt;ComponentsModule</title>
<path fill="none" stroke="black" d="M1757.21,-122.09C1757.21,-170.61 1757.21,-300 1757.21,-300 1757.21,-300 1962.52,-300 1962.52,-300"/>
<polygon fill="black" stroke="black" points="1962.52,-303.5 1972.52,-300 1962.52,-296.5 1962.52,-303.5"/>
</g>
<!-- ElementsModule -->
<g id="node12" class="node">
<title>ElementsModule</title>
<polygon fill="#8dd3c7" stroke="black" points="1988.65,-252 1985.65,-256 1964.65,-256 1961.65,-252 1877.35,-252 1877.35,-216 1988.65,-216 1988.65,-252"/>
<text text-anchor="middle" x="1933" y="-229.8" font-family="Times,serif" font-size="14.00">ElementsModule</text>
</g>
<!-- CommonModule&#45;&gt;ElementsModule -->
<g id="edge40" class="edge">
<title>CommonModule&#45;&gt;ElementsModule</title>
<path fill="none" stroke="black" d="M1766.3,-122.03C1766.3,-156.42 1766.3,-228 1766.3,-228 1766.3,-228 1867.03,-228 1867.03,-228"/>
<polygon fill="black" stroke="black" points="1867.03,-231.5 1877.03,-228 1867.03,-224.5 1867.03,-231.5"/>
</g>
<!-- PipesModule -->
<g id="node16" class="node">
<title>PipesModule</title>
<polygon fill="#8dd3c7" stroke="black" points="2042.88,-187 2039.88,-191 2018.88,-191 2015.88,-187 1953.12,-187 1953.12,-151 2042.88,-151 2042.88,-187"/>
<text text-anchor="middle" x="1998" y="-164.8" font-family="Times,serif" font-size="14.00">PipesModule</text>
</g>
<!-- CommonModule&#45;&gt;PipesModule -->
<g id="edge55" class="edge">
<title>CommonModule&#45;&gt;PipesModule</title>
<path fill="none" stroke="black" d="M1761.76,-122.11C1761.76,-131.9 1761.76,-142 1761.76,-142 1761.76,-142 1998,-142 1998,-142 1998,-142 1998,-142.88 1998,-142.88"/>
<polygon fill="black" stroke="black" points="1994.5,-140.84 1998,-150.84 2001.5,-140.84 1994.5,-140.84"/>
</g>
<!-- HttpClientModule -->
<g id="node11" class="node">
<title>HttpClientModule</title>
<polygon fill="#8dd3c7" stroke="black" points="1914.16,-122 1911.16,-126 1890.16,-126 1887.16,-122 1795.84,-122 1795.84,-86 1914.16,-86 1914.16,-122"/>
<text text-anchor="middle" x="1855" y="-99.8" font-family="Times,serif" font-size="14.00">HttpClientModule</text>
</g>
<!-- HttpClientModule&#45;&gt;ComponentsModule -->
<g id="edge10" class="edge">
<title>HttpClientModule&#45;&gt;ComponentsModule</title>
<path fill="none" stroke="black" d="M1855,-122.21C1855,-127.55 1855,-132 1855,-132 1855,-132 2051.22,-132 2051.22,-132 2051.22,-132 2051.22,-281.95 2051.22,-281.95"/>
<polygon fill="black" stroke="black" points="2047.72,-281.95 2051.22,-291.95 2054.72,-281.95 2047.72,-281.95"/>
</g>
<!-- ElementsModule&#45;&gt;ComponentsModule -->
<g id="edge11" class="edge">
<title>ElementsModule&#45;&gt;ComponentsModule</title>
<path fill="none" stroke="black" d="M1974.84,-252.01C1974.84,-252.01 1974.84,-281.85 1974.84,-281.85"/>
<polygon fill="black" stroke="black" points="1971.34,-281.85 1974.84,-291.85 1978.34,-281.85 1971.34,-281.85"/>
</g>
<!-- ElementsModule&#45;&gt;DiscussionUiModule -->
<g id="edge29" class="edge">
<title>ElementsModule&#45;&gt;DiscussionUiModule</title>
<path fill="none" stroke="black" d="M1885.4,-252.16C1885.4,-283.41 1885.4,-344 1885.4,-344 1885.4,-344 1060.5,-344 1060.5,-344 1060.5,-344 1060.5,-349.81 1060.5,-349.81"/>
<polygon fill="black" stroke="black" points="1057,-349.81 1060.5,-359.81 1064,-349.81 1057,-349.81"/>
</g>
<!-- CategoryCardComponent  -->
<g id="node40" class="node">
<title>CategoryCardComponent </title>
<polygon fill="#fb8072" stroke="black" points="4053.86,-328 3890.14,-328 3890.14,-292 4053.86,-292 4053.86,-328"/>
<text text-anchor="middle" x="3972" y="-305.8" font-family="Times,serif" font-size="14.00">CategoryCardComponent </text>
</g>
<!-- ElementsModule&#45;&gt;CategoryCardComponent  -->
<g id="edge44" class="edge">
<title>ElementsModule&#45;&gt;CategoryCardComponent </title>
<path fill="none" stroke="black" stroke-dasharray="5,2" d="M1980.83,-252.05C1980.83,-266.37 1980.83,-284 1980.83,-284 1980.83,-284 3912.53,-284 3912.53,-284 3912.53,-284 3912.53,-284.79 3912.53,-284.79"/>
<polygon fill="black" stroke="black" points="3909.03,-281.94 3912.53,-291.94 3916.03,-281.94 3909.03,-281.94"/>
</g>
<!-- DiscussCardComponent  -->
<g id="node41" class="node">
<title>DiscussCardComponent </title>
<polygon fill="#fb8072" stroke="black" points="3872.59,-328 3717.41,-328 3717.41,-292 3872.59,-292 3872.59,-328"/>
<text text-anchor="middle" x="3795" y="-305.8" font-family="Times,serif" font-size="14.00">DiscussCardComponent </text>
</g>
<!-- ElementsModule&#45;&gt;DiscussCardComponent  -->
<g id="edge45" class="edge">
<title>ElementsModule&#45;&gt;DiscussCardComponent </title>
<path fill="none" stroke="black" stroke-dasharray="5,2" d="M1978.83,-252.24C1978.83,-267.57 1978.83,-287 1978.83,-287 1978.83,-287 3744.03,-287 3744.03,-287 3744.03,-287 3744.03,-287.49 3744.03,-287.49"/>
<polygon fill="black" stroke="black" points="3740.53,-281.88 3744.03,-291.88 3747.53,-281.88 3740.53,-281.88"/>
</g>
<!-- AvatarPhotoComponent  -->
<g id="node42" class="node">
<title>AvatarPhotoComponent </title>
<polygon fill="#fb8072" stroke="black" points="3698.59,-328 3543.41,-328 3543.41,-292 3698.59,-292 3698.59,-328"/>
<text text-anchor="middle" x="3621" y="-305.8" font-family="Times,serif" font-size="14.00">AvatarPhotoComponent </text>
</g>
<!-- ElementsModule&#45;&gt;AvatarPhotoComponent  -->
<g id="edge46" class="edge">
<title>ElementsModule&#45;&gt;AvatarPhotoComponent </title>
<path fill="none" stroke="black" stroke-dasharray="5,2" d="M1976.83,-252.03C1976.83,-268.4 1976.83,-290 1976.83,-290 1976.83,-290 3593,-290 3593,-290 3593,-290 3593,-290.18 3593,-290.18"/>
<polygon fill="black" stroke="black" points="3589.5,-281.85 3593,-291.85 3596.5,-281.85 3589.5,-281.85"/>
</g>
<!-- AppLoaderComponent  -->
<g id="node43" class="node">
<title>AppLoaderComponent </title>
<polygon fill="#fb8072" stroke="black" points="4588.08,-328 4439.92,-328 4439.92,-292 4588.08,-292 4588.08,-328"/>
<text text-anchor="middle" x="4514" y="-305.8" font-family="Times,serif" font-size="14.00">AppLoaderComponent </text>
</g>
<!-- ElementsModule&#45;&gt;AppLoaderComponent  -->
<g id="edge47" class="edge">
<title>ElementsModule&#45;&gt;AppLoaderComponent </title>
<path fill="none" stroke="black" stroke-dasharray="5,2" d="M1986.83,-252.11C1986.83,-261.9 1986.83,-272 1986.83,-272 1986.83,-272 4452.81,-272 4452.81,-272 4452.81,-272 4452.81,-281.89 4452.81,-281.89"/>
<polygon fill="black" stroke="black" points="4449.31,-281.89 4452.81,-291.89 4456.31,-281.89 4449.31,-281.89"/>
</g>
<!-- ElementsModule&#45;&gt;AppLoaderComponent  -->
<g id="edge49" class="edge">
<title>ElementsModule&#45;&gt;AppLoaderComponent </title>
<path fill="none" stroke="black" stroke-dasharray="5,2" d="M1966.2,-252.1C1966.2,-263.09 1966.2,-275 1966.2,-275 1966.2,-275 4446.9,-275 4446.9,-275 4446.9,-275 4446.9,-281.68 4446.9,-281.68"/>
<polygon fill="black" stroke="black" points="4443.4,-281.68 4446.9,-291.68 4450.4,-281.68 4443.4,-281.68"/>
</g>
<!-- RelatedDiscussionComponent  -->
<g id="node44" class="node">
<title>RelatedDiscussionComponent </title>
<polygon fill="#fb8072" stroke="black" points="4421.53,-328 4232.47,-328 4232.47,-292 4421.53,-292 4421.53,-328"/>
<text text-anchor="middle" x="4327" y="-305.8" font-family="Times,serif" font-size="14.00">RelatedDiscussionComponent </text>
</g>
<!-- ElementsModule&#45;&gt;RelatedDiscussionComponent  -->
<g id="edge48" class="edge">
<title>ElementsModule&#45;&gt;RelatedDiscussionComponent </title>
<path fill="none" stroke="black" stroke-dasharray="5,2" d="M1984.83,-252.15C1984.83,-264.27 1984.83,-278 1984.83,-278 1984.83,-278 4256.8,-278 4256.8,-278 4256.8,-278 4256.8,-281.76 4256.8,-281.76"/>
<polygon fill="black" stroke="black" points="4253.3,-281.76 4256.8,-291.76 4260.3,-281.76 4253.3,-281.76"/>
</g>
<!-- PostReplyComponent  -->
<g id="node45" class="node">
<title>PostReplyComponent </title>
<polygon fill="#fb8072" stroke="black" points="4214.39,-328 4071.61,-328 4071.61,-292 4214.39,-292 4214.39,-328"/>
<text text-anchor="middle" x="4143" y="-305.8" font-family="Times,serif" font-size="14.00">PostReplyComponent </text>
</g>
<!-- ElementsModule&#45;&gt;PostReplyComponent  -->
<g id="edge50" class="edge">
<title>ElementsModule&#45;&gt;PostReplyComponent </title>
<path fill="none" stroke="black" stroke-dasharray="5,2" d="M1982.83,-252.04C1982.83,-265.29 1982.83,-281 1982.83,-281 1982.83,-281 4114.43,-281 4114.43,-281 4114.43,-281 4114.43,-282.08 4114.43,-282.08"/>
<polygon fill="black" stroke="black" points="4110.93,-281.8 4114.43,-291.8 4117.93,-281.8 4110.93,-281.8"/>
</g>
<!-- FormsModule -->
<g id="node13" class="node">
<title>FormsModule</title>
<polygon fill="#8dd3c7" stroke="black" points="1752.83,-187 1749.83,-191 1728.83,-191 1725.83,-187 1657.17,-187 1657.17,-151 1752.83,-151 1752.83,-187"/>
<text text-anchor="middle" x="1705" y="-164.8" font-family="Times,serif" font-size="14.00">FormsModule</text>
</g>
<!-- FormsModule&#45;&gt;ComponentsModule -->
<g id="edge12" class="edge">
<title>FormsModule&#45;&gt;ComponentsModule</title>
<path fill="none" stroke="black" d="M1732.32,-187.07C1732.32,-223.65 1732.32,-303 1732.32,-303 1732.32,-303 1962.8,-303 1962.8,-303"/>
<polygon fill="black" stroke="black" points="1962.8,-306.5 1972.8,-303 1962.8,-299.5 1962.8,-306.5"/>
</g>
<!-- FormsModule&#45;&gt;ElementsModule -->
<g id="edge42" class="edge">
<title>FormsModule&#45;&gt;ElementsModule</title>
<path fill="none" stroke="black" d="M1742.49,-187.28C1742.49,-208.32 1742.49,-240 1742.49,-240 1742.49,-240 1867.13,-240 1867.13,-240"/>
<polygon fill="black" stroke="black" points="1867.13,-243.5 1877.13,-240 1867.13,-236.5 1867.13,-243.5"/>
</g>
<!-- ReactiveFormsModule -->
<g id="node14" class="node">
<title>ReactiveFormsModule</title>
<polygon fill="#8dd3c7" stroke="black" points="1915.3,-187 1912.3,-191 1891.3,-191 1888.3,-187 1770.7,-187 1770.7,-151 1915.3,-151 1915.3,-187"/>
<text text-anchor="middle" x="1843" y="-164.8" font-family="Times,serif" font-size="14.00">ReactiveFormsModule</text>
</g>
<!-- ReactiveFormsModule&#45;&gt;ComponentsModule -->
<g id="edge13" class="edge">
<title>ReactiveFormsModule&#45;&gt;ComponentsModule</title>
<path fill="none" stroke="black" d="M1824.01,-187.2C1824.01,-222.31 1824.01,-296 1824.01,-296 1824.01,-296 1962.63,-296 1962.63,-296"/>
<polygon fill="black" stroke="black" points="1962.63,-299.5 1972.63,-296 1962.63,-292.5 1962.63,-299.5"/>
</g>
<!-- ReactiveFormsModule&#45;&gt;ElementsModule -->
<g id="edge43" class="edge">
<title>ReactiveFormsModule&#45;&gt;ElementsModule</title>
<path fill="none" stroke="black" d="M1896.16,-187.11C1896.16,-187.11 1896.16,-205.99 1896.16,-205.99"/>
<polygon fill="black" stroke="black" points="1892.66,-205.99 1896.16,-215.99 1899.66,-205.99 1892.66,-205.99"/>
</g>
<!-- TagInputModule -->
<g id="node15" class="node">
<title>TagInputModule</title>
<polygon fill="#8dd3c7" stroke="black" points="2043.37,-122 2040.37,-126 2019.37,-126 2016.37,-122 1932.63,-122 1932.63,-86 2043.37,-86 2043.37,-122"/>
<text text-anchor="middle" x="1988" y="-99.8" font-family="Times,serif" font-size="14.00">TagInputModule</text>
</g>
<!-- TagInputModule&#45;&gt;ComponentsModule -->
<g id="edge14" class="edge">
<title>TagInputModule&#45;&gt;ComponentsModule</title>
<path fill="none" stroke="black" d="M2043.6,-104C2052.58,-104 2059,-104 2059,-104 2059,-104 2059,-281.72 2059,-281.72"/>
<polygon fill="black" stroke="black" points="2055.5,-281.72 2059,-291.72 2062.5,-281.72 2055.5,-281.72"/>
</g>
<!-- PipesModule&#45;&gt;ComponentsModule -->
<g id="edge15" class="edge">
<title>PipesModule&#45;&gt;ComponentsModule</title>
<path fill="none" stroke="black" d="M2015.88,-187.14C2015.88,-187.14 2015.88,-281.93 2015.88,-281.93"/>
<polygon fill="black" stroke="black" points="2012.38,-281.92 2015.88,-291.93 2019.38,-281.93 2012.38,-281.92"/>
</g>
<!-- PipesModule&#45;&gt;ElementsModule -->
<g id="edge41" class="edge">
<title>PipesModule&#45;&gt;ElementsModule</title>
<path fill="none" stroke="black" d="M1970.94,-187.11C1970.94,-187.11 1970.94,-205.99 1970.94,-205.99"/>
<polygon fill="black" stroke="black" points="1967.44,-205.99 1970.94,-215.99 1974.44,-205.99 1967.44,-205.99"/>
</g>
<!-- PipeFilterPipe  -->
<g id="node50" class="node">
<title>PipeFilterPipe </title>
<polygon fill="#fb8072" stroke="black" points="3642.61,-252 3543.39,-252 3543.39,-216 3642.61,-216 3642.61,-252"/>
<text text-anchor="middle" x="3593" y="-229.8" font-family="Times,serif" font-size="14.00">PipeFilterPipe </text>
</g>
<!-- PipesModule&#45;&gt;PipeFilterPipe  -->
<g id="edge56" class="edge">
<title>PipesModule&#45;&gt;PipeFilterPipe </title>
<path fill="none" stroke="black" stroke-dasharray="5,2" d="M2043.17,-183C2302.73,-183 3593,-183 3593,-183 3593,-183 3593,-205.88 3593,-205.88"/>
<polygon fill="black" stroke="black" points="3589.5,-205.88 3593,-215.88 3596.5,-205.88 3589.5,-205.88"/>
</g>
<!-- SortByPipe  -->
<g id="node51" class="node">
<title>SortByPipe </title>
<polygon fill="#fb8072" stroke="black" points="4037.06,-252 3952.94,-252 3952.94,-216 4037.06,-216 4037.06,-252"/>
<text text-anchor="middle" x="3995" y="-229.8" font-family="Times,serif" font-size="14.00">SortByPipe </text>
</g>
<!-- PipesModule&#45;&gt;SortByPipe  -->
<g id="edge57" class="edge">
<title>PipesModule&#45;&gt;SortByPipe </title>
<path fill="none" stroke="black" stroke-dasharray="5,2" d="M2042.99,-171C2338.94,-171 3995,-171 3995,-171 3995,-171 3995,-205.78 3995,-205.78"/>
<polygon fill="black" stroke="black" points="3991.5,-205.78 3995,-215.78 3998.5,-205.78 3991.5,-205.78"/>
</g>
<!-- PipeRelativeTimePipe  -->
<g id="node52" class="node">
<title>PipeRelativeTimePipe </title>
<polygon fill="#fb8072" stroke="black" points="3934.98,-252 3789.02,-252 3789.02,-216 3934.98,-216 3934.98,-252"/>
<text text-anchor="middle" x="3862" y="-229.8" font-family="Times,serif" font-size="14.00">PipeRelativeTimePipe </text>
</g>
<!-- PipesModule&#45;&gt;PipeRelativeTimePipe  -->
<g id="edge58" class="edge">
<title>PipesModule&#45;&gt;PipeRelativeTimePipe </title>
<path fill="none" stroke="black" stroke-dasharray="5,2" d="M2043.15,-175C2327.82,-175 3862,-175 3862,-175 3862,-175 3862,-205.98 3862,-205.98"/>
<polygon fill="black" stroke="black" points="3858.5,-205.98 3862,-215.98 3865.5,-205.98 3858.5,-205.98"/>
</g>
<!-- SplitInitialsPipe  -->
<g id="node53" class="node">
<title>SplitInitialsPipe </title>
<polygon fill="#fb8072" stroke="black" points="3770.72,-252 3661.28,-252 3661.28,-216 3770.72,-216 3770.72,-252"/>
<text text-anchor="middle" x="3716" y="-229.8" font-family="Times,serif" font-size="14.00">SplitInitialsPipe </text>
</g>
<!-- PipesModule&#45;&gt;SplitInitialsPipe  -->
<g id="edge59" class="edge">
<title>PipesModule&#45;&gt;SplitInitialsPipe </title>
<path fill="none" stroke="black" stroke-dasharray="5,2" d="M2043.07,-179C2314.13,-179 3716,-179 3716,-179 3716,-179 3716,-205.99 3716,-205.99"/>
<polygon fill="black" stroke="black" points="3712.5,-205.99 3716,-215.99 3719.5,-205.99 3712.5,-205.99"/>
</g>
<!-- DiscussionService -->
<g id="node25" class="node">
<title>DiscussionService</title>
<ellipse fill="#fdb462" stroke="black" cx="1551" cy="-234" rx="82.24" ry="18"/>
<text text-anchor="middle" x="1551" y="-229.8" font-family="Times,serif" font-size="14.00">DiscussionService</text>
</g>
<!-- DiscussionService&#45;&gt;ComponentsModule -->
<g id="edge24" class="edge">
<title>DiscussionService&#45;&gt;ComponentsModule</title>
<path fill="none" stroke="black" d="M1590.79,-249.84C1590.79,-271.31 1590.79,-307 1590.79,-307 1590.79,-307 1962.49,-307 1962.49,-307"/>
<polygon fill="black" stroke="black" points="1962.49,-310.5 1972.49,-307 1962.49,-303.5 1962.49,-310.5"/>
</g>
<!-- ConfigService -->
<g id="node26" class="node">
<title>ConfigService</title>
<ellipse fill="#fdb462" stroke="black" cx="1384" cy="-234" rx="66.63" ry="18"/>
<text text-anchor="middle" x="1384" y="-229.8" font-family="Times,serif" font-size="14.00">ConfigService</text>
</g>
<!-- ConfigService&#45;&gt;ComponentsModule -->
<g id="edge25" class="edge">
<title>ConfigService&#45;&gt;ComponentsModule</title>
<path fill="none" stroke="black" d="M1407.48,-250.87C1407.48,-273.26 1407.48,-310 1407.48,-310 1407.48,-310 1962.6,-310 1962.6,-310"/>
<polygon fill="black" stroke="black" points="1962.6,-313.5 1972.6,-310 1962.6,-306.5 1962.6,-313.5"/>
</g>
<!-- LibEntryComponent -->
<g id="node27" class="node">
<title>LibEntryComponent</title>
<polygon fill="#ffffb3" stroke="black" points="1276.88,-328 1145.12,-328 1145.12,-292 1276.88,-292 1276.88,-328"/>
<text text-anchor="middle" x="1211" y="-305.8" font-family="Times,serif" font-size="14.00">LibEntryComponent</text>
</g>
<!-- LibEntryComponent&#45;&gt;DiscussionUiModule -->
<g id="edge26" class="edge">
<title>LibEntryComponent&#45;&gt;DiscussionUiModule</title>
<path fill="none" stroke="black" d="M1211,-328.27C1211,-346.56 1211,-372 1211,-372 1211,-372 1115.88,-372 1115.88,-372"/>
<polygon fill="black" stroke="black" points="1115.88,-368.5 1105.88,-372 1115.88,-375.5 1115.88,-368.5"/>
</g>
<!-- ComponentsModule  -->
<g id="node30" class="node">
<title>ComponentsModule </title>
<polygon fill="#fb8072" stroke="black" points="1104.83,-464 971.17,-464 971.17,-428 1104.83,-428 1104.83,-464"/>
<text text-anchor="middle" x="1038" y="-441.8" font-family="Times,serif" font-size="14.00">ComponentsModule </text>
</g>
<!-- DiscussionUiModule&#45;&gt;ComponentsModule  -->
<g id="edge30" class="edge">
<title>DiscussionUiModule&#45;&gt;ComponentsModule </title>
<path fill="none" stroke="black" stroke-dasharray="5,2" d="M1038,-396.22C1038,-396.22 1038,-417.73 1038,-417.73"/>
<polygon fill="black" stroke="black" points="1034.5,-417.73 1038,-427.73 1041.5,-417.73 1034.5,-417.73"/>
</g>
<!-- DiscussionRoutingModule -->
<g id="node29" class="node">
<title>DiscussionRoutingModule</title>
<polygon fill="#8dd3c7" stroke="black" points="1121.1,-328 1118.1,-332 1097.1,-332 1094.1,-328 954.9,-328 954.9,-292 1121.1,-292 1121.1,-328"/>
<text text-anchor="middle" x="1038" y="-305.8" font-family="Times,serif" font-size="14.00">DiscussionRoutingModule</text>
</g>
<!-- DiscussionRoutingModule&#45;&gt;DiscussionUiModule -->
<g id="edge28" class="edge">
<title>DiscussionRoutingModule&#45;&gt;DiscussionUiModule</title>
<path fill="none" stroke="black" d="M1015.5,-328.22C1015.5,-328.22 1015.5,-349.73 1015.5,-349.73"/>
<polygon fill="black" stroke="black" points="1012,-349.73 1015.5,-359.73 1019,-349.73 1012,-349.73"/>
</g>
<!-- DiscussionEventsService -->
<g id="node31" class="node">
<title>DiscussionEventsService</title>
<ellipse fill="#fdb462" stroke="black" cx="133" cy="-310" rx="108.8" ry="18"/>
<text text-anchor="middle" x="133" y="-305.8" font-family="Times,serif" font-size="14.00">DiscussionEventsService</text>
</g>
<!-- DiscussionEventsService&#45;&gt;DiscussionUiModule -->
<g id="edge31" class="edge">
<title>DiscussionEventsService&#45;&gt;DiscussionUiModule</title>
<path fill="none" stroke="black" d="M133,-328.25C133,-351.02 133,-387 133,-387 133,-387 960.35,-387 960.35,-387"/>
<polygon fill="black" stroke="black" points="960.35,-390.5 970.35,-387 960.35,-383.5 960.35,-390.5"/>
</g>
<!-- TelemetryUtilsService -->
<g id="node32" class="node">
<title>TelemetryUtilsService</title>
<ellipse fill="#fdb462" stroke="black" cx="833" cy="-310" rx="98.4" ry="18"/>
<text text-anchor="middle" x="833" y="-305.8" font-family="Times,serif" font-size="14.00">TelemetryUtilsService</text>
</g>
<!-- TelemetryUtilsService&#45;&gt;DiscussionUiModule -->
<g id="edge32" class="edge">
<title>TelemetryUtilsService&#45;&gt;DiscussionUiModule</title>
<path fill="none" stroke="black" d="M833,-328.02C833,-345.37 833,-369 833,-369 833,-369 960.31,-369 960.31,-369"/>
<polygon fill="black" stroke="black" points="960.31,-372.5 970.31,-369 960.31,-365.5 960.31,-372.5"/>
</g>
<!-- { provide: &#39;CsModule&#39;, useFactory: provideCsModule } -->
<g id="node33" class="node">
<title>{ provide: &#39;CsModule&#39;, useFactory: provideCsModule }</title>
<ellipse fill="#fdb462" stroke="black" cx="488" cy="-310" rx="228.35" ry="18"/>
<text text-anchor="middle" x="488" y="-305.8" font-family="Times,serif" font-size="14.00">{ provide: &#39;CsModule&#39;, useFactory: provideCsModule }</text>
</g>
<!-- { provide: &#39;CsModule&#39;, useFactory: provideCsModule }&#45;&gt;DiscussionUiModule -->
<g id="edge33" class="edge">
<title>{ provide: &#39;CsModule&#39;, useFactory: provideCsModule }&#45;&gt;DiscussionUiModule</title>
<path fill="none" stroke="black" d="M488,-328.22C488,-348.37 488,-378 488,-378 488,-378 960.28,-378 960.28,-378"/>
<polygon fill="black" stroke="black" points="960.28,-381.5 970.28,-378 960.28,-374.5 960.28,-381.5"/>
</g>
<!-- PostReplyComponent -->
<g id="node34" class="node">
<title>PostReplyComponent</title>
<polygon fill="#ffffb3" stroke="black" points="5098.39,-328 4959.61,-328 4959.61,-292 5098.39,-292 5098.39,-328"/>
<text text-anchor="middle" x="5029" y="-305.8" font-family="Times,serif" font-size="14.00">PostReplyComponent</text>
</g>
<!-- PostReplyComponent&#45;&gt;ElementsModule -->
<g id="edge34" class="edge">
<title>PostReplyComponent&#45;&gt;ElementsModule</title>
<path fill="none" stroke="black" d="M5029,-291.82C5029,-278.96 5029,-264 5029,-264 5029,-264 1939.63,-264 1939.63,-264 1939.63,-264 1939.63,-262.14 1939.63,-262.14"/>
<polygon fill="black" stroke="black" points="1943.13,-262.14 1939.63,-252.14 1936.13,-262.14 1943.13,-262.14"/>
</g>
<!-- CategoryCardComponent -->
<g id="node35" class="node">
<title>CategoryCardComponent</title>
<polygon fill="#ffffb3" stroke="black" points="4941.86,-328 4782.14,-328 4782.14,-292 4941.86,-292 4941.86,-328"/>
<text text-anchor="middle" x="4862" y="-305.8" font-family="Times,serif" font-size="14.00">CategoryCardComponent</text>
</g>
<!-- CategoryCardComponent&#45;&gt;ElementsModule -->
<g id="edge35" class="edge">
<title>CategoryCardComponent&#45;&gt;ElementsModule</title>
<path fill="none" stroke="black" d="M4862,-291.51C4862,-279.86 4862,-267 4862,-267 4862,-267 1932.99,-267 1932.99,-267 1932.99,-267 1932.99,-262.04 1932.99,-262.04"/>
<polygon fill="black" stroke="black" points="1936.49,-262.04 1932.99,-252.04 1929.49,-262.04 1936.49,-262.04"/>
</g>
<!-- DiscussCardComponent -->
<g id="node36" class="node">
<title>DiscussCardComponent</title>
<polygon fill="#ffffb3" stroke="black" points="4764.09,-328 4611.91,-328 4611.91,-292 4764.09,-292 4764.09,-328"/>
<text text-anchor="middle" x="4688" y="-305.8" font-family="Times,serif" font-size="14.00">DiscussCardComponent</text>
</g>
<!-- DiscussCardComponent&#45;&gt;ElementsModule -->
<g id="edge36" class="edge">
<title>DiscussCardComponent&#45;&gt;ElementsModule</title>
<path fill="none" stroke="black" d="M4688,-291.87C4688,-281.29 4688,-270 4688,-270 4688,-270 1926.35,-270 1926.35,-270 1926.35,-270 1926.35,-262.42 1926.35,-262.42"/>
<polygon fill="black" stroke="black" points="1929.85,-262.42 1926.35,-252.42 1922.85,-262.42 1929.85,-262.42"/>
</g>
<!-- AvatarPhotoComponent -->
<g id="node37" class="node">
<title>AvatarPhotoComponent</title>
<polygon fill="#ffffb3" stroke="black" points="5635.09,-328 5482.91,-328 5482.91,-292 5635.09,-292 5635.09,-328"/>
<text text-anchor="middle" x="5559" y="-305.8" font-family="Times,serif" font-size="14.00">AvatarPhotoComponent</text>
</g>
<!-- AvatarPhotoComponent&#45;&gt;ElementsModule -->
<g id="edge37" class="edge">
<title>AvatarPhotoComponent&#45;&gt;ElementsModule</title>
<path fill="none" stroke="black" d="M5559,-291.99C5559,-275.95 5559,-255 5559,-255 5559,-255 1959.55,-255 1959.55,-255 1959.55,-255 1959.55,-254.71 1959.55,-254.71"/>
<polygon fill="black" stroke="black" points="1963.05,-262.08 1959.55,-252.08 1956.05,-262.08 1963.05,-262.08"/>
</g>
<!-- AppLoaderComponent -->
<g id="node38" class="node">
<title>AppLoaderComponent</title>
<polygon fill="#ffffb3" stroke="black" points="5464.58,-328 5319.42,-328 5319.42,-292 5464.58,-292 5464.58,-328"/>
<text text-anchor="middle" x="5392" y="-305.8" font-family="Times,serif" font-size="14.00">AppLoaderComponent</text>
</g>
<!-- AppLoaderComponent&#45;&gt;ElementsModule -->
<g id="edge38" class="edge">
<title>AppLoaderComponent&#45;&gt;ElementsModule</title>
<path fill="none" stroke="black" d="M5392,-291.81C5392,-276.82 5392,-258 5392,-258 5392,-258 1952.91,-258 1952.91,-258 1952.91,-258 1952.91,-257.42 1952.91,-257.42"/>
<polygon fill="black" stroke="black" points="1956.41,-262.19 1952.91,-252.19 1949.41,-262.19 1956.41,-262.19"/>
</g>
<!-- RelatedDiscussionComponent -->
<g id="node39" class="node">
<title>RelatedDiscussionComponent</title>
<polygon fill="#ffffb3" stroke="black" points="5301.53,-328 5116.47,-328 5116.47,-292 5301.53,-292 5301.53,-328"/>
<text text-anchor="middle" x="5209" y="-305.8" font-family="Times,serif" font-size="14.00">RelatedDiscussionComponent</text>
</g>
<!-- RelatedDiscussionComponent&#45;&gt;ElementsModule -->
<g id="edge39" class="edge">
<title>RelatedDiscussionComponent&#45;&gt;ElementsModule</title>
<path fill="none" stroke="black" d="M5209,-291.75C5209,-277.82 5209,-261 5209,-261 5209,-261 1946.27,-261 1946.27,-261 1946.27,-261 1946.27,-260.12 1946.27,-260.12"/>
<polygon fill="black" stroke="black" points="1949.77,-262.16 1946.27,-252.16 1942.77,-262.16 1949.77,-262.16"/>
</g>
<!-- PipeFilterPipe -->
<g id="node46" class="node">
<title>PipeFilterPipe</title>
<polygon fill="#ffffb3" stroke="black" points="4157.11,-252 4060.89,-252 4060.89,-216 4157.11,-216 4157.11,-252"/>
<text text-anchor="middle" x="4109" y="-229.8" font-family="Times,serif" font-size="14.00">PipeFilterPipe</text>
</g>
<!-- PipeFilterPipe&#45;&gt;PipesModule -->
<g id="edge51" class="edge">
<title>PipeFilterPipe&#45;&gt;PipesModule</title>
<path fill="none" stroke="black" d="M4109,-215.69C4109,-195.85 4109,-167 4109,-167 4109,-167 2053.07,-167 2053.07,-167"/>
<polygon fill="black" stroke="black" points="2053.07,-163.5 2043.07,-167 2053.07,-170.5 2053.07,-163.5"/>
</g>
<!-- SortByPipe -->
<g id="node47" class="node">
<title>SortByPipe</title>
<polygon fill="#ffffb3" stroke="black" points="4539.06,-252 4458.94,-252 4458.94,-216 4539.06,-216 4539.06,-252"/>
<text text-anchor="middle" x="4499" y="-229.8" font-family="Times,serif" font-size="14.00">SortByPipe</text>
</g>
<!-- SortByPipe&#45;&gt;PipesModule -->
<g id="edge52" class="edge">
<title>SortByPipe&#45;&gt;PipesModule</title>
<path fill="none" stroke="black" d="M4499,-215.68C4499,-192.34 4499,-155 4499,-155 4499,-155 2053.01,-155 2053.01,-155"/>
<polygon fill="black" stroke="black" points="2053.01,-151.5 2043.01,-155 2053.01,-158.5 2053.01,-151.5"/>
</g>
<!-- PipeRelativeTimePipe -->
<g id="node48" class="node">
<title>PipeRelativeTimePipe</title>
<polygon fill="#ffffb3" stroke="black" points="4440.98,-252 4299.02,-252 4299.02,-216 4440.98,-216 4440.98,-252"/>
<text text-anchor="middle" x="4370" y="-229.8" font-family="Times,serif" font-size="14.00">PipeRelativeTimePipe</text>
</g>
<!-- PipeRelativeTimePipe&#45;&gt;PipesModule -->
<g id="edge53" class="edge">
<title>PipeRelativeTimePipe&#45;&gt;PipesModule</title>
<path fill="none" stroke="black" d="M4370,-215.84C4370,-193.65 4370,-159 4370,-159 4370,-159 2053,-159 2053,-159"/>
<polygon fill="black" stroke="black" points="2053,-155.5 2043,-159 2053,-162.5 2053,-155.5"/>
</g>
<!-- SplitInitialsPipe -->
<g id="node49" class="node">
<title>SplitInitialsPipe</title>
<polygon fill="#ffffb3" stroke="black" points="4281.22,-252 4174.78,-252 4174.78,-216 4281.22,-216 4281.22,-252"/>
<text text-anchor="middle" x="4228" y="-229.8" font-family="Times,serif" font-size="14.00">SplitInitialsPipe</text>
</g>
<!-- SplitInitialsPipe&#45;&gt;PipesModule -->
<g id="edge54" class="edge">
<title>SplitInitialsPipe&#45;&gt;PipesModule</title>
<path fill="none" stroke="black" d="M4228,-215.72C4228,-194.68 4228,-163 4228,-163 4228,-163 2053.05,-163 2053.05,-163"/>
<polygon fill="black" stroke="black" points="2053.05,-159.5 2043.05,-163 2053.05,-166.5 2053.05,-159.5"/>
</g>
</g>
</svg>
