<?xml version="1.0" encoding="UTF-8" standalone="no"?>
<!DOCTYPE svg PUBLIC "-//W3C//DTD SVG 1.1//EN"
 "http://www.w3.org/Graphics/SVG/1.1/DTD/svg11.dtd">
<!-- Generated by graphviz version 2.47.0 (20210316.0004)
 -->
<!-- Title: dependencies Pages: 1 -->
<svg width="5971pt" height="496pt"
 viewBox="0.00 0.00 5971.00 496.00" xmlns="http://www.w3.org/2000/svg" xmlns:xlink="http://www.w3.org/1999/xlink">
<g id="graph0" class="graph" transform="scale(1 1) rotate(0) translate(4 492)">
<title>dependencies</title>
<polygon fill="white" stroke="transparent" points="-4,4 -4,-492 5967,-492 5967,4 -4,4"/>
<text text-anchor="start" x="2960.51" y="-42.4" font-family="sans-serif" font-weight="bold" font-size="14.00">Legend</text>
<polygon fill="#ffffb3" stroke="transparent" points="2747.5,-10 2747.5,-30 2767.5,-30 2767.5,-10 2747.5,-10"/>
<text text-anchor="start" x="2771.13" y="-15.4" font-family="sans-serif" font-size="14.00"> &#160;Declarations</text>
<polygon fill="#8dd3c7" stroke="transparent" points="2860.5,-10 2860.5,-30 2880.5,-30 2880.5,-10 2860.5,-10"/>
<text text-anchor="start" x="2884.23" y="-15.4" font-family="sans-serif" font-size="14.00"> &#160;Module</text>
<polygon fill="#80b1d3" stroke="transparent" points="2946.5,-10 2946.5,-30 2966.5,-30 2966.5,-10 2946.5,-10"/>
<text text-anchor="start" x="2970.28" y="-15.4" font-family="sans-serif" font-size="14.00"> &#160;Bootstrap</text>
<polygon fill="#fdb462" stroke="transparent" points="3043.5,-10 3043.5,-30 3063.5,-30 3063.5,-10 3043.5,-10"/>
<text text-anchor="start" x="3067.17" y="-15.4" font-family="sans-serif" font-size="14.00"> &#160;Providers</text>
<polygon fill="#fb8072" stroke="transparent" points="3139.5,-10 3139.5,-30 3159.5,-30 3159.5,-10 3139.5,-10"/>
<text text-anchor="start" x="3163.23" y="-15.4" font-family="sans-serif" font-size="14.00"> &#160;Exports</text>
<g id="clust1" class="cluster">
<title>cluster_ComponentsModule</title>
<polygon fill="none" stroke="black" stroke-dasharray="1,5" points="1301,-70 1301,-412 3823,-412 3823,-70 1301,-70"/>
</g>
<g id="clust2" class="cluster">
<title>cluster_ComponentsModule_declarations</title>
<polygon fill="none" stroke="black" points="2202,-208 2202,-260 3815,-260 3815,-208 2202,-208"/>
</g>
<g id="clust12" class="cluster">
<title>cluster_ComponentsModule_imports</title>
<polygon fill="none" stroke="black" points="1649,-78 1649,-260 2194,-260 2194,-78 1649,-78"/>
</g>
<g id="clust13" class="cluster">
<title>cluster_ComponentsModule_exports</title>
<polygon fill="none" stroke="black" points="1450,-352 1450,-404 2930,-404 2930,-352 1450,-352"/>
</g>
<g id="clust15" class="cluster">
<title>cluster_ComponentsModule_providers</title>
<polygon fill="none" stroke="black" points="1309,-208 1309,-260 1641,-260 1641,-208 1309,-208"/>
</g>
<g id="clust16" class="cluster">
<title>cluster_DiscussionUiModule</title>
<polygon fill="none" stroke="black" stroke-dasharray="1,5" points="8,-276 8,-480 1293,-480 1293,-276 8,-276"/>
</g>
<g id="clust17" class="cluster">
<title>cluster_DiscussionUiModule_declarations</title>
<polygon fill="none" stroke="black" points="1137,-284 1137,-336 1285,-336 1285,-284 1137,-284"/>
</g>
<g id="clust19" class="cluster">
<title>cluster_DiscussionUiModule_imports</title>
<polygon fill="none" stroke="black" points="947,-284 947,-336 1129,-336 1129,-284 947,-284"/>
</g>
<g id="clust20" class="cluster">
<title>cluster_DiscussionUiModule_exports</title>
<polygon fill="none" stroke="black" points="963,-420 963,-472 1113,-472 1113,-420 963,-420"/>
</g>
<g id="clust22" class="cluster">
<title>cluster_DiscussionUiModule_providers</title>
<polygon fill="none" stroke="black" points="16,-284 16,-336 939,-336 939,-284 16,-284"/>
</g>
<g id="clust23" class="cluster">
<title>cluster_ElementsModule</title>
<polygon fill="none" stroke="black" stroke-dasharray="1,5" points="3831,-276 3831,-344 5955,-344 5955,-276 3831,-276"/>
</g>
<g id="clust24" class="cluster">
<title>cluster_ElementsModule_declarations</title>
<polygon fill="none" stroke="black" points="4908,-284 4908,-336 5947,-336 5947,-284 4908,-284"/>
</g>
<g id="clust32" class="cluster">
<title>cluster_ElementsModule_exports</title>
<polygon fill="none" stroke="black" points="3839,-284 3839,-336 4900,-336 4900,-284 3839,-284"/>
</g>
<g id="clust35" class="cluster">
<title>cluster_PipesModule</title>
<polygon fill="none" stroke="black" stroke-dasharray="1,5" points="3831,-200 3831,-268 4859,-268 4859,-200 3831,-200"/>
</g>
<g id="clust36" class="cluster">
<title>cluster_PipesModule_declarations</title>
<polygon fill="none" stroke="black" points="4357,-208 4357,-260 4851,-260 4851,-208 4357,-208"/>
</g>
<g id="clust42" class="cluster">
<title>cluster_PipesModule_exports</title>
<polygon fill="none" stroke="black" points="3839,-208 3839,-260 4349,-260 4349,-208 3839,-208"/>
</g>
<!-- SidePannelComponent -->
<g id="node1" class="node">
<title>SidePannelComponent</title>
<polygon fill="#ffffb3" stroke="black" points="3807.32,-252 3662.68,-252 3662.68,-216 3807.32,-216 3807.32,-252"/>
<text text-anchor="middle" x="3735" y="-229.8" font-family="Times,serif" font-size="14.00">SidePannelComponent</text>
</g>
<!-- ComponentsModule -->
<g id="node10" class="node">
<title>ComponentsModule</title>
<polygon fill="#8dd3c7" stroke="black" points="2246.33,-328 2243.33,-332 2222.33,-332 2219.33,-328 2115.67,-328 2115.67,-292 2246.33,-292 2246.33,-328"/>
<text text-anchor="middle" x="2181" y="-305.8" font-family="Times,serif" font-size="14.00">ComponentsModule</text>
</g>
<!-- SidePannelComponent&#45;&gt;ComponentsModule -->
<g id="edge1" class="edge">
<title>SidePannelComponent&#45;&gt;ComponentsModule</title>
<path fill="none" stroke="black" d="M3735,-252.2C3735,-276.36 3735,-316 3735,-316 3735,-316 2256.29,-316 2256.29,-316"/>
<polygon fill="black" stroke="black" points="2256.29,-312.5 2246.29,-316 2256.29,-319.5 2256.29,-312.5"/>
</g>
<!-- DiscussHomeComponent -->
<g id="node2" class="node">
<title>DiscussHomeComponent</title>
<polygon fill="#ffffb3" stroke="black" points="3644.59,-252 3485.41,-252 3485.41,-216 3644.59,-216 3644.59,-252"/>
<text text-anchor="middle" x="3565" y="-229.8" font-family="Times,serif" font-size="14.00">DiscussHomeComponent</text>
</g>
<!-- DiscussHomeComponent&#45;&gt;ComponentsModule -->
<g id="edge2" class="edge">
<title>DiscussHomeComponent&#45;&gt;ComponentsModule</title>
<path fill="none" stroke="black" d="M3565,-252.32C3565,-275.66 3565,-313 3565,-313 3565,-313 2256.36,-313 2256.36,-313"/>
<polygon fill="black" stroke="black" points="2256.36,-309.5 2246.36,-313 2256.36,-316.5 2256.36,-309.5"/>
</g>
<!-- DiscussCategoryComponent -->
<g id="node3" class="node">
<title>DiscussCategoryComponent</title>
<polygon fill="#ffffb3" stroke="black" points="3467.2,-252 3290.8,-252 3290.8,-216 3467.2,-216 3467.2,-252"/>
<text text-anchor="middle" x="3379" y="-229.8" font-family="Times,serif" font-size="14.00">DiscussCategoryComponent</text>
</g>
<!-- DiscussCategoryComponent&#45;&gt;ComponentsModule -->
<g id="edge3" class="edge">
<title>DiscussCategoryComponent&#45;&gt;ComponentsModule</title>
<path fill="none" stroke="black" d="M3379,-252.01C3379,-274.49 3379,-310 3379,-310 3379,-310 2256.26,-310 2256.26,-310"/>
<polygon fill="black" stroke="black" points="2256.26,-306.5 2246.26,-310 2256.26,-313.5 2256.26,-306.5"/>
</g>
<!-- DiscussTagsComponent -->
<g id="node4" class="node">
<title>DiscussTagsComponent</title>
<polygon fill="#ffffb3" stroke="black" points="3273.09,-252 3120.91,-252 3120.91,-216 3273.09,-216 3273.09,-252"/>
<text text-anchor="middle" x="3197" y="-229.8" font-family="Times,serif" font-size="14.00">DiscussTagsComponent</text>
</g>
<!-- DiscussTagsComponent&#45;&gt;ComponentsModule -->
<g id="edge4" class="edge">
<title>DiscussTagsComponent&#45;&gt;ComponentsModule</title>
<path fill="none" stroke="black" d="M3197,-252.04C3197,-273.66 3197,-307 3197,-307 3197,-307 2256.49,-307 2256.49,-307"/>
<polygon fill="black" stroke="black" points="2256.49,-303.5 2246.49,-307 2256.49,-310.5 2256.49,-303.5"/>
</g>
<!-- MyDiscussionComponent -->
<g id="node5" class="node">
<title>MyDiscussionComponent</title>
<polygon fill="#ffffb3" stroke="black" points="3103.21,-252 2940.79,-252 2940.79,-216 3103.21,-216 3103.21,-252"/>
<text text-anchor="middle" x="3022" y="-229.8" font-family="Times,serif" font-size="14.00">MyDiscussionComponent</text>
</g>
<!-- MyDiscussionComponent&#45;&gt;ComponentsModule -->
<g id="edge5" class="edge">
<title>MyDiscussionComponent&#45;&gt;ComponentsModule</title>
<path fill="none" stroke="black" d="M3022,-252.03C3022,-272.77 3022,-304 3022,-304 3022,-304 2256.29,-304 2256.29,-304"/>
<polygon fill="black" stroke="black" points="2256.29,-300.5 2246.29,-304 2256.29,-307.5 2256.29,-300.5"/>
</g>
<!-- DiscussionDetailsComponent -->
<g id="node6" class="node">
<title>DiscussionDetailsComponent</title>
<polygon fill="#ffffb3" stroke="black" points="2923.42,-252 2740.58,-252 2740.58,-216 2923.42,-216 2923.42,-252"/>
<text text-anchor="middle" x="2832" y="-229.8" font-family="Times,serif" font-size="14.00">DiscussionDetailsComponent</text>
</g>
<!-- DiscussionDetailsComponent&#45;&gt;ComponentsModule -->
<g id="edge6" class="edge">
<title>DiscussionDetailsComponent&#45;&gt;ComponentsModule</title>
<path fill="none" stroke="black" d="M2801.18,-252.31C2801.18,-272.15 2801.18,-301 2801.18,-301 2801.18,-301 2256.2,-301 2256.2,-301"/>
<polygon fill="black" stroke="black" points="2256.2,-297.5 2246.2,-301 2256.2,-304.5 2256.2,-297.5"/>
</g>
<!-- DiscussStartComponent -->
<g id="node7" class="node">
<title>DiscussStartComponent</title>
<polygon fill="#ffffb3" stroke="black" points="2722.82,-252 2571.18,-252 2571.18,-216 2722.82,-216 2722.82,-252"/>
<text text-anchor="middle" x="2647" y="-229.8" font-family="Times,serif" font-size="14.00">DiscussStartComponent</text>
</g>
<!-- DiscussStartComponent&#45;&gt;ComponentsModule -->
<g id="edge7" class="edge">
<title>DiscussStartComponent&#45;&gt;ComponentsModule</title>
<path fill="none" stroke="black" d="M2644.88,-252.17C2644.88,-271.09 2644.88,-298 2644.88,-298 2644.88,-298 2256.48,-298 2256.48,-298"/>
<polygon fill="black" stroke="black" points="2256.48,-294.5 2246.48,-298 2256.48,-301.5 2256.48,-294.5"/>
</g>
<!-- DiscussAllComponent -->
<g id="node8" class="node">
<title>DiscussAllComponent</title>
<polygon fill="#ffffb3" stroke="black" points="2553.27,-252 2410.73,-252 2410.73,-216 2553.27,-216 2553.27,-252"/>
<text text-anchor="middle" x="2482" y="-229.8" font-family="Times,serif" font-size="14.00">DiscussAllComponent</text>
</g>
<!-- DiscussAllComponent&#45;&gt;ComponentsModule -->
<g id="edge8" class="edge">
<title>DiscussAllComponent&#45;&gt;ComponentsModule</title>
<path fill="none" stroke="black" d="M2478.29,-252.3C2478.29,-270.27 2478.29,-295 2478.29,-295 2478.29,-295 2256.24,-295 2256.24,-295"/>
<polygon fill="black" stroke="black" points="2256.24,-291.5 2246.24,-295 2256.24,-298.5 2256.24,-291.5"/>
</g>
<!-- TagAllDiscussionComponent -->
<g id="node9" class="node">
<title>TagAllDiscussionComponent</title>
<polygon fill="#ffffb3" stroke="black" points="2392.42,-252 2209.58,-252 2209.58,-216 2392.42,-216 2392.42,-252"/>
<text text-anchor="middle" x="2301" y="-229.8" font-family="Times,serif" font-size="14.00">TagAllDiscussionComponent</text>
</g>
<!-- TagAllDiscussionComponent&#45;&gt;ComponentsModule -->
<g id="edge9" class="edge">
<title>TagAllDiscussionComponent&#45;&gt;ComponentsModule</title>
<path fill="none" stroke="black" d="M2227.98,-252.01C2227.98,-252.01 2227.98,-281.85 2227.98,-281.85"/>
<polygon fill="black" stroke="black" points="2224.48,-281.85 2227.98,-291.85 2231.48,-281.85 2224.48,-281.85"/>
</g>
<!-- SidePannelComponent  -->
<g id="node19" class="node">
<title>SidePannelComponent </title>
<polygon fill="#fb8072" stroke="black" points="2341.82,-396 2194.18,-396 2194.18,-360 2341.82,-360 2341.82,-396"/>
<text text-anchor="middle" x="2268" y="-373.8" font-family="Times,serif" font-size="14.00">SidePannelComponent </text>
</g>
<!-- ComponentsModule&#45;&gt;SidePannelComponent  -->
<g id="edge18" class="edge">
<title>ComponentsModule&#45;&gt;SidePannelComponent </title>
<path fill="none" stroke="black" stroke-dasharray="5,2" d="M2220.13,-328.22C2220.13,-328.22 2220.13,-349.73 2220.13,-349.73"/>
<polygon fill="black" stroke="black" points="2216.63,-349.73 2220.13,-359.73 2223.63,-349.73 2216.63,-349.73"/>
</g>
<!-- DiscussHomeComponent  -->
<g id="node20" class="node">
<title>DiscussHomeComponent </title>
<polygon fill="#fb8072" stroke="black" points="2176.09,-396 2013.91,-396 2013.91,-360 2176.09,-360 2176.09,-396"/>
<text text-anchor="middle" x="2095" y="-373.8" font-family="Times,serif" font-size="14.00">DiscussHomeComponent </text>
</g>
<!-- ComponentsModule&#45;&gt;DiscussHomeComponent  -->
<g id="edge19" class="edge">
<title>ComponentsModule&#45;&gt;DiscussHomeComponent </title>
<path fill="none" stroke="black" stroke-dasharray="5,2" d="M2146.07,-328.22C2146.07,-328.22 2146.07,-349.73 2146.07,-349.73"/>
<polygon fill="black" stroke="black" points="2142.57,-349.73 2146.07,-359.73 2149.57,-349.73 2142.57,-349.73"/>
</g>
<!-- DiscussCategoryComponent  -->
<g id="node21" class="node">
<title>DiscussCategoryComponent </title>
<polygon fill="#fb8072" stroke="black" points="1995.7,-396 1816.3,-396 1816.3,-360 1995.7,-360 1995.7,-396"/>
<text text-anchor="middle" x="1906" y="-373.8" font-family="Times,serif" font-size="14.00">DiscussCategoryComponent </text>
</g>
<!-- ComponentsModule&#45;&gt;DiscussCategoryComponent  -->
<g id="edge20" class="edge">
<title>ComponentsModule&#45;&gt;DiscussCategoryComponent </title>
<path fill="none" stroke="black" stroke-dasharray="5,2" d="M2115.67,-325C2061.03,-325 1991.95,-325 1991.95,-325 1991.95,-325 1991.95,-349.76 1991.95,-349.76"/>
<polygon fill="black" stroke="black" points="1988.45,-349.76 1991.95,-359.76 1995.45,-349.76 1988.45,-349.76"/>
</g>
<!-- DiscussTagsComponent  -->
<g id="node22" class="node">
<title>DiscussTagsComponent </title>
<polygon fill="#fb8072" stroke="black" points="1797.59,-396 1642.41,-396 1642.41,-360 1797.59,-360 1797.59,-396"/>
<text text-anchor="middle" x="1720" y="-373.8" font-family="Times,serif" font-size="14.00">DiscussTagsComponent </text>
</g>
<!-- ComponentsModule&#45;&gt;DiscussTagsComponent  -->
<g id="edge21" class="edge">
<title>ComponentsModule&#45;&gt;DiscussTagsComponent </title>
<path fill="none" stroke="black" stroke-dasharray="5,2" d="M2115.54,-322C1997.72,-322 1762.07,-322 1762.07,-322 1762.07,-322 1762.07,-349.97 1762.07,-349.97"/>
<polygon fill="black" stroke="black" points="1758.57,-349.97 1762.07,-359.97 1765.57,-349.97 1758.57,-349.97"/>
</g>
<!-- MyDiscussionComponent  -->
<g id="node23" class="node">
<title>MyDiscussionComponent </title>
<polygon fill="#fb8072" stroke="black" points="1623.71,-396 1458.29,-396 1458.29,-360 1623.71,-360 1623.71,-396"/>
<text text-anchor="middle" x="1541" y="-373.8" font-family="Times,serif" font-size="14.00">MyDiscussionComponent </text>
</g>
<!-- ComponentsModule&#45;&gt;MyDiscussionComponent  -->
<g id="edge22" class="edge">
<title>ComponentsModule&#45;&gt;MyDiscussionComponent </title>
<path fill="none" stroke="black" stroke-dasharray="5,2" d="M2115.76,-319C1953.78,-319 1546.24,-319 1546.24,-319 1546.24,-319 1546.24,-349.98 1546.24,-349.98"/>
<polygon fill="black" stroke="black" points="1542.74,-349.98 1546.24,-359.98 1549.74,-349.98 1542.74,-349.98"/>
</g>
<!-- DiscussionDetailsComponent  -->
<g id="node24" class="node">
<title>DiscussionDetailsComponent </title>
<polygon fill="#fb8072" stroke="black" points="2921.92,-396 2736.08,-396 2736.08,-360 2921.92,-360 2921.92,-396"/>
<text text-anchor="middle" x="2829" y="-373.8" font-family="Times,serif" font-size="14.00">DiscussionDetailsComponent </text>
</g>
<!-- ComponentsModule&#45;&gt;DiscussionDetailsComponent  -->
<g id="edge23" class="edge">
<title>ComponentsModule&#45;&gt;DiscussionDetailsComponent </title>
<path fill="none" stroke="black" stroke-dasharray="5,2" d="M2246.26,-319C2416.6,-319 2861.57,-319 2861.57,-319 2861.57,-319 2861.57,-349.98 2861.57,-349.98"/>
<polygon fill="black" stroke="black" points="2858.07,-349.98 2861.57,-359.98 2865.07,-349.98 2858.07,-349.98"/>
</g>
<!-- DiscussStartComponent  -->
<g id="node25" class="node">
<title>DiscussStartComponent </title>
<polygon fill="#fb8072" stroke="black" points="2718.32,-396 2563.68,-396 2563.68,-360 2718.32,-360 2718.32,-396"/>
<text text-anchor="middle" x="2641" y="-373.8" font-family="Times,serif" font-size="14.00">DiscussStartComponent </text>
</g>
<!-- ComponentsModule&#45;&gt;DiscussStartComponent  -->
<g id="edge24" class="edge">
<title>ComponentsModule&#45;&gt;DiscussStartComponent </title>
<path fill="none" stroke="black" stroke-dasharray="5,2" d="M2246.56,-322C2356.82,-322 2567.47,-322 2567.47,-322 2567.47,-322 2567.47,-349.97 2567.47,-349.97"/>
<polygon fill="black" stroke="black" points="2563.97,-349.97 2567.47,-359.97 2570.97,-349.97 2563.97,-349.97"/>
</g>
<!-- TagAllDiscussionComponent  -->
<g id="node26" class="node">
<title>TagAllDiscussionComponent </title>
<polygon fill="#fb8072" stroke="black" points="2545.92,-396 2360.08,-396 2360.08,-360 2545.92,-360 2545.92,-396"/>
<text text-anchor="middle" x="2453" y="-373.8" font-family="Times,serif" font-size="14.00">TagAllDiscussionComponent </text>
</g>
<!-- ComponentsModule&#45;&gt;TagAllDiscussionComponent  -->
<g id="edge25" class="edge">
<title>ComponentsModule&#45;&gt;TagAllDiscussionComponent </title>
<path fill="none" stroke="black" stroke-dasharray="5,2" d="M2246.25,-325C2302.97,-325 2376.12,-325 2376.12,-325 2376.12,-325 2376.12,-349.76 2376.12,-349.76"/>
<polygon fill="black" stroke="black" points="2372.63,-349.76 2376.12,-359.76 2379.63,-349.76 2372.63,-349.76"/>
</g>
<!-- DiscussionUiModule -->
<g id="node30" class="node">
<title>DiscussionUiModule</title>
<polygon fill="#8dd3c7" stroke="black" points="1105.48,-396 1102.48,-400 1081.48,-400 1078.48,-396 970.52,-396 970.52,-360 1105.48,-360 1105.48,-396"/>
<text text-anchor="middle" x="1038" y="-373.8" font-family="Times,serif" font-size="14.00">DiscussionUiModule</text>
</g>
<!-- ComponentsModule&#45;&gt;DiscussionUiModule -->
<g id="edge29" class="edge">
<title>ComponentsModule&#45;&gt;DiscussionUiModule</title>
<path fill="none" stroke="black" d="M2115.57,-316C1936.98,-316 1454.48,-316 1454.48,-316 1454.48,-316 1454.48,-384 1454.48,-384 1454.48,-384 1115.84,-384 1115.84,-384"/>
<polygon fill="black" stroke="black" points="1115.84,-380.5 1105.84,-384 1115.84,-387.5 1115.84,-380.5"/>
</g>
<!-- CommonModule -->
<g id="node11" class="node">
<title>CommonModule</title>
<polygon fill="#8dd3c7" stroke="black" points="1768.67,-122 1765.67,-126 1744.67,-126 1741.67,-122 1657.33,-122 1657.33,-86 1768.67,-86 1768.67,-122"/>
<text text-anchor="middle" x="1713" y="-99.8" font-family="Times,serif" font-size="14.00">CommonModule</text>
</g>
<!-- CommonModule&#45;&gt;ComponentsModule -->
<g id="edge10" class="edge">
<title>CommonModule&#45;&gt;ComponentsModule</title>
<path fill="none" stroke="black" d="M1680.22,-122.01C1680.22,-171.7 1680.22,-307 1680.22,-307 1680.22,-307 2105.79,-307 2105.79,-307"/>
<polygon fill="black" stroke="black" points="2105.79,-310.5 2115.79,-307 2105.79,-303.5 2105.79,-310.5"/>
</g>
<!-- ElementsModule -->
<g id="node13" class="node">
<title>ElementsModule</title>
<polygon fill="#8dd3c7" stroke="black" points="2111.65,-252 2108.65,-256 2087.65,-256 2084.65,-252 2000.35,-252 2000.35,-216 2111.65,-216 2111.65,-252"/>
<text text-anchor="middle" x="2056" y="-229.8" font-family="Times,serif" font-size="14.00">ElementsModule</text>
</g>
<!-- CommonModule&#45;&gt;ElementsModule -->
<g id="edge42" class="edge">
<title>CommonModule&#45;&gt;ElementsModule</title>
<path fill="none" stroke="black" d="M1703.28,-122.06C1703.28,-159.05 1703.28,-240 1703.28,-240 1703.28,-240 1990.11,-240 1990.11,-240"/>
<polygon fill="black" stroke="black" points="1990.11,-243.5 2000.11,-240 1990.11,-236.5 1990.11,-243.5"/>
</g>
<!-- PipesModule -->
<g id="node17" class="node">
<title>PipesModule</title>
<polygon fill="#8dd3c7" stroke="black" points="2111.88,-187 2108.88,-191 2087.88,-191 2084.88,-187 2022.12,-187 2022.12,-151 2111.88,-151 2111.88,-187"/>
<text text-anchor="middle" x="2067" y="-164.8" font-family="Times,serif" font-size="14.00">PipesModule</text>
</g>
<!-- CommonModule&#45;&gt;PipesModule -->
<g id="edge57" class="edge">
<title>CommonModule&#45;&gt;PipesModule</title>
<path fill="none" stroke="black" d="M1747.58,-122.04C1747.58,-129.75 1747.58,-137 1747.58,-137 1747.58,-137 2036.08,-137 2036.08,-137 2036.08,-137 2036.08,-140.76 2036.08,-140.76"/>
<polygon fill="black" stroke="black" points="2032.58,-140.76 2036.08,-150.76 2039.58,-140.76 2032.58,-140.76"/>
</g>
<!-- HttpClientModule -->
<g id="node12" class="node">
<title>HttpClientModule</title>
<polygon fill="#8dd3c7" stroke="black" points="2186.16,-122 2183.16,-126 2162.16,-126 2159.16,-122 2067.84,-122 2067.84,-86 2186.16,-86 2186.16,-122"/>
<text text-anchor="middle" x="2127" y="-99.8" font-family="Times,serif" font-size="14.00">HttpClientModule</text>
</g>
<!-- HttpClientModule&#45;&gt;ComponentsModule -->
<g id="edge11" class="edge">
<title>HttpClientModule&#45;&gt;ComponentsModule</title>
<path fill="none" stroke="black" d="M2168.71,-122.28C2168.71,-122.28 2168.71,-281.76 2168.71,-281.76"/>
<polygon fill="black" stroke="black" points="2165.21,-281.76 2168.71,-291.76 2172.21,-281.76 2165.21,-281.76"/>
</g>
<!-- ElementsModule&#45;&gt;ComponentsModule -->
<g id="edge12" class="edge">
<title>ElementsModule&#45;&gt;ComponentsModule</title>
<path fill="none" stroke="black" d="M2111.88,-234C2124.1,-234 2133.46,-234 2133.46,-234 2133.46,-234 2133.46,-281.99 2133.46,-281.99"/>
<polygon fill="black" stroke="black" points="2129.96,-281.99 2133.46,-291.99 2136.96,-281.99 2129.96,-281.99"/>
</g>
<!-- ElementsModule&#45;&gt;DiscussionUiModule -->
<g id="edge31" class="edge">
<title>ElementsModule&#45;&gt;DiscussionUiModule</title>
<path fill="none" stroke="black" d="M2006.94,-252.16C2006.94,-283.41 2006.94,-344 2006.94,-344 2006.94,-344 1060.5,-344 1060.5,-344 1060.5,-344 1060.5,-349.81 1060.5,-349.81"/>
<polygon fill="black" stroke="black" points="1057,-349.81 1060.5,-359.81 1064,-349.81 1057,-349.81"/>
</g>
<!-- CategoryCardComponent  -->
<g id="node42" class="node">
<title>CategoryCardComponent </title>
<polygon fill="#fb8072" stroke="black" points="4357.86,-328 4194.14,-328 4194.14,-292 4357.86,-292 4357.86,-328"/>
<text text-anchor="middle" x="4276" y="-305.8" font-family="Times,serif" font-size="14.00">CategoryCardComponent </text>
</g>
<!-- ElementsModule&#45;&gt;CategoryCardComponent  -->
<g id="edge46" class="edge">
<title>ElementsModule&#45;&gt;CategoryCardComponent </title>
<path fill="none" stroke="black" stroke-dasharray="5,2" d="M2076.78,-252.05C2076.78,-266.37 2076.78,-284 2076.78,-284 2076.78,-284 4203.56,-284 4203.56,-284 4203.56,-284 4203.56,-284.79 4203.56,-284.79"/>
<polygon fill="black" stroke="black" points="4200.06,-281.94 4203.56,-291.94 4207.06,-281.94 4200.06,-281.94"/>
</g>
<!-- DiscussCardComponent  -->
<g id="node43" class="node">
<title>DiscussCardComponent </title>
<polygon fill="#fb8072" stroke="black" points="4176.59,-328 4021.41,-328 4021.41,-292 4176.59,-292 4176.59,-328"/>
<text text-anchor="middle" x="4099" y="-305.8" font-family="Times,serif" font-size="14.00">DiscussCardComponent </text>
</g>
<!-- ElementsModule&#45;&gt;DiscussCardComponent  -->
<g id="edge47" class="edge">
<title>ElementsModule&#45;&gt;DiscussCardComponent </title>
<path fill="none" stroke="black" stroke-dasharray="5,2" d="M2069.77,-252.24C2069.77,-267.57 2069.77,-287 2069.77,-287 2069.77,-287 4058.12,-287 4058.12,-287 4058.12,-287 4058.12,-287.49 4058.12,-287.49"/>
<polygon fill="black" stroke="black" points="4054.62,-281.88 4058.12,-291.88 4061.62,-281.88 4054.62,-281.88"/>
</g>
<!-- AvatarPhotoComponent  -->
<g id="node44" class="node">
<title>AvatarPhotoComponent </title>
<polygon fill="#fb8072" stroke="black" points="4002.59,-328 3847.41,-328 3847.41,-292 4002.59,-292 4002.59,-328"/>
<text text-anchor="middle" x="3925" y="-305.8" font-family="Times,serif" font-size="14.00">AvatarPhotoComponent </text>
</g>
<!-- ElementsModule&#45;&gt;AvatarPhotoComponent  -->
<g id="edge48" class="edge">
<title>ElementsModule&#45;&gt;AvatarPhotoComponent </title>
<path fill="none" stroke="black" stroke-dasharray="5,2" d="M2062.76,-252.03C2062.76,-268.4 2062.76,-290 2062.76,-290 2062.76,-290 3920,-290 3920,-290 3920,-290 3920,-290.18 3920,-290.18"/>
<polygon fill="black" stroke="black" points="3916.5,-281.85 3920,-291.85 3923.5,-281.85 3916.5,-281.85"/>
</g>
<!-- AppLoaderComponent  -->
<g id="node45" class="node">
<title>AppLoaderComponent </title>
<polygon fill="#fb8072" stroke="black" points="4892.08,-328 4743.92,-328 4743.92,-292 4892.08,-292 4892.08,-328"/>
<text text-anchor="middle" x="4818" y="-305.8" font-family="Times,serif" font-size="14.00">AppLoaderComponent </text>
</g>
<!-- ElementsModule&#45;&gt;AppLoaderComponent  -->
<g id="edge49" class="edge">
<title>ElementsModule&#45;&gt;AppLoaderComponent </title>
<path fill="none" stroke="black" stroke-dasharray="5,2" d="M2097.81,-252.1C2097.81,-263.09 2097.81,-275 2097.81,-275 2097.81,-275 4776.84,-275 4776.84,-275 4776.84,-275 4776.84,-281.68 4776.84,-281.68"/>
<polygon fill="black" stroke="black" points="4773.34,-281.68 4776.84,-291.68 4780.34,-281.68 4773.34,-281.68"/>
</g>
<!-- ElementsModule&#45;&gt;AppLoaderComponent  -->
<g id="edge51" class="edge">
<title>ElementsModule&#45;&gt;AppLoaderComponent </title>
<path fill="none" stroke="black" stroke-dasharray="5,2" d="M2104.82,-252.11C2104.82,-261.9 2104.82,-272 2104.82,-272 2104.82,-272 4809.98,-272 4809.98,-272 4809.98,-272 4809.98,-281.89 4809.98,-281.89"/>
<polygon fill="black" stroke="black" points="4806.48,-281.89 4809.98,-291.89 4813.48,-281.89 4806.48,-281.89"/>
</g>
<!-- RelatedDiscussionComponent  -->
<g id="node46" class="node">
<title>RelatedDiscussionComponent </title>
<polygon fill="#fb8072" stroke="black" points="4725.53,-328 4536.47,-328 4536.47,-292 4725.53,-292 4725.53,-328"/>
<text text-anchor="middle" x="4631" y="-305.8" font-family="Times,serif" font-size="14.00">RelatedDiscussionComponent </text>
</g>
<!-- ElementsModule&#45;&gt;RelatedDiscussionComponent  -->
<g id="edge50" class="edge">
<title>ElementsModule&#45;&gt;RelatedDiscussionComponent </title>
<path fill="none" stroke="black" stroke-dasharray="5,2" d="M2090.8,-252.15C2090.8,-264.27 2090.8,-278 2090.8,-278 2090.8,-278 4570.88,-278 4570.88,-278 4570.88,-278 4570.88,-281.76 4570.88,-281.76"/>
<polygon fill="black" stroke="black" points="4567.38,-281.76 4570.88,-291.76 4574.38,-281.76 4567.38,-281.76"/>
</g>
<!-- PostReplyComponent  -->
<g id="node47" class="node">
<title>PostReplyComponent </title>
<polygon fill="#fb8072" stroke="black" points="4518.39,-328 4375.61,-328 4375.61,-292 4518.39,-292 4518.39,-328"/>
<text text-anchor="middle" x="4447" y="-305.8" font-family="Times,serif" font-size="14.00">PostReplyComponent </text>
</g>
<!-- ElementsModule&#45;&gt;PostReplyComponent  -->
<g id="edge52" class="edge">
<title>ElementsModule&#45;&gt;PostReplyComponent </title>
<path fill="none" stroke="black" stroke-dasharray="5,2" d="M2083.79,-252.04C2083.79,-265.29 2083.79,-281 2083.79,-281 2083.79,-281 4441.4,-281 4441.4,-281 4441.4,-281 4441.4,-282.08 4441.4,-282.08"/>
<polygon fill="black" stroke="black" points="4437.9,-281.8 4441.4,-291.8 4444.9,-281.8 4437.9,-281.8"/>
</g>
<!-- FormsModule -->
<g id="node14" class="node">
<title>FormsModule</title>
<polygon fill="#8dd3c7" stroke="black" points="1821.83,-187 1818.83,-191 1797.83,-191 1794.83,-187 1726.17,-187 1726.17,-151 1821.83,-151 1821.83,-187"/>
<text text-anchor="middle" x="1774" y="-164.8" font-family="Times,serif" font-size="14.00">FormsModule</text>
</g>
<!-- FormsModule&#45;&gt;ComponentsModule -->
<g id="edge13" class="edge">
<title>FormsModule&#45;&gt;ComponentsModule</title>
<path fill="none" stroke="black" d="M1803.91,-187.21C1803.91,-224.06 1803.91,-304 1803.91,-304 1803.91,-304 2105.75,-304 2105.75,-304"/>
<polygon fill="black" stroke="black" points="2105.75,-307.5 2115.75,-304 2105.75,-300.5 2105.75,-307.5"/>
</g>
<!-- FormsModule&#45;&gt;ElementsModule -->
<g id="edge44" class="edge">
<title>FormsModule&#45;&gt;ElementsModule</title>
<path fill="none" stroke="black" d="M1810.03,-187.02C1810.03,-204.37 1810.03,-228 1810.03,-228 1810.03,-228 1990.19,-228 1990.19,-228"/>
<polygon fill="black" stroke="black" points="1990.19,-231.5 2000.19,-228 1990.19,-224.5 1990.19,-231.5"/>
</g>
<!-- ReactiveFormsModule -->
<g id="node15" class="node">
<title>ReactiveFormsModule</title>
<polygon fill="#8dd3c7" stroke="black" points="1984.3,-187 1981.3,-191 1960.3,-191 1957.3,-187 1839.7,-187 1839.7,-151 1984.3,-151 1984.3,-187"/>
<text text-anchor="middle" x="1912" y="-164.8" font-family="Times,serif" font-size="14.00">ReactiveFormsModule</text>
</g>
<!-- ReactiveFormsModule&#45;&gt;ComponentsModule -->
<g id="edge14" class="edge">
<title>ReactiveFormsModule&#45;&gt;ComponentsModule</title>
<path fill="none" stroke="black" d="M1912,-187.21C1912,-222.77 1912,-298 1912,-298 1912,-298 2105.54,-298 2105.54,-298"/>
<polygon fill="black" stroke="black" points="2105.54,-301.5 2115.54,-298 2105.54,-294.5 2105.54,-301.5"/>
</g>
<!-- ReactiveFormsModule&#45;&gt;ElementsModule -->
<g id="edge45" class="edge">
<title>ReactiveFormsModule&#45;&gt;ElementsModule</title>
<path fill="none" stroke="black" d="M1984.29,-169C1999.54,-169 2011.12,-169 2011.12,-169 2011.12,-169 2011.12,-205.89 2011.12,-205.89"/>
<polygon fill="black" stroke="black" points="2007.62,-205.89 2011.12,-215.89 2014.62,-205.89 2007.62,-205.89"/>
</g>
<!-- TagInputModule -->
<g id="node16" class="node">
<title>TagInputModule</title>
<polygon fill="#8dd3c7" stroke="black" points="1897.37,-122 1894.37,-126 1873.37,-126 1870.37,-122 1786.63,-122 1786.63,-86 1897.37,-86 1897.37,-122"/>
<text text-anchor="middle" x="1842" y="-99.8" font-family="Times,serif" font-size="14.00">TagInputModule</text>
</g>
<!-- TagInputModule&#45;&gt;ComponentsModule -->
<g id="edge15" class="edge">
<title>TagInputModule&#45;&gt;ComponentsModule</title>
<path fill="none" stroke="black" d="M1830.76,-122.18C1830.76,-170.95 1830.76,-301 1830.76,-301 1830.76,-301 2105.53,-301 2105.53,-301"/>
<polygon fill="black" stroke="black" points="2105.53,-304.5 2115.53,-301 2105.53,-297.5 2105.53,-304.5"/>
</g>
<!-- PipesModule&#45;&gt;ComponentsModule -->
<g id="edge16" class="edge">
<title>PipesModule&#45;&gt;ComponentsModule</title>
<path fill="none" stroke="black" d="M2112,-184C2131.99,-184 2151.08,-184 2151.08,-184 2151.08,-184 2151.08,-281.95 2151.08,-281.95"/>
<polygon fill="black" stroke="black" points="2147.58,-281.95 2151.08,-291.95 2154.58,-281.95 2147.58,-281.95"/>
</g>
<!-- PipesModule&#45;&gt;ElementsModule -->
<g id="edge43" class="edge">
<title>PipesModule&#45;&gt;ElementsModule</title>
<path fill="none" stroke="black" d="M2066.94,-187.11C2066.94,-187.11 2066.94,-205.99 2066.94,-205.99"/>
<polygon fill="black" stroke="black" points="2063.44,-205.99 2066.94,-215.99 2070.44,-205.99 2063.44,-205.99"/>
</g>
<!-- PipeFilterPipe  -->
<g id="node52" class="node">
<title>PipeFilterPipe </title>
<polygon fill="#fb8072" stroke="black" points="4212.61,-252 4113.39,-252 4113.39,-216 4212.61,-216 4212.61,-252"/>
<text text-anchor="middle" x="4163" y="-229.8" font-family="Times,serif" font-size="14.00">PipeFilterPipe </text>
</g>
<!-- PipesModule&#45;&gt;PipeFilterPipe  -->
<g id="edge58" class="edge">
<title>PipesModule&#45;&gt;PipeFilterPipe </title>
<path fill="none" stroke="black" stroke-dasharray="5,2" d="M2112.24,-173C2417.38,-173 4163,-173 4163,-173 4163,-173 4163,-205.7 4163,-205.7"/>
<polygon fill="black" stroke="black" points="4159.5,-205.7 4163,-215.7 4166.5,-205.7 4159.5,-205.7"/>
</g>
<!-- SortByPipe  -->
<g id="node53" class="node">
<title>SortByPipe </title>
<polygon fill="#fb8072" stroke="black" points="4095.06,-252 4010.94,-252 4010.94,-216 4095.06,-216 4095.06,-252"/>
<text text-anchor="middle" x="4053" y="-229.8" font-family="Times,serif" font-size="14.00">SortByPipe </text>
</g>
<!-- PipesModule&#45;&gt;SortByPipe  -->
<g id="edge59" class="edge">
<title>PipesModule&#45;&gt;SortByPipe </title>
<path fill="none" stroke="black" stroke-dasharray="5,2" d="M2112.21,-177C2407.83,-177 4053,-177 4053,-177 4053,-177 4053,-205.96 4053,-205.96"/>
<polygon fill="black" stroke="black" points="4049.5,-205.96 4053,-215.96 4056.5,-205.96 4049.5,-205.96"/>
</g>
<!-- PipeRelativeTimePipe  -->
<g id="node54" class="node">
<title>PipeRelativeTimePipe </title>
<polygon fill="#fb8072" stroke="black" points="3992.98,-252 3847.02,-252 3847.02,-216 3992.98,-216 3992.98,-252"/>
<text text-anchor="middle" x="3920" y="-229.8" font-family="Times,serif" font-size="14.00">PipeRelativeTimePipe </text>
</g>
<!-- PipesModule&#45;&gt;PipeRelativeTimePipe  -->
<g id="edge60" class="edge">
<title>PipesModule&#45;&gt;PipeRelativeTimePipe </title>
<path fill="none" stroke="black" stroke-dasharray="5,2" d="M2111.89,-180C2394.87,-180 3920,-180 3920,-180 3920,-180 3920,-205.72 3920,-205.72"/>
<polygon fill="black" stroke="black" points="3916.5,-205.72 3920,-215.72 3923.5,-205.72 3916.5,-205.72"/>
</g>
<!-- SplitInitialsPipe  -->
<g id="node55" class="node">
<title>SplitInitialsPipe </title>
<polygon fill="#fb8072" stroke="black" points="4340.72,-252 4231.28,-252 4231.28,-216 4340.72,-216 4340.72,-252"/>
<text text-anchor="middle" x="4286" y="-229.8" font-family="Times,serif" font-size="14.00">SplitInitialsPipe </text>
</g>
<!-- PipesModule&#45;&gt;SplitInitialsPipe  -->
<g id="edge61" class="edge">
<title>PipesModule&#45;&gt;SplitInitialsPipe </title>
<path fill="none" stroke="black" stroke-dasharray="5,2" d="M2112.08,-169C2427.05,-169 4286,-169 4286,-169 4286,-169 4286,-205.89 4286,-205.89"/>
<polygon fill="black" stroke="black" points="4282.5,-205.89 4286,-215.89 4289.5,-205.89 4282.5,-205.89"/>
</g>
<!-- InfiniteScrollModule -->
<g id="node18" class="node">
<title>InfiniteScrollModule</title>
<polygon fill="#8dd3c7" stroke="black" points="2050.2,-122 2047.2,-126 2026.2,-126 2023.2,-122 1915.8,-122 1915.8,-86 2050.2,-86 2050.2,-122"/>
<text text-anchor="middle" x="1983" y="-99.8" font-family="Times,serif" font-size="14.00">InfiniteScrollModule</text>
</g>
<!-- InfiniteScrollModule&#45;&gt;ComponentsModule -->
<g id="edge17" class="edge">
<title>InfiniteScrollModule&#45;&gt;ComponentsModule</title>
<path fill="none" stroke="black" d="M1988.05,-122.31C1988.05,-170.12 1988.05,-295 1988.05,-295 1988.05,-295 2105.68,-295 2105.68,-295"/>
<polygon fill="black" stroke="black" points="2105.68,-298.5 2115.68,-295 2105.68,-291.5 2105.68,-298.5"/>
</g>
<!-- DiscussionService -->
<g id="node27" class="node">
<title>DiscussionService</title>
<ellipse fill="#fdb462" stroke="black" cx="1551" cy="-234" rx="82.24" ry="18"/>
<text text-anchor="middle" x="1551" y="-229.8" font-family="Times,serif" font-size="14.00">DiscussionService</text>
</g>
<!-- DiscussionService&#45;&gt;ComponentsModule -->
<g id="edge26" class="edge">
<title>DiscussionService&#45;&gt;ComponentsModule</title>
<path fill="none" stroke="black" d="M1628.61,-240.22C1628.61,-258.37 1628.61,-310 1628.61,-310 1628.61,-310 2105.74,-310 2105.74,-310"/>
<polygon fill="black" stroke="black" points="2105.74,-313.5 2115.74,-310 2105.74,-306.5 2105.74,-313.5"/>
</g>
<!-- ConfigService -->
<g id="node28" class="node">
<title>ConfigService</title>
<ellipse fill="#fdb462" stroke="black" cx="1384" cy="-234" rx="66.63" ry="18"/>
<text text-anchor="middle" x="1384" y="-229.8" font-family="Times,serif" font-size="14.00">ConfigService</text>
</g>
<!-- ConfigService&#45;&gt;ComponentsModule -->
<g id="edge27" class="edge">
<title>ConfigService&#45;&gt;ComponentsModule</title>
<path fill="none" stroke="black" d="M1384,-252.32C1384,-275.66 1384,-313 1384,-313 1384,-313 2105.78,-313 2105.78,-313"/>
<polygon fill="black" stroke="black" points="2105.78,-316.5 2115.78,-313 2105.78,-309.5 2105.78,-316.5"/>
</g>
<!-- LibEntryComponent -->
<g id="node29" class="node">
<title>LibEntryComponent</title>
<polygon fill="#ffffb3" stroke="black" points="1276.88,-328 1145.12,-328 1145.12,-292 1276.88,-292 1276.88,-328"/>
<text text-anchor="middle" x="1211" y="-305.8" font-family="Times,serif" font-size="14.00">LibEntryComponent</text>
</g>
<!-- LibEntryComponent&#45;&gt;DiscussionUiModule -->
<g id="edge28" class="edge">
<title>LibEntryComponent&#45;&gt;DiscussionUiModule</title>
<path fill="none" stroke="black" d="M1211,-328.27C1211,-346.56 1211,-372 1211,-372 1211,-372 1115.88,-372 1115.88,-372"/>
<polygon fill="black" stroke="black" points="1115.88,-368.5 1105.88,-372 1115.88,-375.5 1115.88,-368.5"/>
</g>
<!-- ComponentsModule  -->
<g id="node32" class="node">
<title>ComponentsModule </title>
<polygon fill="#fb8072" stroke="black" points="1104.83,-464 971.17,-464 971.17,-428 1104.83,-428 1104.83,-464"/>
<text text-anchor="middle" x="1038" y="-441.8" font-family="Times,serif" font-size="14.00">ComponentsModule </text>
</g>
<!-- DiscussionUiModule&#45;&gt;ComponentsModule  -->
<g id="edge32" class="edge">
<title>DiscussionUiModule&#45;&gt;ComponentsModule </title>
<path fill="none" stroke="black" stroke-dasharray="5,2" d="M1038,-396.22C1038,-396.22 1038,-417.73 1038,-417.73"/>
<polygon fill="black" stroke="black" points="1034.5,-417.73 1038,-427.73 1041.5,-417.73 1034.5,-417.73"/>
</g>
<!-- DiscussionRoutingModule -->
<g id="node31" class="node">
<title>DiscussionRoutingModule</title>
<polygon fill="#8dd3c7" stroke="black" points="1121.1,-328 1118.1,-332 1097.1,-332 1094.1,-328 954.9,-328 954.9,-292 1121.1,-292 1121.1,-328"/>
<text text-anchor="middle" x="1038" y="-305.8" font-family="Times,serif" font-size="14.00">DiscussionRoutingModule</text>
</g>
<!-- DiscussionRoutingModule&#45;&gt;DiscussionUiModule -->
<g id="edge30" class="edge">
<title>DiscussionRoutingModule&#45;&gt;DiscussionUiModule</title>
<path fill="none" stroke="black" d="M1015.5,-328.22C1015.5,-328.22 1015.5,-349.73 1015.5,-349.73"/>
<polygon fill="black" stroke="black" points="1012,-349.73 1015.5,-359.73 1019,-349.73 1012,-349.73"/>
</g>
<!-- DiscussionEventsService -->
<g id="node33" class="node">
<title>DiscussionEventsService</title>
<ellipse fill="#fdb462" stroke="black" cx="133" cy="-310" rx="108.8" ry="18"/>
<text text-anchor="middle" x="133" y="-305.8" font-family="Times,serif" font-size="14.00">DiscussionEventsService</text>
</g>
<!-- DiscussionEventsService&#45;&gt;DiscussionUiModule -->
<g id="edge33" class="edge">
<title>DiscussionEventsService&#45;&gt;DiscussionUiModule</title>
<path fill="none" stroke="black" d="M133,-328.25C133,-351.02 133,-387 133,-387 133,-387 960.35,-387 960.35,-387"/>
<polygon fill="black" stroke="black" points="960.35,-390.5 970.35,-387 960.35,-383.5 960.35,-390.5"/>
</g>
<!-- TelemetryUtilsService -->
<g id="node34" class="node">
<title>TelemetryUtilsService</title>
<ellipse fill="#fdb462" stroke="black" cx="833" cy="-310" rx="98.4" ry="18"/>
<text text-anchor="middle" x="833" y="-305.8" font-family="Times,serif" font-size="14.00">TelemetryUtilsService</text>
</g>
<!-- TelemetryUtilsService&#45;&gt;DiscussionUiModule -->
<g id="edge34" class="edge">
<title>TelemetryUtilsService&#45;&gt;DiscussionUiModule</title>
<path fill="none" stroke="black" d="M833,-328.02C833,-345.37 833,-369 833,-369 833,-369 960.31,-369 960.31,-369"/>
<polygon fill="black" stroke="black" points="960.31,-372.5 970.31,-369 960.31,-365.5 960.31,-372.5"/>
</g>
<!-- { provide: &#39;CsModule&#39;, useFactory: provideCsModule } -->
<g id="node35" class="node">
<title>{ provide: &#39;CsModule&#39;, useFactory: provideCsModule }</title>
<ellipse fill="#fdb462" stroke="black" cx="488" cy="-310" rx="228.35" ry="18"/>
<text text-anchor="middle" x="488" y="-305.8" font-family="Times,serif" font-size="14.00">{ provide: &#39;CsModule&#39;, useFactory: provideCsModule }</text>
</g>
<!-- { provide: &#39;CsModule&#39;, useFactory: provideCsModule }&#45;&gt;DiscussionUiModule -->
<g id="edge35" class="edge">
<title>{ provide: &#39;CsModule&#39;, useFactory: provideCsModule }&#45;&gt;DiscussionUiModule</title>
<path fill="none" stroke="black" d="M488,-328.22C488,-348.37 488,-378 488,-378 488,-378 960.28,-378 960.28,-378"/>
<polygon fill="black" stroke="black" points="960.28,-381.5 970.28,-378 960.28,-374.5 960.28,-381.5"/>
</g>
<!-- PostReplyComponent -->
<g id="node36" class="node">
<title>PostReplyComponent</title>
<polygon fill="#ffffb3" stroke="black" points="5402.39,-328 5263.61,-328 5263.61,-292 5402.39,-292 5402.39,-328"/>
<text text-anchor="middle" x="5333" y="-305.8" font-family="Times,serif" font-size="14.00">PostReplyComponent</text>
</g>
<!-- PostReplyComponent&#45;&gt;ElementsModule -->
<g id="edge36" class="edge">
<title>PostReplyComponent&#45;&gt;ElementsModule</title>
<path fill="none" stroke="black" d="M5333,-291.82C5333,-278.96 5333,-264 5333,-264 5333,-264 2034.73,-264 2034.73,-264 2034.73,-264 2034.73,-262.14 2034.73,-262.14"/>
<polygon fill="black" stroke="black" points="2038.23,-262.14 2034.73,-252.14 2031.23,-262.14 2038.23,-262.14"/>
</g>
<!-- CategoryCardComponent -->
<g id="node37" class="node">
<title>CategoryCardComponent</title>
<polygon fill="#ffffb3" stroke="black" points="5245.86,-328 5086.14,-328 5086.14,-292 5245.86,-292 5245.86,-328"/>
<text text-anchor="middle" x="5166" y="-305.8" font-family="Times,serif" font-size="14.00">CategoryCardComponent</text>
</g>
<!-- CategoryCardComponent&#45;&gt;ElementsModule -->
<g id="edge37" class="edge">
<title>CategoryCardComponent&#45;&gt;ElementsModule</title>
<path fill="none" stroke="black" d="M5166,-291.51C5166,-279.86 5166,-267 5166,-267 5166,-267 2027.72,-267 2027.72,-267 2027.72,-267 2027.72,-262.04 2027.72,-262.04"/>
<polygon fill="black" stroke="black" points="2031.22,-262.04 2027.72,-252.04 2024.22,-262.04 2031.22,-262.04"/>
</g>
<!-- DiscussCardComponent -->
<g id="node38" class="node">
<title>DiscussCardComponent</title>
<polygon fill="#ffffb3" stroke="black" points="5068.09,-328 4915.91,-328 4915.91,-292 5068.09,-292 5068.09,-328"/>
<text text-anchor="middle" x="4992" y="-305.8" font-family="Times,serif" font-size="14.00">DiscussCardComponent</text>
</g>
<!-- DiscussCardComponent&#45;&gt;ElementsModule -->
<g id="edge38" class="edge">
<title>DiscussCardComponent&#45;&gt;ElementsModule</title>
<path fill="none" stroke="black" d="M4992,-291.87C4992,-281.29 4992,-270 4992,-270 4992,-270 2020.71,-270 2020.71,-270 2020.71,-270 2020.71,-262.42 2020.71,-262.42"/>
<polygon fill="black" stroke="black" points="2024.21,-262.42 2020.71,-252.42 2017.21,-262.42 2024.21,-262.42"/>
</g>
<!-- AvatarPhotoComponent -->
<g id="node39" class="node">
<title>AvatarPhotoComponent</title>
<polygon fill="#ffffb3" stroke="black" points="5939.09,-328 5786.91,-328 5786.91,-292 5939.09,-292 5939.09,-328"/>
<text text-anchor="middle" x="5863" y="-305.8" font-family="Times,serif" font-size="14.00">AvatarPhotoComponent</text>
</g>
<!-- AvatarPhotoComponent&#45;&gt;ElementsModule -->
<g id="edge39" class="edge">
<title>AvatarPhotoComponent&#45;&gt;ElementsModule</title>
<path fill="none" stroke="black" d="M5863,-291.99C5863,-275.95 5863,-255 5863,-255 5863,-255 2055.76,-255 2055.76,-255 2055.76,-255 2055.76,-254.71 2055.76,-254.71"/>
<polygon fill="black" stroke="black" points="2059.26,-262.08 2055.76,-252.08 2052.26,-262.08 2059.26,-262.08"/>
</g>
<!-- AppLoaderComponent -->
<g id="node40" class="node">
<title>AppLoaderComponent</title>
<polygon fill="#ffffb3" stroke="black" points="5768.58,-328 5623.42,-328 5623.42,-292 5768.58,-292 5768.58,-328"/>
<text text-anchor="middle" x="5696" y="-305.8" font-family="Times,serif" font-size="14.00">AppLoaderComponent</text>
</g>
<!-- AppLoaderComponent&#45;&gt;ElementsModule -->
<g id="edge40" class="edge">
<title>AppLoaderComponent&#45;&gt;ElementsModule</title>
<path fill="none" stroke="black" d="M5696,-291.81C5696,-276.82 5696,-258 5696,-258 5696,-258 2048.75,-258 2048.75,-258 2048.75,-258 2048.75,-257.42 2048.75,-257.42"/>
<polygon fill="black" stroke="black" points="2052.25,-262.19 2048.75,-252.19 2045.25,-262.19 2052.25,-262.19"/>
</g>
<!-- RelatedDiscussionComponent -->
<g id="node41" class="node">
<title>RelatedDiscussionComponent</title>
<polygon fill="#ffffb3" stroke="black" points="5605.53,-328 5420.47,-328 5420.47,-292 5605.53,-292 5605.53,-328"/>
<text text-anchor="middle" x="5513" y="-305.8" font-family="Times,serif" font-size="14.00">RelatedDiscussionComponent</text>
</g>
<!-- RelatedDiscussionComponent&#45;&gt;ElementsModule -->
<g id="edge41" class="edge">
<title>RelatedDiscussionComponent&#45;&gt;ElementsModule</title>
<path fill="none" stroke="black" d="M5513,-291.75C5513,-277.82 5513,-261 5513,-261 5513,-261 2041.74,-261 2041.74,-261 2041.74,-261 2041.74,-260.12 2041.74,-260.12"/>
<polygon fill="black" stroke="black" points="2045.24,-262.16 2041.74,-252.16 2038.24,-262.16 2045.24,-262.16"/>
</g>
<!-- PipeFilterPipe -->
<g id="node48" class="node">
<title>PipeFilterPipe</title>
<polygon fill="#ffffb3" stroke="black" points="4719.11,-252 4622.89,-252 4622.89,-216 4719.11,-216 4719.11,-252"/>
<text text-anchor="middle" x="4671" y="-229.8" font-family="Times,serif" font-size="14.00">PipeFilterPipe</text>
</g>
<!-- PipeFilterPipe&#45;&gt;PipesModule -->
<g id="edge53" class="edge">
<title>PipeFilterPipe&#45;&gt;PipesModule</title>
<path fill="none" stroke="black" d="M4671,-215.84C4671,-193.65 4671,-159 4671,-159 4671,-159 2121.92,-159 2121.92,-159"/>
<polygon fill="black" stroke="black" points="2121.92,-155.5 2111.92,-159 2121.92,-162.5 2121.92,-155.5"/>
</g>
<!-- SortByPipe -->
<g id="node49" class="node">
<title>SortByPipe</title>
<polygon fill="#ffffb3" stroke="black" points="4605.06,-252 4524.94,-252 4524.94,-216 4605.06,-216 4605.06,-252"/>
<text text-anchor="middle" x="4565" y="-229.8" font-family="Times,serif" font-size="14.00">SortByPipe</text>
</g>
<!-- SortByPipe&#45;&gt;PipesModule -->
<g id="edge54" class="edge">
<title>SortByPipe&#45;&gt;PipesModule</title>
<path fill="none" stroke="black" d="M4565,-215.83C4565,-194.5 4565,-162 4565,-162 4565,-162 2121.95,-162 2121.95,-162"/>
<polygon fill="black" stroke="black" points="2121.95,-158.5 2111.95,-162 2121.95,-165.5 2121.95,-158.5"/>
</g>
<!-- PipeRelativeTimePipe -->
<g id="node50" class="node">
<title>PipeRelativeTimePipe</title>
<polygon fill="#ffffb3" stroke="black" points="4506.98,-252 4365.02,-252 4365.02,-216 4506.98,-216 4506.98,-252"/>
<text text-anchor="middle" x="4436" y="-229.8" font-family="Times,serif" font-size="14.00">PipeRelativeTimePipe</text>
</g>
<!-- PipeRelativeTimePipe&#45;&gt;PipesModule -->
<g id="edge55" class="edge">
<title>PipeRelativeTimePipe&#45;&gt;PipesModule</title>
<path fill="none" stroke="black" d="M4436,-215.78C4436,-195.63 4436,-166 4436,-166 4436,-166 2121.95,-166 2121.95,-166"/>
<polygon fill="black" stroke="black" points="2121.95,-162.5 2111.95,-166 2121.95,-169.5 2121.95,-162.5"/>
</g>
<!-- SplitInitialsPipe -->
<g id="node51" class="node">
<title>SplitInitialsPipe</title>
<polygon fill="#ffffb3" stroke="black" points="4843.22,-252 4736.78,-252 4736.78,-216 4843.22,-216 4843.22,-252"/>
<text text-anchor="middle" x="4790" y="-229.8" font-family="Times,serif" font-size="14.00">SplitInitialsPipe</text>
</g>
<!-- SplitInitialsPipe&#45;&gt;PipesModule -->
<g id="edge56" class="edge">
<title>SplitInitialsPipe&#45;&gt;PipesModule</title>
<path fill="none" stroke="black" d="M4790,-215.68C4790,-192.34 4790,-155 4790,-155 4790,-155 2121.99,-155 2121.99,-155"/>
<polygon fill="black" stroke="black" points="2121.99,-151.5 2111.99,-155 2121.99,-158.5 2121.99,-151.5"/>
</g>
</g>
</svg>
